<svg width="64" height="64" fill="none" xmlns="http://www.w3.org/2000/svg"><path d="M1 0a1 1 0 00-1 1v62a1 1 0 001 1h62a1 1 0 001-1V1a1 1 0 00-1-1H1zm1 2h60v60H2V2zm5.5 12a.5.5 0 00-.5.5v5a.5.5 0 00.5.5h49a.5.5 0 00.5-.5v-5a.5.5 0 00-.5-.5h-4a.5.5 0 000 1H56v4H8v-4h35.5a.5.5 0 000-1h-36zm38 0a.5.5 0 000 1h4a.5.5 0 000-1h-4zm-38 10a.5.5 0 00-.5.5v5a.5.5 0 00.5.5h44a.5.5 0 00.5-.5v-5a.5.5 0 00-.5-.5h-32a.5.5 0 000 1H51v4H8v-4h6.5a.5.5 0 000-1h-7zm0 10a.5.5 0 00-.5.5v5a.5.5 0 00.5.5h24a.5.5 0 000-1H8v-4h37v4h-5.5a.5.5 0 000 1h6a.5.5 0 00.5-.5v-5a.5.5 0 00-.5-.5h-38zm26 5a.5.5 0 000 1h3a.5.5 0 000-1h-3zm-26 5a.5.5 0 00-.5.5v5a.5.5 0 00.5.5h8a.5.5 0 000-1H8v-4h46v4H21.5a.5.5 0 000 1h33a.5.5 0 00.5-.5v-5a.5.5 0 00-.5-.5h-47z" fill="#E4B564"/></svg>