<svg width="71" height="64" fill="none" xmlns="http://www.w3.org/2000/svg"><path d="M3.86.688A3.522 3.522 0 00.343 4.203v9.375c0 .902.352 1.721.915 2.344a3.487 3.487 0 00-.915 2.344v11.718c0 .902.352 1.722.915 2.344a3.488 3.488 0 00-.915 2.344V46.39c0 .901.352 1.72.915 2.343a3.487 3.487 0 00-.915 2.344v9.375a3.522 3.522 0 003.515 3.516h16.407c.901 0 1.72-.353 2.343-.916a3.487 3.487 0 002.344.916h18.75a3.49 3.49 0 002.344-.916 3.487 3.487 0 002.344.916h18.75a3.522 3.522 0 003.515-3.516v-9.375c0-.902-.352-1.721-.915-2.344a3.487 3.487 0 00.915-2.343V34.67c0-.9-.352-1.72-.915-2.343a3.487 3.487 0 00.915-2.344V18.266c0-.902-.352-1.722-.915-2.344a3.487 3.487 0 00.915-2.344V4.203A3.522 3.522 0 0067.141.687h-5.86c-.901 0-1.72.353-2.343.916a3.488 3.488 0 00-2.344-.915h-18.75c-.902 0-1.721.352-2.344.915a3.488 3.488 0 00-2.344-.915h-18.75a3.49 3.49 0 00-2.344.915A3.488 3.488 0 009.72.688H3.86zm0 2.343h5.859c.645 0 1.172.527 1.172 1.172v9.375c0 .646-.527 1.172-1.172 1.172h-5.86a1.174 1.174 0 01-1.171-1.172V4.203c0-.645.526-1.172 1.171-1.172zm10.546 0h18.75c.646 0 1.172.527 1.172 1.172v9.375c0 .646-.526 1.172-1.172 1.172h-18.75a1.174 1.174 0 01-1.172-1.172V4.203c0-.645.527-1.172 1.172-1.172zm23.438 0h18.75c.645 0 1.172.527 1.172 1.172v9.375c0 .646-.527 1.172-1.172 1.172h-18.75a1.174 1.174 0 01-1.172-1.172V4.203c0-.645.526-1.172 1.172-1.172zm23.437 0h5.86c.645 0 1.171.527 1.171 1.172v9.375c0 .646-.526 1.172-1.171 1.172h-5.86a1.174 1.174 0 01-1.172-1.172V4.203c0-.645.527-1.172 1.172-1.172zM3.86 17.094h16.407c.645 0 1.172.526 1.172 1.172v11.718c0 .646-.527 1.172-1.172 1.172H3.859a1.174 1.174 0 01-1.171-1.172V18.266c0-.646.526-1.172 1.171-1.172zm21.094 0h18.75c.646 0 1.172.526 1.172 1.172v11.718c0 .646-.526 1.172-1.172 1.172h-18.75a1.174 1.174 0 01-1.172-1.172V18.266c0-.646.527-1.172 1.172-1.172zm23.438 0h18.75c.645 0 1.171.526 1.171 1.172v11.718c0 .646-.526 1.172-1.171 1.172H48.39a1.174 1.174 0 01-1.172-1.172V18.266c0-.646.526-1.172 1.172-1.172zM3.859 33.5h5.86c.645 0 1.172.526 1.172 1.172V46.39c0 .645-.527 1.172-1.172 1.172h-5.86a1.174 1.174 0 01-1.171-1.172V34.67c0-.645.526-1.171 1.171-1.171zm10.547 0h18.75c.646 0 1.172.526 1.172 1.172V46.39c0 .645-.526 1.172-1.172 1.172h-18.75a1.174 1.174 0 01-1.172-1.172V34.67c0-.645.527-1.171 1.172-1.171zm23.438 0h18.75c.645 0 1.172.526 1.172 1.172V46.39c0 .645-.527 1.172-1.172 1.172h-18.75a1.174 1.174 0 01-1.172-1.172V34.67c0-.645.526-1.171 1.172-1.171zm23.437 0h5.86c.645 0 1.171.526 1.171 1.172V46.39c0 .645-.526 1.172-1.171 1.172h-5.86a1.174 1.174 0 01-1.172-1.172V34.67c0-.645.527-1.171 1.172-1.171zM3.86 49.906h16.407c.645 0 1.172.527 1.172 1.172v9.375c0 .646-.527 1.172-1.172 1.172H3.859a1.174 1.174 0 01-1.171-1.172v-9.375c0-.645.526-1.172 1.171-1.172zm21.094 0h18.75c.646 0 1.172.527 1.172 1.172v9.375c0 .646-.526 1.172-1.172 1.172h-18.75a1.174 1.174 0 01-1.172-1.172v-9.375c0-.645.527-1.172 1.172-1.172zm23.438 0h18.75c.645 0 1.171.527 1.171 1.172v9.375c0 .646-.526 1.172-1.171 1.172H48.39a1.174 1.174 0 01-1.172-1.172v-9.375c0-.645.526-1.172 1.172-1.172zM6.203 54.594c-.65 0-1.172.522-1.172 1.172v2.343c0 .65.522 1.172 1.172 1.172.65 0 1.172-.522 1.172-1.172v-2.343c0-.65-.522-1.172-1.172-1.172zm5.86 0c-.65 0-1.172.522-1.172 1.172v2.343c0 .65.521 1.172 1.171 1.172s1.172-.522 1.172-1.172v-2.343c0-.65-.521-1.172-1.171-1.172zm5.859 0c-.65 0-1.172.522-1.172 1.172v2.343c0 .65.522 1.172 1.172 1.172.65 0 1.172-.522 1.172-1.172v-2.343c0-.65-.522-1.172-1.172-1.172zm10.547 0c-.65 0-1.172.522-1.172 1.172v2.343c0 .65.522 1.172 1.172 1.172.65 0 1.172-.522 1.172-1.172v-2.343c0-.65-.522-1.172-1.172-1.172zm5.86 0a1.17 1.17 0 00-1.173 1.172v2.343c0 .65.522 1.172 1.172 1.172.65 0 1.172-.522 1.172-1.172v-2.343c0-.65-.522-1.172-1.172-1.172zm5.858 0c-.65 0-1.171.522-1.171 1.172v2.343c0 .65.522 1.172 1.172 1.172.65 0 1.171-.522 1.171-1.172v-2.343c0-.65-.522-1.172-1.172-1.172zm11.72 0a1.17 1.17 0 00-1.173 1.172v2.343c0 .65.522 1.172 1.172 1.172.65 0 1.172-.522 1.172-1.172v-2.343c0-.65-.522-1.172-1.172-1.172zm5.859 0c-.65 0-1.172.522-1.172 1.172v2.343c0 .65.522 1.172 1.172 1.172.65 0 1.172-.522 1.172-1.172v-2.343c0-.65-.522-1.172-1.172-1.172zm5.859 0c-.65 0-1.172.522-1.172 1.172v2.343c0 .65.522 1.172 1.172 1.172.65 0 1.172-.522 1.172-1.172v-2.343c0-.65-.522-1.172-1.172-1.172z" fill="#E4B564"/></svg>