<svg width="54" height="59" fill="none" xmlns="http://www.w3.org/2000/svg"><path d="M1.625 0A.877.877 0 00.75.875c0 .482.393.875.875.875A.877.877 0 002.5.875.877.877 0 001.625 0zm15.75 0a.877.877 0 00-.875.875c0 .482.393.875.875.875a.877.877 0 00.875-.875.877.877 0 00-.875-.875zM1.625 3.5a.877.877 0 00-.875.875c0 .482.393.875.875.875a.877.877 0 00.875-.875.877.877 0 00-.875-.875zm15.75 0a.877.877 0 00-.875.875c0 .482.393.875.875.875a.877.877 0 00.875-.875.877.877 0 00-.875-.875zM1.611 6.986a.879.879 0 00-.86.889V14c0 12.072 9.802 21.875 21.874 21.875h.366c.386.967 1.159 1.75 2.26 1.75 1.1 0 1.872-.783 2.258-1.75h5.616A2.613 2.613 0 0135.75 38.5v11.375h17.5V40.25c0-12.072-9.803-21.875-21.875-21.875H27.51c-.386-.967-1.158-1.75-2.259-1.75-1.1 0-1.873.783-2.26 1.75h-2.115a2.613 2.613 0 01-2.625-2.625V7.875a.88.88 0 00-.434-.769.883.883 0 00-.882 0 .88.88 0 00-.434.769v7.875a4.388 4.388 0 004.375 4.375h1.75c0 .482.393.875.875.875a.877.877 0 00.875-.875v-.875a.86.86 0 01.875-.875.86.86 0 01.875.875v.875c0 .482.393.875.875.875a.877.877 0 00.875-.875h3.5c11.126 0 20.125 9 20.125 20.125v7.875h-14V38.5a4.388 4.388 0 00-4.375-4.375h-5.25A.877.877 0 0027 33.25a.877.877 0 00-.875.875V35a.86.86 0 01-.875.875.86.86 0 01-.875-.875v-.875a.877.877 0 00-.875-.875.877.877 0 00-.875.875C11.5 34.125 2.5 25.125 2.5 14V7.875a.878.878 0 00-.889-.889zm21.89 15.764a.877.877 0 00-.876.875c0 .482.393.875.875.875a.877.877 0 00.875-.875.877.877 0 00-.875-.875zm3.5 0a.877.877 0 00-.876.875c0 .482.393.875.875.875a.877.877 0 00.875-.875.877.877 0 00-.875-.875zm-3.5 3.5a.877.877 0 00-.876.875c0 .482.393.875.875.875a.877.877 0 00.875-.875.877.877 0 00-.875-.875zm3.5 0a.877.877 0 00-.876.875c0 .482.393.875.875.875a.877.877 0 00.875-.875.877.877 0 00-.875-.875zm-3.5 3.5a.877.877 0 00-.876.875c0 .482.393.875.875.875a.877.877 0 00.875-.875.877.877 0 00-.875-.875zm3.5 0a.877.877 0 00-.876.875c0 .482.393.875.875.875a.877.877 0 00.875-.875.877.877 0 00-.875-.875zM44.5 52.5s-1.75 3.408-1.75 4.375a1.749 1.749 0 103.5 0c0-.967-1.75-4.375-1.75-4.375z" fill="#E4B564"/></svg>