<svg width="64" height="55" fill="none" xmlns="http://www.w3.org/2000/svg"><path d="M10.937.03c-.202-.007-.4.017-.595.058C9.183.34 8.25 1.376 8.25 2.655v6.47a2.639 2.639 0 002.625 2.625h9.116c.386.967 1.158 1.75 2.259 1.75H24v2.625h-5.25c-1.1 0-1.873.783-2.26 1.75H8.25a.88.88 0 00-.769.434.883.883 0 000 .882.88.88 0 00.769.434h7.875c0 .482.393.875.875.875a.877.877 0 00.875-.875v-.875a.86.86 0 01.875-.875h5.978a.79.79 0 00.284 0h4.966a.79.79 0 00.284 0h5.988a.86.86 0 01.875.875v.875c0 .482.393.875.875.875a.877.877 0 00.875-.875h4.375c9.19 0 16.625 7.434 16.625 16.625v6.125h.875a.86.86 0 01.875.875.86.86 0 01-.875.875h-14a.86.86 0 01-.875-.875.86.86 0 01.875-.875h.875V38a4.388 4.388 0 00-4.375-4.375h-4.375A.877.877 0 0038 32.75a.877.877 0 00-.875.875v.875a.86.86 0 01-.875.875h-17.5a.86.86 0 01-.875-.875v-.875A.877.877 0 0017 32.75a.877.877 0 00-.875.875H8.25a.88.88 0 00-.769.434.883.883 0 000 .882.88.88 0 00.769.434h8.24c.387.967 1.16 1.75 2.26 1.75h17.5c1.1 0 1.873-.783 2.26-1.75h4.74A2.613 2.613 0 0145.875 38v2.99c-.967.387-1.75 1.16-1.75 2.26a2.639 2.639 0 002.625 2.625h14a2.639 2.639 0 002.625-2.625c0-1.1-.783-1.873-1.75-2.26v-4.74c0-10.138-8.237-18.375-18.375-18.375h-4.74c-.387-.967-1.16-1.75-2.26-1.75H31V13.5h1.75c1.1 0 1.873-.783 2.26-1.75h9.115a2.639 2.639 0 002.625-2.625v-6.47c0-1.706-1.658-2.977-3.302-2.54l-9.826 2.622c-.93-.868-2.116-1.487-3.497-1.487h-5.25c-1.38 0-2.567.619-3.497 1.487L11.552.115h-.004a2.537 2.537 0 00-.611-.085zm-.048 1.743c.068.003.14.014.212.034l10.756 2.871.362-.424A3.44 3.44 0 0124.875 3h5.25c1.073 0 2.01.489 2.656 1.254l.362.424L43.9 1.808a.857.857 0 011.1.846v6.47a.86.86 0 01-.875.875h-8.75a.877.877 0 00-.875-.875.877.877 0 00-.875.875v.875a.86.86 0 01-.875.875h-2.488c-.052-.007-.1-.014-.15-.014-.042.004-.086.007-.127.014h-4.973c-.052-.007-.1-.014-.15-.014-.042.004-.086.007-.127.014H22.25a.86.86 0 01-.875-.875V10a.877.877 0 00-.875-.875.877.877 0 00-.875.875h-8.75A.86.86 0 0110 9.125v-6.47c0-.523.403-.9.889-.882zM20.5 5.625a.877.877 0 00-.875.875c0 .482.393.875.875.875a.877.877 0 00.875-.875.877.877 0 00-.875-.875zm14 0a.877.877 0 00-.875.875c0 .482.393.875.875.875a.877.877 0 00.875-.875.877.877 0 00-.875-.875zM25.75 13.5h3.5v2.625h-3.5V13.5zm-24.5 4.375a.877.877 0 00-.875.875c0 .482.393.875.875.875a.877.877 0 00.875-.875.877.877 0 00-.875-.875zm3.5 0a.877.877 0 00-.875.875c0 .482.393.875.875.875a.877.877 0 00.875-.875.877.877 0 00-.875-.875zM17 22.25a.877.877 0 00-.875.875c0 .482.393.875.875.875a.877.877 0 00.875-.875.877.877 0 00-.875-.875zm21 0a.877.877 0 00-.875.875c0 .482.393.875.875.875a.877.877 0 00.875-.875.877.877 0 00-.875-.875zm-21 3.5a.877.877 0 00-.875.875c0 .482.393.875.875.875a.877.877 0 00.875-.875.877.877 0 00-.875-.875zm21 0a.877.877 0 00-.875.875c0 .482.393.875.875.875a.877.877 0 00.875-.875.877.877 0 00-.875-.875zm-21 3.5a.877.877 0 00-.875.875c0 .482.393.875.875.875a.877.877 0 00.875-.875.877.877 0 00-.875-.875zm21 0a.877.877 0 00-.875.875c0 .482.393.875.875.875a.877.877 0 00.875-.875.877.877 0 00-.875-.875zM1.25 33.625a.877.877 0 00-.875.875c0 .482.393.875.875.875a.877.877 0 00.875-.875.877.877 0 00-.875-.875zm3.5 0a.877.877 0 00-.875.875c0 .482.393.875.875.875a.877.877 0 00.875-.875.877.877 0 00-.875-.875zm45.5 7a.877.877 0 00-.875.875c0 .482.393.875.875.875a.877.877 0 00.875-.875.877.877 0 00-.875-.875zm3.5 0a.877.877 0 00-.875.875c0 .482.393.875.875.875a.877.877 0 00.875-.875.877.877 0 00-.875-.875zm3.5 0a.877.877 0 00-.875.875c0 .482.393.875.875.875a.877.877 0 00.875-.875.877.877 0 00-.875-.875zM54.625 48.5s-1.75 3.408-1.75 4.375a1.749 1.749 0 103.5 0c0-.967-1.75-4.375-1.75-4.375z" fill="#E4B564"/></svg>