<svg width="80" height="80" fill="none" xmlns="http://www.w3.org/2000/svg"><path d="M13.281.625a4.227 4.227 0 00-4.219 4.219v63.281H3.439a2.818 2.818 0 00-2.813 2.813v2.812a5.629 5.629 0 005.625 5.625h67.5a5.629 5.629 0 005.625-5.625V4.844a4.227 4.227 0 00-4.22-4.219H13.281zm0 2.813h61.875c.775 0 1.406.631 1.406 1.406V73.75a2.818 2.818 0 01-2.812 2.813 2.818 2.818 0 01-2.813-2.813v-2.813a2.818 2.818 0 00-2.812-2.812h-56.25V4.844a1.41 1.41 0 011.406-1.407zm9.844 12.656a2.81 2.81 0 00-2.813 2.812 2.81 2.81 0 002.813 2.813 2.81 2.81 0 002.813-2.813 2.81 2.81 0 00-2.813-2.812zm8.438 1.406a1.41 1.41 0 00-1.407 1.406 1.41 1.41 0 001.407 1.407h16.875a1.41 1.41 0 001.406-1.407 1.41 1.41 0 00-1.407-1.406H31.564zm22.5 0a1.41 1.41 0 00-1.407 1.406 1.41 1.41 0 001.407 1.407h5.624a1.41 1.41 0 001.407-1.407 1.41 1.41 0 00-1.407-1.406h-5.624zm-22.5 5.625a1.41 1.41 0 00-1.407 1.406 1.41 1.41 0 001.407 1.407h23.906a1.41 1.41 0 001.406-1.407 1.41 1.41 0 00-1.406-1.406H31.562zm-8.438 7.031a2.81 2.81 0 00-2.813 2.813 2.81 2.81 0 002.813 2.812 2.81 2.81 0 002.813-2.812 2.81 2.81 0 00-2.813-2.813zm8.438 1.407c-.775 0-1.407.631-1.407 1.406a1.41 1.41 0 001.407 1.406h33.75a1.41 1.41 0 001.406-1.406 1.41 1.41 0 00-1.406-1.407h-33.75zm0 5.625c-.775 0-1.407.631-1.407 1.406A1.41 1.41 0 0031.563 40h28.125a1.41 1.41 0 001.406-1.406 1.41 1.41 0 00-1.407-1.407H31.564zm-8.438 7.03a2.81 2.81 0 00-2.813 2.813 2.81 2.81 0 002.813 2.813 2.81 2.81 0 002.813-2.813 2.81 2.81 0 00-2.813-2.812zm8.438 1.407a1.41 1.41 0 00-1.407 1.406 1.41 1.41 0 001.407 1.407h11.25a1.41 1.41 0 001.406-1.407 1.41 1.41 0 00-1.407-1.406h-11.25zm16.875 0a1.41 1.41 0 00-1.407 1.406 1.41 1.41 0 001.407 1.407h12.656a1.41 1.41 0 001.406-1.407 1.41 1.41 0 00-1.406-1.406H48.437zM16.093 59.688c-.775 0-1.407.631-1.407 1.406v2.812a1.41 1.41 0 001.407 1.407 1.41 1.41 0 001.406-1.407v-2.812a1.41 1.41 0 00-1.406-1.407zm7.031 0c-.774 0-1.406.631-1.406 1.406v2.812c0 .775.631 1.407 1.406 1.407a1.41 1.41 0 001.406-1.407v-2.812c0-.775-.631-1.407-1.406-1.407zm7.031 0c-.774 0-1.406.631-1.406 1.406v2.812a1.41 1.41 0 001.406 1.407 1.41 1.41 0 001.407-1.407v-2.812a1.41 1.41 0 00-1.407-1.407zm7.032 0c-.775 0-1.407.631-1.407 1.406v2.812a1.41 1.41 0 001.407 1.407 1.41 1.41 0 001.406-1.407v-2.812a1.41 1.41 0 00-1.407-1.407zm7.03 0c-.774 0-1.406.631-1.406 1.406v2.812a1.41 1.41 0 001.407 1.407 1.41 1.41 0 001.406-1.407v-2.812a1.41 1.41 0 00-1.406-1.407zm7.032 0c-.775 0-1.406.631-1.406 1.406v2.812c0 .775.631 1.407 1.406 1.407.775 0 1.406-.632 1.406-1.407v-2.812c0-.775-.631-1.407-1.406-1.407zm7.031 0c-.774 0-1.406.631-1.406 1.406v2.812a1.41 1.41 0 001.406 1.407 1.41 1.41 0 001.407-1.407v-2.812a1.41 1.41 0 00-1.407-1.407zm7.032 0c-.775 0-1.407.631-1.407 1.406v2.812a1.41 1.41 0 001.407 1.407 1.41 1.41 0 001.406-1.407v-2.812a1.41 1.41 0 00-1.406-1.407zm7.03 0c-.774 0-1.406.631-1.406 1.406v2.812a1.41 1.41 0 001.407 1.407 1.41 1.41 0 001.406-1.407v-2.812a1.41 1.41 0 00-1.406-1.407zM3.438 70.938h64.688v2.812a5.52 5.52 0 00.785 2.813H6.25a2.818 2.818 0 01-2.813-2.813v-2.813z" fill="#E4B564"/></svg>