<svg width="65" height="80" fill="none" xmlns="http://www.w3.org/2000/svg"><path d="M4.469.625A4.227 4.227 0 00.25 4.844v70.312a4.227 4.227 0 004.219 4.219h56.25a4.227 4.227 0 004.218-4.219V19.83a6.98 6.98 0 00-2.06-4.971L50.706 2.685a6.98 6.98 0 00-4.972-2.06H4.47zm0 2.813H45.25v12.656a4.227 4.227 0 004.219 4.218h12.656v54.844c0 .775-.632 1.406-1.406 1.406H4.469a1.409 1.409 0 01-1.407-1.406V4.844a1.41 1.41 0 011.407-1.407zm43.593.703c.231.153.45.33.654.532L60.89 16.846c.198.198.374.418.533.654H49.469a1.409 1.409 0 01-1.407-1.406V4.14zM15.72 14.687c-.78 0-1.406.627-1.406 1.407S14.94 17.5 15.72 17.5h25.31c.78 0 1.407-.626 1.407-1.406 0-.78-.627-1.407-1.407-1.407H15.72zm0 5.626c-.78 0-1.406.626-1.406 1.406 0 .78.626 1.406 1.406 1.406h28.125c.78 0 1.406-.626 1.406-1.406 0-.78-.626-1.407-1.406-1.407H15.719zm0 5.625c-.78 0-1.406.626-1.406 1.406 0 .78.626 1.406 1.406 1.406h22.5c.78 0 1.406-.626 1.406-1.406 0-.78-.626-1.407-1.406-1.407h-22.5zm28.125 0c-.78 0-1.407.626-1.407 1.406 0 .78.627 1.406 1.407 1.406h5.625c.78 0 1.406-.626 1.406-1.406 0-.78-.626-1.407-1.406-1.407h-5.625zM15.72 31.563c-.78 0-1.406.626-1.406 1.406 0 .78.626 1.406 1.406 1.406h33.75c.78 0 1.406-.626 1.406-1.406 0-.78-.626-1.407-1.406-1.407H15.72zm0 5.625c-.78 0-1.406.626-1.406 1.406 0 .78.626 1.406 1.406 1.406h33.75c.78 0 1.406-.626 1.406-1.406 0-.78-.626-1.407-1.406-1.407H15.72zm0 5.624c-.78 0-1.406.627-1.406 1.407s.626 1.406 1.406 1.406h19.687c.78 0 1.407-.626 1.407-1.406 0-.78-.627-1.407-1.407-1.407H15.72zm6.092 9.894a2.353 2.353 0 00-.934.263c-2.192 1.148-2.208 5.219-1.494 8.647.313 1.5 1.164 3.416 2.29 5.01-.56 1.164-1.274 2.224-2.142 3.037a1.405 1.405 0 101.923 2.049c.878-.818 1.626-1.824 2.252-2.922.115.088.23.17.346.247.522.335 1.022.522 1.521.566.605.05 1.22-.1 1.84-.44.94-.516 1.797-1.351 2.478-2.334a2.67 2.67 0 001.89-.1c1.675-.73 2.334-2.098 2.691-2.828l.105-.226c.038-.076.082-.153.12-.236h.006c2.027.38 3.356-1.477 3.988-2.367.412-.572.857-.852.895-.885.676.385 1.539.16 1.929-.51a1.415 1.415 0 00-.511-1.923c-1.461-.846-3.269-.181-4.603 1.686-.517.725-.825 1.022-.978 1.154.05-.654.01-1.28-.17-1.785-.259-.731-.731-1.066-1.083-1.214a1.452 1.452 0 00-1.269.077c-.357.214-1.17.878-.879 2.515a5 5 0 00.407 1.27 4.66 4.66 0 01-.34.917l-.154.307c-.182.385-.374.775-.682 1.088a6.2 6.2 0 00.154-1.395c-.044-3.088-.62-4.79-1.807-5.345-.654-.308-1.39-.209-1.972.258-1.099.89-1.5 3.12-.967 5.427.165.73.527 1.588 1.038 2.335-.456.708-1.038 1.318-1.637 1.648-.153.088-.236.104-.236.11-.016-.006-.088-.028-.242-.132a4.311 4.311 0 01-.659-.533c.764-2.082 1.154-4.268 1.209-6.13.077-2.697-.511-4.84-1.66-6.043-1.032-1.082-1.977-1.313-2.663-1.263zm.302 2.911c.082.06.187.154.324.297.467.489.945 1.801.879 4.015a16.48 16.48 0 01-.434 3.22c-.352-.737-.615-1.479-.747-2.105-.632-3.043-.302-4.834-.022-5.427zM7.28 65.313c-.78 0-1.406.626-1.406 1.406v2.812c0 .78.626 1.406 1.406 1.406.78 0 1.407-.626 1.407-1.406V66.72c0-.78-.627-1.406-1.407-1.406zm7.032 0c-.78 0-1.407.626-1.407 1.406v2.812c0 .78.627 1.406 1.406 1.406.78 0 1.407-.626 1.407-1.406V66.72c0-.78-.627-1.406-1.406-1.406zm22.5 0c-.78 0-1.407.626-1.407 1.406v2.812c0 .78.627 1.406 1.407 1.406s1.406-.626 1.406-1.406V66.72c0-.78-.627-1.406-1.407-1.406zm7.03 0c-.78 0-1.406.626-1.406 1.406v2.812c0 .78.627 1.406 1.407 1.406s1.406-.626 1.406-1.406V66.72c0-.78-.626-1.406-1.406-1.406zm7.032 0c-.78 0-1.406.626-1.406 1.406v2.812c0 .78.626 1.406 1.406 1.406.78 0 1.406-.626 1.406-1.406V66.72c0-.78-.626-1.406-1.406-1.406zm7.031 0c-.78 0-1.406.626-1.406 1.406v2.812c0 .78.626 1.406 1.406 1.406.78 0 1.407-.626 1.407-1.406V66.72c0-.78-.627-1.406-1.407-1.406z" fill="#E4B564"/></svg>