<svg width="119" height="53" fill="none" xmlns="http://www.w3.org/2000/svg"><g clip-path="url(#clip0)" fill="#fff"><path d="M21.765 18.278h-3.313c0-.25-.63-2.156-3.292-2.156-1.95 0-2.363 1.03-2.363 1.715 0 1.593 2.642 1.915 4.216 2.317 1.779.453 5.264 1.381 5.264 4.913 0 1.96-1.048 3.235-1.972 3.972-1.221.956-2.926 1.446-4.924 1.446-4.943 0-7.104-2.841-7.335-5.565h3.769c.073.607.835 2.623 3.687 2.623 2.438 0 2.73-1.3 2.73-1.84 0-1.542-2.145-1.906-4.035-2.4-1.954-.513-5.3-1.349-5.3-4.977 0-2.672 1.927-5.146 6.459-5.146 5.775.002 6.409 4.226 6.409 5.098zm14.05 7.822c-.175.915-1.355 4.387-5.95 4.387-2.048 0-3.56-.812-4.486-1.74-.854-.859-1.778-2.382-1.778-4.733 0-2.744 1.217-4.291 2.19-5.124 1.44-1.224 3-1.397 4.096-1.397 2.365 0 3.852 1.08 4.68 2.086.757.906 1.438 2.4 1.438 4.51v.636h-8.511c0 1.645.629 3.312 2.54 3.312 1.628 0 2.29-1.262 2.437-1.937h3.344zm-3.538-3.457c0-.609-.273-2.698-2.34-2.698-2.066 0-2.443 1.833-2.443 2.698h4.783zm10.229-4.903h2.582v2.574h-2.582v5.611c0 .442 0 .982.389 1.397.316.32.73.368 1.12.368h1.341v2.576c-.827.12-1.898.22-2.68.22-.901 0-2.12-.196-2.926-1.054-.923-.978-.876-2.207-.876-3.406v-5.712h-1.951V17.74h1.951l.34-3.823h3.292v3.823zm25.858 12.5h-2.049l-.606-1.835a5.4 5.4 0 01-1.514 1.372c-.9.515-2.072.712-3.093.712-1.512 0-3.412-.322-4.997-2.084-1.46-1.62-2.218-4.169-2.218-6.348 0-2.233.634-4.733 2.094-6.425 1.732-2.01 3.9-2.45 5.63-2.45 5.046 0 6.469 3.386 6.704 5.932h-3.78c-.07-.612-.314-1.347-.68-1.84-.389-.538-1.096-1.15-2.315-1.15-.952 0-2.072.392-2.803 1.814-.194.392-.656 1.42-.656 3.872 0 1.447.168 3.04.778 4.07.514.856 1.387 1.668 2.826 1.668.904 0 1.633-.344 2.121-.834.486-.49.855-1.322.855-2.206v-.419H61.32v-2.868h7.047v9.02h-.002zm2.696 0v-12.5h3.17v2.77h.05a3.548 3.548 0 01.9-1.96 3.27 3.27 0 012.46-1.055c.221 0 .44.027.66.05v3.284h-.585c-.609 0-1.195.123-1.66.417-1.193.76-1.364 1.937-1.364 3.259v5.734H71.06v.002zm18.717-11.03c.585.59 1.851 2.132 1.851 4.755 0 2.01-.779 3.8-1.948 4.928-.852.81-2.243 1.594-4.216 1.594-1.977 0-3.364-.785-4.218-1.593-1.17-1.129-1.948-2.919-1.948-4.93 0-2.622 1.268-4.166 1.855-4.754 1.438-1.422 3.092-1.717 4.313-1.717 1.215 0 2.873.295 4.31 1.717zm-6.046 1.716c-.586.907-.634 2.107-.634 3.039 0 1.69.267 2.5.561 3.015.463.81 1.148 1.055 1.806 1.055.656 0 1.341-.248 1.803-1.055.295-.516.562-1.323.562-3.015 0-.932-.048-2.132-.633-3.039-.415-.661-.952-.98-1.732-.98s-1.32.32-1.733.98zm13.315-3.186v7.526c0 .463 0 1.347.412 1.885.269.368.73.564 1.24.564.586 0 1.22-.268 1.636-.832.485-.636.561-1.393.561-2.033v-7.109h3.63v12.501h-3.365v-2.23h-.045c-.636 1.471-1.904 2.477-3.728 2.477-1.124 0-1.95-.344-2.585-.886-1.22-1.03-1.392-2.452-1.392-3.748v-8.114h3.636v-.002zm10.134 16.52V17.74h3.364v2.01c.755-1.47 2.218-2.255 3.777-2.255 3.048 0 4.68 2.672 4.68 6.375 0 4.706-2.414 6.619-4.826 6.619-1.486 0-2.604-.614-3.362-1.84v5.613h-3.633v-.002zm3.633-9.018c0 1.74.802 2.795 2.118 2.795 1.807 0 2.264-1.987 2.264-4.095 0-2.843-.875-3.997-2.264-3.997-1.292 0-2.118 1.104-2.118 2.6v2.697zM51.772 11.633h-3.693v18.57h3.693v-18.57z"/><path d="M51.755 11.638H48.06v18.568h3.695V11.638z"/><path d="M0 .501v51.998h51.762V33.987h-3.698v14.792H3.745L3.731 4.235l44.333-.014v3.722h3.698V.501H0z"/></g><defs><clipPath id="clip0"><path fill="#fff" d="M0 0h119v53H0z"/></clipPath></defs></svg>