<svg viewBox="0 0 512 512" xmlns="http://www.w3.org/2000/svg" xmlns:xlink="http://www.w3.org/1999/xlink"><style>:root&gt;svg{display:none}:root&gt;svg:target{display:block}</style><svg viewBox="0 0 12 6" id="arrow-down" xmlns="http://www.w3.org/2000/svg"><path d="M6.003 5.64a.24.24 0 00.166-.07l4.8-4.8a.238.238 0 00.066-.234.238.238 0 00-.172-.171.238.238 0 00-.233.065L6 5.06 1.37.43a.238.238 0 00-.234-.065.238.238 0 00-.172.171.238.238 0 00.066.234l4.8 4.8a.24.24 0 00.173.07z"/></svg><svg viewBox="0 0 11 9" id="check" xmlns="http://www.w3.org/2000/svg"><path d="M9.992.867L3.875 6.984 1.549 4.659l-.766.766 3.092 3.09 6.883-6.882-.766-.766z"/></svg><svg aria-hidden="true" data-prefix="fas" data-icon="chevron-left" class="csvg-inline--fa cfa-chevron-left cfa-w-10" viewBox="0 0 320 512" id="chevron-left" xmlns="http://www.w3.org/2000/svg"><path d="M34.52 239.03L228.87 44.69c9.37-9.37 24.57-9.37 33.94 0l22.67 22.67c9.36 9.36 9.37 24.52.04 33.9L131.49 256l154.02 154.75c9.34 9.38 9.32 24.54-.04 33.9l-22.67 22.67c-9.37 9.37-24.57 9.37-33.94 0L34.52 272.97c-9.37-9.37-9.37-24.57 0-33.94z"/></svg><svg aria-hidden="true" data-prefix="fas" data-icon="chevron-right" class="dsvg-inline--fa dfa-chevron-right dfa-w-10" viewBox="0 0 320 512" id="chevron-right" xmlns="http://www.w3.org/2000/svg"><path d="M285.476 272.971L91.132 467.314c-9.373 9.373-24.569 9.373-33.941 0l-22.667-22.667c-9.357-9.357-9.375-24.522-.04-33.901L188.505 256 34.484 101.255c-9.335-9.379-9.317-24.544.04-33.901l22.667-22.667c9.373-9.373 24.569-9.373 33.941 0L285.475 239.03c9.373 9.372 9.373 24.568.001 33.941z"/></svg><svg viewBox="0 0 71 67" id="design" xmlns="http://www.w3.org/2000/svg"><path d="M8.547.172C4.023.172.344 3.852.344 8.375v45.703c0 3.975 2.844 7.296 6.603 8.043 1.315 2.918 4.219 4.848 7.46 4.848H67.14a3.52 3.52 0 003.515-3.516V21.266a3.52 3.52 0 00-3.515-3.516h-1.172v-1.172a3.52 3.52 0 00-3.516-3.515H16.75V8.375c0-4.522-3.68-8.203-8.203-8.203zm0 2.344c3.23 0 5.86 2.628 5.86 5.859v38.802a8.172 8.172 0 00-11.72 0V8.375c0-3.23 2.629-5.86 5.86-5.86zm8.203 12.89h45.703c.646 0 1.172.525 1.172 1.172v42.188c0 .647-.526 1.172-1.172 1.172H8.547a5.866 5.866 0 01-5.86-5.86v-1.172c0-3.23 2.629-5.86 5.86-5.86 3.23 0 5.86 2.63 5.86 5.86v1.172a1.172 1.172 0 102.343 0V15.406zm41.016 3.516a1.172 1.172 0 100 2.344h2.343a1.172 1.172 0 100-2.344h-2.343zm8.203 1.172h1.172c.645 0 1.171.525 1.171 1.172v42.187c0 .647-.526 1.172-1.171 1.172H14.406a5.865 5.865 0 01-4.683-2.344h52.73a3.52 3.52 0 003.516-3.515V20.094zm-24.61 4.687a1.172 1.172 0 100 2.344h4.203L35.5 37.187l-3.859-3.86a1.17 1.17 0 00-1.657 0l-8.203 8.204a1.17 1.17 0 101.657 1.657l7.375-7.375 3.858 3.86a1.17 1.17 0 001.658 0l10.89-10.89v4.201a1.172 1.172 0 102.343 0v-7.03c0-.016-.009-.03-.009-.044a1.131 1.131 0 00-.082-.41c-.005-.01-.014-.017-.018-.027a1.159 1.159 0 00-.209-.312c-.028-.03-.058-.053-.089-.08a1.165 1.165 0 00-.242-.165c-.038-.018-.073-.037-.113-.052a1.177 1.177 0 00-.41-.083h-7.03zm16.407 0a1.172 1.172 0 100 2.344h2.343a1.172 1.172 0 100-2.344h-2.343zm0 5.86a1.172 1.172 0 100 2.343h2.343a1.172 1.172 0 100-2.343h-2.343zm0 5.859a1.172 1.172 0 100 2.344h2.343a1.172 1.172 0 100-2.344h-2.343zm0 5.86a1.172 1.172 0 100 2.343h2.343a1.172 1.172 0 100-2.344h-2.343zm-37.5 3.515a1.171 1.171 0 100 2.344h30.468a1.172 1.172 0 100-2.344H20.266zm37.5 2.344a1.172 1.172 0 100 2.343h2.343a1.172 1.172 0 100-2.343h-2.343zm0 5.86a1.172 1.172 0 100 2.343h2.343a1.172 1.172 0 100-2.344h-2.343z"/></svg><svg viewBox="0 0 64 64" id="documentation" xmlns="http://www.w3.org/2000/svg"><path d="M1 0a1 1 0 00-1 1v62a1 1 0 001 1h62a1 1 0 001-1V1a1 1 0 00-1-1H1zm1 2h60v60H2V2zm5.5 12a.5.5 0 00-.5.5v5a.5.5 0 00.5.5h49a.5.5 0 00.5-.5v-5a.5.5 0 00-.5-.5h-4a.5.5 0 000 1H56v4H8v-4h35.5a.5.5 0 000-1h-36zm38 0a.5.5 0 000 1h4a.5.5 0 000-1h-4zm-38 10a.5.5 0 00-.5.5v5a.5.5 0 00.5.5h44a.5.5 0 00.5-.5v-5a.5.5 0 00-.5-.5h-32a.5.5 0 000 1H51v4H8v-4h6.5a.5.5 0 000-1h-7zm0 10a.5.5 0 00-.5.5v5a.5.5 0 00.5.5h24a.5.5 0 000-1H8v-4h37v4h-5.5a.5.5 0 000 1h6a.5.5 0 00.5-.5v-5a.5.5 0 00-.5-.5h-38zm26 5a.5.5 0 000 1h3a.5.5 0 000-1h-3zm-26 5a.5.5 0 00-.5.5v5a.5.5 0 00.5.5h8a.5.5 0 000-1H8v-4h46v4H21.5a.5.5 0 000 1h33a.5.5 0 00.5-.5v-5a.5.5 0 00-.5-.5h-47z"/></svg><svg viewBox="0 0 16 16" id="file" xmlns="http://www.w3.org/2000/svg"><path d="M7.5 1.793L3.648 5.648l.704.704L7 3.707V11h1V3.707l2.645 2.645.71-.704L7.5 1.793zM3 13v1h9v-1H3z"/></svg><svg viewBox="0 0 61 61" id="harmonization" xmlns="http://www.w3.org/2000/svg"><path d="M2.375.031A2.346 2.346 0 00.031 2.375v56.25a2.346 2.346 0 002.344 2.344h56.25a2.346 2.346 0 002.344-2.344V2.375A2.346 2.346 0 0058.625.031H2.375zm0 2.344h56.25l.002 56.25H2.375V2.375zm7.031 7.031a2.346 2.346 0 00-2.344 2.344v9.375a2.346 2.346 0 002.344 2.344h9.375a2.346 2.346 0 002.344-2.344v-3.42a1.172 1.172 0 00-2.344 0v3.42H9.406V11.75h7.031a1.172 1.172 0 000-2.344h-7.03zm12.305.586c-.3 0-.6.114-.829.343l-6.788 6.79-1.515-1.516a1.17 1.17 0 10-1.658 1.657l2.344 2.344a1.169 1.169 0 001.657 0l7.617-7.617a1.17 1.17 0 00-.828-2zm5.273 1.758a1.172 1.172 0 000 2.344h25.782a1.172 1.172 0 000-2.344H26.984zm0 4.688a1.172 1.172 0 000 2.343h18.75a1.172 1.172 0 000-2.343h-18.75zM9.406 30.5a2.346 2.346 0 00-2.344 2.344v9.375a2.346 2.346 0 002.344 2.343h9.375a2.346 2.346 0 002.344-2.343v-3.42a1.172 1.172 0 00-2.344 0v3.42H9.406v-9.375h7.031a1.172 1.172 0 000-2.344h-7.03zm12.305.586c-.3 0-.6.114-.829.343l-6.788 6.789-1.515-1.515a1.17 1.17 0 10-1.658 1.657l2.344 2.344a1.169 1.169 0 001.657 0l7.617-7.618a1.17 1.17 0 00-.828-2zm5.273 1.758a1.172 1.172 0 000 2.343h11.72a1.172 1.172 0 000-2.343h-11.72zm16.407 0a1.172 1.172 0 000 2.343h9.375a1.172 1.172 0 000-2.343H43.39zM26.984 37.53a1.172 1.172 0 000 2.344h9.375a1.172 1.172 0 000-2.344h-9.375zM7.062 51.594c-.646 0-1.171.525-1.171 1.172v2.343a1.172 1.172 0 002.343 0v-2.343c0-.647-.525-1.172-1.171-1.172zm5.86 0c-.647 0-1.172.525-1.172 1.172v2.343a1.172 1.172 0 002.344 0v-2.343c0-.647-.525-1.172-1.172-1.172zm5.86 0c-.648 0-1.173.525-1.173 1.172v2.343a1.172 1.172 0 002.344 0v-2.343c0-.647-.525-1.172-1.172-1.172zm5.859 0c-.647 0-1.172.525-1.172 1.172v2.343a1.172 1.172 0 002.343 0v-2.343c0-.647-.524-1.172-1.171-1.172zm5.859 0c-.647 0-1.172.525-1.172 1.172v2.343a1.172 1.172 0 002.344 0v-2.343c0-.647-.525-1.172-1.172-1.172zm5.86 0c-.648 0-1.172.525-1.172 1.172v2.343a1.172 1.172 0 002.343 0v-2.343c0-.647-.525-1.172-1.172-1.172zm5.859 0c-.647 0-1.172.525-1.172 1.172v2.343a1.172 1.172 0 002.344 0v-2.343c0-.647-.525-1.172-1.172-1.172zm5.86 0c-.648 0-1.173.525-1.173 1.172v2.343a1.172 1.172 0 002.344 0v-2.343c0-.647-.525-1.172-1.172-1.172zm5.858 0c-.646 0-1.171.525-1.171 1.172v2.343a1.172 1.172 0 002.343 0v-2.343c0-.647-.525-1.172-1.172-1.172z"/></svg><svg viewBox="0 0 10 14" id="map" xmlns="http://www.w3.org/2000/svg"><path d="M5 0a5.01 5.01 0 00-5 5c0 .773.316 1.621.754 2.516.437.898 1.008 1.836 1.582 2.691a44.69 44.69 0 002.277 3.11l.387.476.387-.477s1.136-1.394 2.281-3.109c.57-.855 1.14-1.793 1.578-2.691C9.684 6.62 10 5.773 10 5c0-2.754-2.246-5-5-5zm0 1c2.215 0 4 1.785 4 4 0 .469-.246 1.246-.652 2.078-.407.836-.961 1.742-1.512 2.578-.918 1.375-1.543 2.133-1.836 2.5-.293-.367-.918-1.125-1.836-2.5-.55-.836-1.105-1.742-1.512-2.578C1.246 6.246 1 5.468 1 5c0-2.215 1.785-4 4-4zm0 3c-.55 0-1 .45-1 1s.45 1 1 1 1-.45 1-1-.45-1-1-1z"/></svg><svg viewBox="0 0 14 11" id="message" xmlns="http://www.w3.org/2000/svg"><path d="M1.5 0C.676 0 0 .676 0 1.5v8c0 .824.676 1.5 1.5 1.5h11c.824 0 1.5-.676 1.5-1.5v-8c0-.824-.676-1.5-1.5-1.5h-11zm0 1h11c.035 0 .063.012.094.02L7 4.89 1.406 1.02c.032-.008.059-.02.094-.02zm-.5.953L7 6.11l6-4.156V9.5c0 .281-.219.5-.5.5h-11a.494.494 0 01-.5-.5V1.953z"/></svg><svg viewBox="0 0 71 64" id="mounting" xmlns="http://www.w3.org/2000/svg"><path d="M3.86.688A3.522 3.522 0 00.343 4.203v9.375c0 .902.352 1.721.915 2.344a3.487 3.487 0 00-.915 2.344v11.718c0 .902.352 1.722.915 2.344a3.488 3.488 0 00-.915 2.344V46.39c0 .901.352 1.72.915 2.343a3.487 3.487 0 00-.915 2.344v9.375a3.522 3.522 0 003.515 3.516h16.407c.901 0 1.72-.353 2.343-.916a3.487 3.487 0 002.344.916h18.75a3.49 3.49 0 002.344-.916 3.487 3.487 0 002.344.916h18.75a3.522 3.522 0 003.515-3.516v-9.375c0-.902-.352-1.721-.915-2.344a3.487 3.487 0 00.915-2.343V34.67c0-.9-.352-1.72-.915-2.343a3.487 3.487 0 00.915-2.344V18.266c0-.902-.352-1.722-.915-2.344a3.487 3.487 0 00.915-2.344V4.203A3.522 3.522 0 0067.141.687h-5.86c-.901 0-1.72.353-2.343.916a3.488 3.488 0 00-2.344-.915h-18.75c-.902 0-1.721.352-2.344.915a3.488 3.488 0 00-2.344-.915h-18.75a3.49 3.49 0 00-2.344.915A3.488 3.488 0 009.72.688H3.86zm0 2.343h5.859c.645 0 1.172.527 1.172 1.172v9.375c0 .646-.527 1.172-1.172 1.172h-5.86a1.174 1.174 0 01-1.171-1.172V4.203c0-.645.526-1.172 1.171-1.172zm10.546 0h18.75c.646 0 1.172.527 1.172 1.172v9.375c0 .646-.526 1.172-1.172 1.172h-18.75a1.174 1.174 0 01-1.172-1.172V4.203c0-.645.527-1.172 1.172-1.172zm23.438 0h18.75c.645 0 1.172.527 1.172 1.172v9.375c0 .646-.527 1.172-1.172 1.172h-18.75a1.174 1.174 0 01-1.172-1.172V4.203c0-.645.526-1.172 1.172-1.172zm23.437 0h5.86c.645 0 1.171.527 1.171 1.172v9.375c0 .646-.526 1.172-1.171 1.172h-5.86a1.174 1.174 0 01-1.172-1.172V4.203c0-.645.527-1.172 1.172-1.172zM3.86 17.094h16.407c.645 0 1.172.526 1.172 1.172v11.718c0 .646-.527 1.172-1.172 1.172H3.859a1.174 1.174 0 01-1.171-1.172V18.266c0-.646.526-1.172 1.171-1.172zm21.094 0h18.75c.646 0 1.172.526 1.172 1.172v11.718c0 .646-.526 1.172-1.172 1.172h-18.75a1.174 1.174 0 01-1.172-1.172V18.266c0-.646.527-1.172 1.172-1.172zm23.438 0h18.75c.645 0 1.171.526 1.171 1.172v11.718c0 .646-.526 1.172-1.171 1.172H48.39a1.174 1.174 0 01-1.172-1.172V18.266c0-.646.526-1.172 1.172-1.172zM3.859 33.5h5.86c.645 0 1.172.526 1.172 1.172V46.39c0 .645-.527 1.172-1.172 1.172h-5.86a1.174 1.174 0 01-1.171-1.172V34.67c0-.645.526-1.171 1.171-1.171zm10.547 0h18.75c.646 0 1.172.526 1.172 1.172V46.39c0 .645-.526 1.172-1.172 1.172h-18.75a1.174 1.174 0 01-1.172-1.172V34.67c0-.645.527-1.171 1.172-1.171zm23.438 0h18.75c.645 0 1.172.526 1.172 1.172V46.39c0 .645-.527 1.172-1.172 1.172h-18.75a1.174 1.174 0 01-1.172-1.172V34.67c0-.645.526-1.171 1.172-1.171zm23.437 0h5.86c.645 0 1.171.526 1.171 1.172V46.39c0 .645-.526 1.172-1.171 1.172h-5.86a1.174 1.174 0 01-1.172-1.172V34.67c0-.645.527-1.171 1.172-1.171zM3.86 49.906h16.407c.645 0 1.172.527 1.172 1.172v9.375c0 .646-.527 1.172-1.172 1.172H3.859a1.174 1.174 0 01-1.171-1.172v-9.375c0-.645.526-1.172 1.171-1.172zm21.094 0h18.75c.646 0 1.172.527 1.172 1.172v9.375c0 .646-.526 1.172-1.172 1.172h-18.75a1.174 1.174 0 01-1.172-1.172v-9.375c0-.645.527-1.172 1.172-1.172zm23.438 0h18.75c.645 0 1.171.527 1.171 1.172v9.375c0 .646-.526 1.172-1.171 1.172H48.39a1.174 1.174 0 01-1.172-1.172v-9.375c0-.645.526-1.172 1.172-1.172zM6.203 54.594c-.65 0-1.172.522-1.172 1.172v2.343c0 .65.522 1.172 1.172 1.172.65 0 1.172-.522 1.172-1.172v-2.343c0-.65-.522-1.172-1.172-1.172zm5.86 0c-.65 0-1.172.522-1.172 1.172v2.343c0 .65.521 1.172 1.171 1.172s1.172-.522 1.172-1.172v-2.343c0-.65-.521-1.172-1.171-1.172zm5.859 0c-.65 0-1.172.522-1.172 1.172v2.343c0 .65.522 1.172 1.172 1.172.65 0 1.172-.522 1.172-1.172v-2.343c0-.65-.522-1.172-1.172-1.172zm10.547 0c-.65 0-1.172.522-1.172 1.172v2.343c0 .65.522 1.172 1.172 1.172.65 0 1.172-.522 1.172-1.172v-2.343c0-.65-.522-1.172-1.172-1.172zm5.86 0a1.17 1.17 0 00-1.173 1.172v2.343c0 .65.522 1.172 1.172 1.172.65 0 1.172-.522 1.172-1.172v-2.343c0-.65-.522-1.172-1.172-1.172zm5.858 0c-.65 0-1.171.522-1.171 1.172v2.343c0 .65.522 1.172 1.172 1.172.65 0 1.171-.522 1.171-1.172v-2.343c0-.65-.522-1.172-1.172-1.172zm11.72 0a1.17 1.17 0 00-1.173 1.172v2.343c0 .65.522 1.172 1.172 1.172.65 0 1.172-.522 1.172-1.172v-2.343c0-.65-.522-1.172-1.172-1.172zm5.859 0c-.65 0-1.172.522-1.172 1.172v2.343c0 .65.522 1.172 1.172 1.172.65 0 1.172-.522 1.172-1.172v-2.343c0-.65-.522-1.172-1.172-1.172zm5.859 0c-.65 0-1.172.522-1.172 1.172v2.343c0 .65.522 1.172 1.172 1.172.65 0 1.172-.522 1.172-1.172v-2.343c0-.65-.522-1.172-1.172-1.172z"/></svg><svg viewBox="0 0 52 61" id="network" xmlns="http://www.w3.org/2000/svg"><path d="M13.5.375l-.7.352-.14.77.536.573.304.055.7-.352.14-.77-.536-.573L13.5.375zm7 0l-.7.352-.14.77.536.573.304.055.7-.352.14-.77-.536-.573L20.5.375zm7 0l-.7.352-.14.77.536.573.304.055.7-.352.14-.77-.536-.573L27.5.375zm6.125 0l-.7.352-.14.77.536.573.304.055.7-.352.14-.77-.536-.573-.304-.055zM12.374 3.687l-.7.35-.14.773.536.572.304.055.7-.352.139-.772-.535-.573-.304-.053zm7 0l-.7.35-.14.773.536.572.304.055.7-.352.139-.772-.535-.573-.304-.053zm7 0l-.7.35-.14.773.536.572.304.055.7-.352.139-.772-.535-.573-.304-.053zm6.125 0l-.7.35-.14.773.536.572.304.055.7-.352.139-.772-.535-.573-.304-.053zM12.035 7.141l-.702.35-.137.773.535.572.304.055.701-.352.138-.77-.536-.573-.303-.055zm7 0l-.702.35-.137.773.535.572.304.055.701-.352.139-.77-.537-.573-.303-.055zm7 0l-.702.35-.137.773.535.572.304.055.701-.352.139-.77-.537-.573-.303-.055zm6.125 0l-.702.35-.137.773.535.572.304.055.701-.352.139-.77-.537-.573-.303-.055zM14.734 8.84l-.7.352-.14.77.536.573.304.055.7-.35.139-.773-.535-.573-.304-.054zm7 0l-.7.352-.14.77.536.573.304.055.7-.35.139-.773-.535-.573-.304-.054zm7 0l-.7.352-.14.77.536.573.304.055.7-.35.139-.773-.535-.573-.304-.054zm6.125 0l-.7.352-.14.77.536.573.304.055.7-.35.139-.773-.535-.573-.304-.054zm-18.982 3.014l-.702.352-.137.771.535.573.304.054.7-.35.14-.773-.537-.572-.303-.055zm7 0l-.702.352-.137.771.535.573.304.054.7-.35.14-.773-.537-.572-.303-.055zm7 0l-.702.352-.137.771.535.573.304.054.7-.35.14-.773-.537-.572-.303-.055zm6.125 0l-.702.352-.137.771.535.573.304.054.7-.35.14-.773-.537-.572-.303-.055zm-20.976 3.39l-.7.351-.139.771.537.573.302.054.703-.35.136-.773-.535-.572-.304-.055zm7 0l-.7.351-.139.771.537.573.302.054.703-.35.136-.773-.535-.572-.304-.055zm7 0l-.7.351-.139.771.537.573.302.054.703-.35.136-.773-.535-.572-.304-.055zm6.125 0l-.7.351-.139.771.537.573.302.054.702-.35.137-.773-.535-.572-.304-.055zM8.687 19.448l-.485.323s-1.032.686-2.075 1.642c-1.042.956-2.252 2.112-2.252 3.68V27.5H1.951c-.88 0-1.576.748-1.576 1.605v2.917c0 .857.697 1.603 1.576 1.603h1.924v12.25H1.951c-.88 0-1.576.748-1.576 1.605v2.917c0 .857.697 1.603 1.576 1.603h1.924v2.406c0 1.568 1.21 2.724 2.252 3.68a19.163 19.163 0 002.075 1.642l.486.323.485-.323s1.032-.686 2.075-1.642c.473-.434.964-.925 1.377-1.462.413.537.904 1.028 1.377 1.462a19.197 19.197 0 002.075 1.642l.485.323.486-.323s1.032-.686 2.075-1.642c.473-.434.964-.925 1.377-1.462.413.537.904 1.028 1.377 1.462a19.197 19.197 0 002.075 1.642l.485.323.486-.323s1.032-.686 2.075-1.642c.473-.434.964-.925 1.377-1.462.413.537.904 1.028 1.377 1.462a19.197 19.197 0 002.075 1.642l.485.323.486-.323s1.032-.686 2.075-1.642c.473-.434.964-.925 1.377-1.462.413.537.904 1.028 1.377 1.462a19.197 19.197 0 002.075 1.642l.486.323.485-.323s1.032-.686 2.075-1.642C43.79 57.13 45 55.974 45 54.406V52h1.75a.877.877 0 00.82-1.213.877.877 0 00-.82-.537H45v-2.625h1.75a.877.877 0 00.82-1.213.877.877 0 00-.82-.537H45v-12.25h1.75a.877.877 0 00.82-1.213.877.877 0 00-.82-.537H45V29.25h1.75a.877.877 0 00.82-1.213.877.877 0 00-.82-.537H45v-2.406c0-1.568-1.21-2.724-2.252-3.68-1.043-.956-2.075-1.642-2.075-1.642l-.486-.323-.485.323s-1.032.686-2.075 1.642c-.473.434-.964.925-1.377 1.461-.413-.536-.904-1.027-1.377-1.46-1.043-.957-2.075-1.643-2.075-1.643l-.486-.323-.485.323s-.96.638-1.96 1.538c-.513.461-1.061.973-1.502 1.557-.405-.537-.895-1.02-1.367-1.453-1.043-.956-2.075-1.642-2.075-1.642l-.485-.323-.486.323s-1.032.686-2.075 1.642c-.473.435-.977.913-1.39 1.45-.405-.536-.894-1.018-1.364-1.45-1.043-.956-2.075-1.642-2.075-1.642l-.485-.323-.486.323s-1.032.686-2.075 1.642c-.473.434-.964.925-1.377 1.461-.413-.536-.904-1.027-1.377-1.46-1.043-.957-2.075-1.643-2.075-1.643l-.486-.323zm23.624 2.162c.313.22.693.463 1.379 1.092.926.849 1.685 1.99 1.685 2.39h1.75c0-.4.76-1.541 1.685-2.39.685-.628 1.064-.87 1.377-1.09.314.22.693.462 1.378 1.09.926.849 1.685 1.99 1.685 2.39v29.313c0 .401-.76 1.542-1.685 2.391-.685.628-1.064.87-1.377 1.09-.314-.22-.693-.462-1.378-1.09-.926-.849-1.685-1.99-1.685-2.39h-1.75c0 .4-.76 1.541-1.685 2.39-.685.628-1.064.87-1.377 1.09-.314-.22-.693-.462-1.378-1.09-.926-.849-1.685-1.99-1.685-2.39H27.5c0 .4-.76 1.541-1.685 2.39-.685.628-1.064.87-1.378 1.09-.313-.22-.692-.462-1.377-1.09-.926-.849-1.685-1.99-1.685-2.39h-1.75c0 .4-.76 1.541-1.685 2.39-.685.628-1.064.87-1.378 1.09-.313-.22-.692-.462-1.377-1.09-.926-.849-1.685-1.99-1.685-2.39h-1.75c0 .4-.76 1.541-1.685 2.39-.685.628-1.064.87-1.377 1.09-.314-.22-.693-.462-1.378-1.09-.926-.849-1.685-1.99-1.685-2.39V25.093c0-.401.76-1.542 1.685-2.391.685-.628 1.064-.87 1.378-1.09.313.22.692.462 1.377 1.09.926.849 1.685 1.99 1.685 2.39h1.75c0-.4.76-1.541 1.685-2.39.685-.628 1.064-.87 1.377-1.09.314.22.693.462 1.378 1.09.926.849 1.685 1.99 1.685 2.39h1.75c0-.4.76-1.541 1.685-2.39.685-.628 1.064-.87 1.378-1.09.313.22.692.462 1.377 1.09.926.849 1.685 1.99 1.685 2.39h1.75c0-.028.002-.062.007-.095l-.043-.007v-.002l.043.006c.067-.485.887-1.581 1.78-2.384.647-.581.973-.788 1.274-1zm-19.686 5.014l-.7.352-.14.77.536.573.304.055.7-.352.14-.77-.536-.573-.304-.055zm7.875 0l-.7.352-.14.77.536.573.304.055.7-.352.14-.77-.536-.573-.304-.055zm7.875 0l-.7.352-.14.77.536.573.304.055.7-.352.14-.77-.536-.573-.304-.055zm7.875 0l-.7.352-.14.77.536.573.304.055.7-.352.14-.77-.536-.573-.304-.055zm14 .875a.875.875 0 100 1.75.875.875 0 000-1.75zM2.125 29.25h1.75v2.625h-1.75V29.25zm10.5.875l-.7.352-.14.77.536.573.304.055.7-.352.14-.77-.536-.573-.304-.055zm7.875 0l-.7.352-.14.77.536.573.304.055.7-.352.14-.77-.536-.573-.304-.055zm7.875 0l-.7.352-.14.77.536.573.304.055.7-.352.14-.77-.536-.573-.304-.055zm7.875 0l-.7.352-.14.77.536.573.304.055.7-.352.14-.77-.536-.573-.304-.055zm14 1.75a.875.875 0 100 1.75.875.875 0 000-1.75zm-37.625 1.75l-.7.352-.14.77.536.573.304.055.7-.352.14-.77-.536-.573-.304-.055zm7.875 0l-.7.352-.14.77.536.573.304.055.7-.352.14-.77-.536-.573-.304-.055zm7.875 0l-.7.352-.14.77.536.573.304.055.7-.352.14-.77-.536-.573-.304-.055zm7.875 0l-.7.352-.14.77.536.573.304.055.7-.352.14-.77-.536-.573-.304-.055zm-23.625 3.5l-.7.352-.14.77.536.573.304.055.7-.352.14-.77-.536-.573-.304-.055zm7.875 0l-.7.352-.14.77.536.573.304.055.7-.352.14-.77-.536-.573-.304-.055zm7.875 0l-.7.352-.14.77.536.573.304.055.7-.352.14-.77-.536-.573-.304-.055zm7.875 0l-.7.352-.14.77.536.573.304.055.7-.352.14-.77-.536-.573-.304-.055zm-23.625 3.5l-.7.352-.14.77.536.573.304.055.7-.352.14-.77-.536-.573-.304-.055zm7.875 0l-.7.352-.14.77.536.573.304.055.7-.352.14-.77-.536-.573-.304-.055zm7.875 0l-.7.352-.14.77.536.573.304.055.7-.352.14-.77-.536-.573-.304-.055zm7.875 0l-.7.352-.14.77.536.573.304.055.7-.352.14-.77-.536-.573-.304-.055zm-23.625 3.5l-.7.352-.14.77.536.573.304.055.7-.352.14-.77-.536-.573-.304-.055zm7.875 0l-.7.352-.14.77.536.573.304.055.7-.352.14-.77-.536-.573-.304-.055zm7.875 0l-.7.352-.14.77.536.573.304.055.7-.352.14-.77-.536-.573-.304-.055zm7.875 0l-.7.352-.14.77.536.573.304.055.7-.352.14-.77-.536-.573-.304-.055zm14 1.75a.875.875 0 100 1.75.875.875 0 000-1.75zm-48.125 1.75h1.75v2.625h-1.75v-2.625zm10.5 0l-.7.352-.14.77.536.573.304.055.7-.352.14-.77-.536-.573-.304-.055zm7.875 0l-.7.352-.14.77.536.573.304.055.7-.352.14-.77-.536-.573-.304-.055zm7.875 0l-.7.352-.14.77.536.573.304.055.7-.352.14-.77-.536-.573-.304-.055zm7.875 0l-.7.352-.14.77.536.573.304.055.7-.352.14-.77-.536-.573-.304-.055zm14 2.625a.875.875 0 100 1.75.875.875 0 000-1.75zm-37.625.875l-.7.352-.14.77.536.573.304.055.7-.352.14-.77-.536-.573-.304-.055zm7.875 0l-.7.352-.14.77.536.573.304.055.7-.352.14-.77-.536-.573-.304-.055zm7.875 0l-.7.352-.14.77.536.573.304.055.7-.352.14-.77-.536-.573-.304-.055zm7.875 0l-.7.352-.14.77.536.573.304.055.7-.352.14-.77-.536-.573-.304-.055z"/></svg><svg viewBox="0 0 61 71" id="service" xmlns="http://www.w3.org/2000/svg"><path d="M30.358.344c-.774 0-1.547.256-2.197.773l-1.639 1.314a33.812 33.812 0 01-18.965 7.37l-4.244.284A3.516 3.516 0 00.04 13.807l.806 13.545c.92 12.758 6.743 24.403 16.397 32.794l10.808 9.407a3.53 3.53 0 002.307.852c.829 0 1.653-.284 2.307-.852l10.817-9.407c9.65-8.39 15.473-20.04 16.393-32.813l.805-13.522a3.524 3.524 0 00-3.277-3.726l-4.24-.284a33.813 33.813 0 01-18.969-7.37l-1.639-1.314a3.508 3.508 0 00-2.197-.773zm0 2.344c.261 0 .517.086.733.26l1.638 1.314a36.16 36.16 0 0020.28 7.878l4.243.284c.64.041 1.13.6 1.09 1.245l-.806 13.509c-.834 11.545-5.892 22.128-14.287 30.006v-.078a1.171 1.171 0 10-2.344 0v2.175l-9.778 8.5a1.18 1.18 0 01-1.538 0l-9.778-8.5v-2.175a1.171 1.171 0 10-2.343 0v.078C9.077 49.306 4.014 38.727 3.18 27.192l-.806-13.527a1.176 1.176 0 011.094-1.24l4.239-.285A36.161 36.161 0 0027.99 4.262l1.635-1.314c.22-.174.476-.26.732-.26zm0 3.36c-.467 0-.943.137-1.341.42l-3.012 2.106a34.045 34.045 0 01-17.226 6.07l-.764.05c-.646.042-1.136.6-1.094 1.246a1.175 1.175 0 001.172 1.094c.027 0 .05 0 .077-.005l.76-.046a36.384 36.384 0 0018.42-6.49l3.008-2.106 3.012 2.105a36.125 36.125 0 0010.639 5.109 1.166 1.166 0 001.45-.792 1.173 1.173 0 00-.791-1.456 33.998 33.998 0 01-9.956-4.779L31.704 6.47a2.33 2.33 0 00-1.346-.422zm18.91 8.308a1.174 1.174 0 00-.343 2.32c.943.138 1.904.243 2.861.307l.691.046h.083c.608 0 1.126-.471 1.162-1.09a1.174 1.174 0 00-1.084-1.254l-.696-.04a34.601 34.601 0 01-2.674-.29zm-3.675 9.938c-.303 0-.6.114-.829.348l-16.75 16.745-8.541-8.547a1.177 1.177 0 00-1.662 0 1.172 1.172 0 000 1.657l9.375 9.376a1.175 1.175 0 001.662 0l17.578-17.579a1.172 1.172 0 00-.834-2zm-21.094 31.64c-.646 0-1.172.527-1.172 1.172v2.344a1.171 1.171 0 102.344 0v-2.344a1.17 1.17 0 00-1.172-1.171zm5.86 0c-.646 0-1.173.527-1.173 1.172v2.344a1.171 1.171 0 102.344 0v-2.344a1.17 1.17 0 00-1.172-1.171zm5.858 0c-.645 0-1.171.527-1.171 1.172v2.344a1.171 1.171 0 102.343 0v-2.344a1.17 1.17 0 00-1.172-1.171z"/></svg><svg viewBox="0 0 54 59" id="sewerage" xmlns="http://www.w3.org/2000/svg"><path d="M1.625 0A.877.877 0 00.75.875c0 .482.393.875.875.875A.877.877 0 002.5.875.877.877 0 001.625 0zm15.75 0a.877.877 0 00-.875.875c0 .482.393.875.875.875a.877.877 0 00.875-.875.877.877 0 00-.875-.875zM1.625 3.5a.877.877 0 00-.875.875c0 .482.393.875.875.875a.877.877 0 00.875-.875.877.877 0 00-.875-.875zm15.75 0a.877.877 0 00-.875.875c0 .482.393.875.875.875a.877.877 0 00.875-.875.877.877 0 00-.875-.875zM1.611 6.986a.879.879 0 00-.86.889V14c0 12.072 9.802 21.875 21.874 21.875h.366c.386.967 1.159 1.75 2.26 1.75 1.1 0 1.872-.783 2.258-1.75h5.616A2.613 2.613 0 0135.75 38.5v11.375h17.5V40.25c0-12.072-9.803-21.875-21.875-21.875H27.51c-.386-.967-1.158-1.75-2.259-1.75-1.1 0-1.873.783-2.26 1.75h-2.115a2.613 2.613 0 01-2.625-2.625V7.875a.88.88 0 00-.434-.769.883.883 0 00-.882 0 .88.88 0 00-.434.769v7.875a4.388 4.388 0 004.375 4.375h1.75c0 .482.393.875.875.875a.877.877 0 00.875-.875v-.875a.86.86 0 01.875-.875.86.86 0 01.875.875v.875c0 .482.393.875.875.875a.877.877 0 00.875-.875h3.5c11.126 0 20.125 9 20.125 20.125v7.875h-14V38.5a4.388 4.388 0 00-4.375-4.375h-5.25A.877.877 0 0027 33.25a.877.877 0 00-.875.875V35a.86.86 0 01-.875.875.86.86 0 01-.875-.875v-.875a.877.877 0 00-.875-.875.877.877 0 00-.875.875C11.5 34.125 2.5 25.125 2.5 14V7.875a.878.878 0 00-.889-.889zm21.89 15.764a.877.877 0 00-.876.875c0 .482.393.875.875.875a.877.877 0 00.875-.875.877.877 0 00-.875-.875zm3.5 0a.877.877 0 00-.876.875c0 .482.393.875.875.875a.877.877 0 00.875-.875.877.877 0 00-.875-.875zm-3.5 3.5a.877.877 0 00-.876.875c0 .482.393.875.875.875a.877.877 0 00.875-.875.877.877 0 00-.875-.875zm3.5 0a.877.877 0 00-.876.875c0 .482.393.875.875.875a.877.877 0 00.875-.875.877.877 0 00-.875-.875zm-3.5 3.5a.877.877 0 00-.876.875c0 .482.393.875.875.875a.877.877 0 00.875-.875.877.877 0 00-.875-.875zm3.5 0a.877.877 0 00-.876.875c0 .482.393.875.875.875a.877.877 0 00.875-.875.877.877 0 00-.875-.875zM44.5 52.5s-1.75 3.408-1.75 4.375a1.749 1.749 0 103.5 0c0-.967-1.75-4.375-1.75-4.375z"/></svg><svg viewBox="0 0 70 70" id="ssc" xmlns="http://www.w3.org/2000/svg"><path d="M48.578 20a.875.875 0 00-.272 1.699c2.468.927 4.457 2.088 5.787 3.343s1.986 2.555 1.986 3.88c0 1.18-.517 2.332-1.57 3.463-1.051 1.131-2.637 2.205-4.636 3.114-3.997 1.817-9.63 2.975-15.856 2.975-6.226 0-11.858-1.158-15.856-2.975-1.998-.909-3.584-1.983-4.636-3.114-1.052-1.13-1.569-2.283-1.569-3.462 0-1.181.519-2.334 1.574-3.466 1.056-1.132 2.646-2.208 4.65-3.117a.874.874 0 10-.723-1.593c-2.157.978-3.934 2.15-5.207 3.515-1.272 1.365-2.044 2.959-2.044 4.66 0 1.7.768 3.292 2.037 4.656 1.27 1.364 3.042 2.536 5.194 3.514 4.303 1.956 10.14 3.132 16.58 3.132 6.442 0 12.278-1.176 16.581-3.132 2.151-.978 3.925-2.15 5.194-3.514 1.268-1.364 2.037-2.956 2.037-4.655 0-1.911-.968-3.675-2.535-5.154-1.567-1.48-3.747-2.721-6.372-3.707a.876.876 0 00-.344-.062zM5.971 30.816a.875.875 0 00-.861.887c0 2.02.91 3.915 2.437 5.556 1.527 1.641 3.675 3.065 6.287 4.252 5.226 2.375 12.336 3.81 20.183 3.81 7.848 0 14.956-1.435 20.182-3.81 2.613-1.187 4.76-2.61 6.287-4.252 1.527-1.64 2.437-3.536 2.437-5.556a.877.877 0 00-1.498-.626.875.875 0 00-.252.626c0 1.5-.658 2.957-1.969 4.365-1.31 1.408-3.268 2.73-5.728 3.849-4.92 2.236-11.826 3.654-19.459 3.654-7.632 0-14.54-1.418-19.46-3.654-2.46-1.118-4.418-2.44-5.728-3.849-1.31-1.408-1.97-2.865-1.97-4.365a.875.875 0 00-.888-.887zM6 30v30m56-30v30M6 59h55"/></svg><svg aria-hidden="true" data-prefix="fas" data-icon="phone-alt" class="psvg-inline--fa pfa-phone-alt pfa-w-16" viewBox="0 0 512 512" id="tel" xmlns="http://www.w3.org/2000/svg"><path d="M497.39 361.8l-112-48a24 24 0 00-28 6.9l-49.6 60.6A370.66 370.66 0 01130.6 204.11l60.6-49.6a23.94 23.94 0 006.9-28l-48-112A24.16 24.16 0 00122.6.61l-104 24A24 24 0 000 48c0 256.5 207.9 464 464 464a24 24 0 0023.4-18.6l24-104a24.29 24.29 0 00-14.01-27.6z"/></svg><svg viewBox="0 0 13 13" id="tel-gold" xmlns="http://www.w3.org/2000/svg"><path d="M2.371.043L.797 1.617A2.697 2.697 0 00.364 4.88c.687 1.18 1.25 2.05 3.605 4.402 2.352 2.356 2.992 2.676 4.152 3.356a2.69 2.69 0 003.258-.434l1.578-1.574-3.046-3.043-1.239 1.238a5.178 5.178 0 01-.629-.347c-.53-.34-1.21-.86-1.808-1.461A13.74 13.74 0 014.64 5.07c-.2-.297-.36-.566-.445-.742l-.008-.016 1.226-1.226L2.371.043zm0 1.414l1.63 1.629-.715.719a.53.53 0 00-.16.406c0 .09.015.152.03.21.036.122.083.227.141.352.121.243.297.532.516.86a15.05 15.05 0 001.71 2.094c.661.656 1.388 1.21 1.985 1.59.297.19.559.335.781.433.114.05.215.09.336.113.059.012.125.02.215.012a.534.534 0 00.356-.16L9.91 9l1.632 1.629-.87.871a1.692 1.692 0 01-2.048.273c-1.18-.691-1.629-.875-3.953-3.195-2.32-2.324-2.765-3.039-3.445-4.203A1.692 1.692 0 011.5 2.328l.871-.871z"/></svg><svg viewBox="0 0 56 57" id="territory" xmlns="http://www.w3.org/2000/svg"><path d="M26.036.737c-2.03 0-3.768 1.02-4.976 2.481-.458-.123-.912-.261-1.43-.261-2.936 0-5.275 2.195-5.763 5.007-.789-.398-1.64-.687-2.586-.687-3.285 0-5.963 2.699-5.963 5.997 0 .262.07.48.105.721-2.507.707-4.39 2.923-4.39 5.66 0 3.096 2.385 5.579 5.391 5.883-.584.93-.97 1.964-1.056 3.125C2.842 29.36.943 31.6.943 34.353c0 3.298 2.678 5.998 5.965 5.998.27 0 .495-.075.745-.113.718 2.49 2.906 4.365 5.614 4.365 1.893 0 3.485-.99 4.573-2.376.543.13 1.09.267 1.7.267 1.454 0 2.798-.434 3.974-1.114.297.105.6.201.91.278-.007 2.737-.332 4.65-.806 5.9-.516 1.362-1.152 1.984-1.76 2.34-.761.444-1.849.518-3.847 1.606a16.537 16.537 0 00-4.26 3.346.874.874 0 101.288 1.184 14.807 14.807 0 013.81-2.994c1.777-.968 2.695-.932 3.89-1.63.956-.558 1.885-1.571 2.515-3.232.57-1.507.904-3.59.917-6.42.985-.12 1.881-.494 2.677-1.009.56.524 1.216.95 1.956 1.185-.301 2.487-.24 4.354.098 5.745.374 1.546 1.098 2.554 1.887 3.152 1.39 1.054 2.647.953 4.43 2.356a10.33 10.33 0 012.312 2.58.875.875 0 101.478-.94 12.038 12.038 0 00-2.707-3.015c-2.103-1.656-3.628-1.749-4.456-2.376-.469-.355-.945-.936-1.244-2.169-.27-1.116-.346-2.801-.056-5.17 1.352-.162 2.467-.96 3.249-2.013.71.226 1.431.44 2.216.44 1.384 0 2.655-.423 3.765-1.077.033.005.08.007.121.012 1.029 1.796 2.91 3.044 5.116 3.044 3.284 0 5.962-2.7 5.962-5.999 0-1.85-.92-3.429-2.237-4.53a8.53 8.53 0 00.02-.214c2.463-.74 4.297-2.954 4.297-5.66 0-2.845-2.025-5.147-4.681-5.75a5.865 5.865 0 00-4.474-4.402c.409-.803.707-1.67.707-2.638 0-3.299-2.677-5.999-5.962-5.999-1.188 0-2.232.441-3.158 1.044-.986-1.933-2.914-3.303-5.221-3.303-.067 0-.1.012-.161.015-.937-2.5-3.257-4.33-6.069-4.33zm0 1.75c2.276 0 4.16 1.585 4.678 3.717a.875.875 0 00.965.661c.255-.034.446-.063.587-.063 1.918 0 3.507 1.293 4.023 3.064a.875.875 0 001.447.385 4.154 4.154 0 012.909-1.19c2.332 0 4.212 1.89 4.212 4.249a4.2 4.2 0 01-1.02 2.734.874.874 0 00.708 1.44c.183-.01.225-.018.126-.018 2.14 0 3.874 1.602 4.151 3.686a.875.875 0 00.764.754 4.208 4.208 0 013.719 4.194 4.227 4.227 0 01-3.509 4.177.875.875 0 00-.692.623l-.471-.502-.303-.055-.7.352-.139.773.535.572.304.053.675-.338c-.012.104-.013.228-.03.323a.875.875 0 00.37.89 4.246 4.246 0 011.88 3.536c0 2.358-1.882 4.249-4.212 4.249-1.714 0-3.175-1.034-3.835-2.514a.875.875 0 00-.812-.52c-.222.003-.272.019-.166.019-.064 0-.219-.033-.496-.055a.875.875 0 00-.548.14 5.689 5.689 0 01-5.313.522.876.876 0 00-1.105.395c-.526.98-1.522 1.642-2.696 1.642-.022 0-.043-.003-.065-.004a.875.875 0 00-.304-.02 3.058 3.058 0 01-2.053-1.188.873.873 0 00-1.246-.142c-.786.644-1.753 1.034-2.825 1.034-.019 0-.037-.003-.056-.003a.875.875 0 00-.285-.015 4.46 4.46 0 01-1.458-.366.875.875 0 00-.827.066c-.98.632-2.135 1-3.382 1-.577 0-1.146-.108-1.725-.277a.875.875 0 00-.988.378c-.748 1.206-2.052 2.008-3.561 2.008-2.092 0-3.788-1.535-4.12-3.551l.304-.154.138-.77-.535-.573-.304-.055-.7.352-.06.332a4.039 4.039 0 01-1.082.167c-2.335 0-4.215-1.89-4.215-4.248a4.215 4.215 0 013.59-4.182.875.875 0 00.743-.908c-.008-.16-.014-.197-.014-.116a5.18 5.18 0 011.54-3.683l.198.036.7-.352.14-.77-.536-.573-.304-.055-.209.104a.876.876 0 00-.598-.072 4.115 4.115 0 01-.95.122c-2.332 0-4.21-1.89-4.21-4.249a4.208 4.208 0 013.71-4.192.875.875 0 00.74-1.092 4.3 4.3 0 01-.165-1.097c0-2.358 1.882-4.247 4.213-4.247 1.048 0 1.985.394 2.733 1.044a.875.875 0 001.444-.745c-.021-.214-.041-.33-.041-.37 0-2.359 1.881-4.25 4.212-4.25.471 0 .928.098 1.388.26a.875.875 0 001.017-.336 4.808 4.808 0 014.002-2.143zm-3.4 5.797l-.701.352-.139.77.537.573.303.055.7-.35.139-.773-.535-.573-.305-.054zm3.399.085l-.701.35-.138.773.536.572.303.055.7-.352.139-.77-.535-.573-.304-.055zm-5.91 2.256l-.7.352-.14.77.536.573.304.055.7-.352.14-.77-.536-.573-.304-.055zm8.403.113l-.7.35-.139.773.535.572.304.055.7-.352.14-.771-.537-.574-.303-.053zm12.397 5.038l-.7.35-.14.773.536.572.304.055.7-.352.14-.77-.536-.575-.304-.053zm-3.281 1.136l-.7.35-.14.773.537.573.303.054.702-.352.137-.77-.535-.575-.304-.053zm-9.835 1.826l-.701.35-.139.772.535.573.305.055.7-.352.139-.771-.535-.574-.304-.053zm3.358.35l-.7.352-.14.772.535.573.305.053.7-.35.139-.773-.535-.572-.304-.055zm3.857.114l-.703.352-.136.771.535.573.304.054.7-.35.139-.772-.537-.573-.302-.055zm-9.649 1.923l-.7.352-.14.77.536.573.304.055.7-.352.14-.77-.536-.573-.304-.055zm7.82.706l-.7.35-.139.773.537.572.302.055.701-.352.138-.773-.535-.572-.304-.053zm-21.1 1.003l-.701.352-.139.773.535.572.305.053.7-.35.139-.773-.537-.572-.303-.055zm3.375.769l-.703.352-.136.773.534.572.305.053.7-.35.139-.773-.537-.572-.302-.055zm29.625 5.479l-.7.352-.14.77.536.573.304.055.7-.35.14-.773-.536-.572-.304-.055zm-3.468.152l-.7.352-.139.773.537.572.302.053.703-.35.137-.773-.535-.572-.305-.055zM38.5 30.75l-.7.352-.14.77.536.573.304.055.7-.352.14-.77-.536-.573-.304-.055zm-24.614 2.72l-.703.351-.137.773.535.572.305.055.7-.352.139-.771-.537-.573-.303-.054zm-3.142 1.45l-.702.352-.137.77.535.573.304.055.701-.35.139-.773-.537-.572-.303-.055z"/></svg><svg viewBox="0 0 64 55" id="water" xmlns="http://www.w3.org/2000/svg"><path d="M10.937.03c-.202-.007-.4.017-.595.058C9.183.34 8.25 1.376 8.25 2.655v6.47a2.639 2.639 0 002.625 2.625h9.116c.386.967 1.158 1.75 2.259 1.75H24v2.625h-5.25c-1.1 0-1.873.783-2.26 1.75H8.25a.88.88 0 00-.769.434.883.883 0 000 .882.88.88 0 00.769.434h7.875c0 .482.393.875.875.875a.877.877 0 00.875-.875v-.875a.86.86 0 01.875-.875h5.978a.79.79 0 00.284 0h4.966a.79.79 0 00.284 0h5.988a.86.86 0 01.875.875v.875c0 .482.393.875.875.875a.877.877 0 00.875-.875h4.375c9.19 0 16.625 7.434 16.625 16.625v6.125h.875a.86.86 0 01.875.875.86.86 0 01-.875.875h-14a.86.86 0 01-.875-.875.86.86 0 01.875-.875h.875V38a4.388 4.388 0 00-4.375-4.375h-4.375A.877.877 0 0038 32.75a.877.877 0 00-.875.875v.875a.86.86 0 01-.875.875h-17.5a.86.86 0 01-.875-.875v-.875A.877.877 0 0017 32.75a.877.877 0 00-.875.875H8.25a.88.88 0 00-.769.434.883.883 0 000 .882.88.88 0 00.769.434h8.24c.387.967 1.16 1.75 2.26 1.75h17.5c1.1 0 1.873-.783 2.26-1.75h4.74A2.613 2.613 0 0145.875 38v2.99c-.967.387-1.75 1.16-1.75 2.26a2.639 2.639 0 002.625 2.625h14a2.639 2.639 0 002.625-2.625c0-1.1-.783-1.873-1.75-2.26v-4.74c0-10.138-8.237-18.375-18.375-18.375h-4.74c-.387-.967-1.16-1.75-2.26-1.75H31V13.5h1.75c1.1 0 1.873-.783 2.26-1.75h9.115a2.639 2.639 0 002.625-2.625v-6.47c0-1.706-1.658-2.977-3.302-2.54l-9.826 2.622c-.93-.868-2.116-1.487-3.497-1.487h-5.25c-1.38 0-2.567.619-3.497 1.487L11.552.115h-.004a2.537 2.537 0 00-.611-.085zm-.048 1.743c.068.003.14.014.212.034l10.756 2.871.362-.424A3.44 3.44 0 0124.875 3h5.25c1.073 0 2.01.489 2.656 1.254l.362.424L43.9 1.808a.857.857 0 011.1.846v6.47a.86.86 0 01-.875.875h-8.75a.877.877 0 00-.875-.875.877.877 0 00-.875.875v.875a.86.86 0 01-.875.875h-2.488c-.052-.007-.1-.014-.15-.014-.042.004-.086.007-.127.014h-4.973c-.052-.007-.1-.014-.15-.014-.042.004-.086.007-.127.014H22.25a.86.86 0 01-.875-.875V10a.877.877 0 00-.875-.875.877.877 0 00-.875.875h-8.75A.86.86 0 0110 9.125v-6.47c0-.523.403-.9.889-.882zM20.5 5.625a.877.877 0 00-.875.875c0 .482.393.875.875.875a.877.877 0 00.875-.875.877.877 0 00-.875-.875zm14 0a.877.877 0 00-.875.875c0 .482.393.875.875.875a.877.877 0 00.875-.875.877.877 0 00-.875-.875zM25.75 13.5h3.5v2.625h-3.5V13.5zm-24.5 4.375a.877.877 0 00-.875.875c0 .482.393.875.875.875a.877.877 0 00.875-.875.877.877 0 00-.875-.875zm3.5 0a.877.877 0 00-.875.875c0 .482.393.875.875.875a.877.877 0 00.875-.875.877.877 0 00-.875-.875zM17 22.25a.877.877 0 00-.875.875c0 .482.393.875.875.875a.877.877 0 00.875-.875.877.877 0 00-.875-.875zm21 0a.877.877 0 00-.875.875c0 .482.393.875.875.875a.877.877 0 00.875-.875.877.877 0 00-.875-.875zm-21 3.5a.877.877 0 00-.875.875c0 .482.393.875.875.875a.877.877 0 00.875-.875.877.877 0 00-.875-.875zm21 0a.877.877 0 00-.875.875c0 .482.393.875.875.875a.877.877 0 00.875-.875.877.877 0 00-.875-.875zm-21 3.5a.877.877 0 00-.875.875c0 .482.393.875.875.875a.877.877 0 00.875-.875.877.877 0 00-.875-.875zm21 0a.877.877 0 00-.875.875c0 .482.393.875.875.875a.877.877 0 00.875-.875.877.877 0 00-.875-.875zM1.25 33.625a.877.877 0 00-.875.875c0 .482.393.875.875.875a.877.877 0 00.875-.875.877.877 0 00-.875-.875zm3.5 0a.877.877 0 00-.875.875c0 .482.393.875.875.875a.877.877 0 00.875-.875.877.877 0 00-.875-.875zm45.5 7a.877.877 0 00-.875.875c0 .482.393.875.875.875a.877.877 0 00.875-.875.877.877 0 00-.875-.875zm3.5 0a.877.877 0 00-.875.875c0 .482.393.875.875.875a.877.877 0 00.875-.875.877.877 0 00-.875-.875zm3.5 0a.877.877 0 00-.875.875c0 .482.393.875.875.875a.877.877 0 00.875-.875.877.877 0 00-.875-.875zM54.625 48.5s-1.75 3.408-1.75 4.375a1.749 1.749 0 103.5 0c0-.967-1.75-4.375-1.75-4.375z"/></svg><svg viewBox="0 0 75 67" id="works" xmlns="http://www.w3.org/2000/svg"><path d="M59.931.806C54.635.73 48.707 3.558 45.228 7.037c-1.323 1.324-2.147 2.6-2.619 3.869-1.67-1.245-3.534-2.239-5.873-2.495l-7.951-.884-3.447-.49a5.89 5.89 0 00-4.971 1.653L1.923 27.128C.225 28.83-.265 31.454.715 33.65l4.074 9.169a15.141 15.141 0 003.854 5.25l3.836 3.315-.412.407a8.147 8.147 0 00-2.398 5.8 8.19 8.19 0 008.203 8.203 8.187 8.187 0 005.8-2.398l1.258-1.264 3.273 2.83a5.407 5.407 0 003.567 1.331 5.412 5.412 0 003.84-1.58 5.381 5.381 0 001.543-4.43 5.555 5.555 0 005.822-1.277 5.507 5.507 0 001.612-4.097 5.537 5.537 0 006.674-.88 5.52 5.52 0 001.479-5.15 5.554 5.554 0 005.154-1.478l.28-.279c2-2.005 2.114-5.246.26-7.384l-5.154-5.95 1.78-1.786c4.953 1.556 8.904 2.7 13.367-1.767 4.266-4.266 7.567-12.24 5.695-18.191a1.16 1.16 0 00-.838-.783c-.398-.1-.82.018-1.108.306l-7.315 7.316a1.177 1.177 0 01-1.126.302l-1.282-.344a8.22 8.22 0 01-5.8-5.8l-.347-1.281a1.171 1.171 0 01.306-1.13l7.325-7.33a1.173 1.173 0 00-.472-1.945c-1.117-.357-2.307-.531-3.534-.55zm-.105 2.358c.302 0 .6.014.892.037l-5.767 5.767a3.528 3.528 0 00-.911 3.397l.343 1.282a10.577 10.577 0 007.457 7.457l1.282.348a3.528 3.528 0 003.4-.916l5.746-5.745c.361 4.688-2.28 10.57-5.498 13.788-3.543 3.538-6.285 2.678-11.27 1.108l-.417-.133a1.183 1.183 0 00-1.18.288l-2.166 2.17-7.695-8.88 1.575-1.575c.311-.307.421-.764.288-1.181l-.128-.417c-1.575-4.985-2.44-7.727 1.103-11.27 3.03-3.026 8.414-5.534 12.946-5.525zm-35.637 6.17c.265-.027.54-.018.815.019l3.483.499c.005 0 .01-.005.014-.005.01.005.014.01.023.01l7.951.878c2.216.248 3.914 1.333 5.608 2.747-.092 2.179.586 4.422 1.373 6.921l-.957.953-3.02-3.489a1.168 1.168 0 00-1.653-.114 1.168 1.168 0 00-.12 1.648l18.957 21.872a3.08 3.08 0 01-.151 4.188l-.28.284a3.188 3.188 0 01-4.211.261l-4.418-3.438a1.168 1.168 0 00-1.597.151 1.17 1.17 0 00.046 1.602l3.552 3.553a3.191 3.191 0 010 4.504 3.192 3.192 0 01-4.212.257l-4.417-3.438a1.174 1.174 0 00-1.552 1.753l1.89 1.89a3.183 3.183 0 010 4.505 3.192 3.192 0 01-4.206.265l-4.422-3.437a1.164 1.164 0 00-1.598.146 1.176 1.176 0 00.05 1.607l2.811 2.806a3.04 3.04 0 01.898 2.16c0 .82-.32 1.589-.898 2.166a3.089 3.089 0 01-4.206.137l-19.56-16.891a12.801 12.801 0 01-3.25-4.431l-4.075-9.174a3.539 3.539 0 01.723-3.91l18.444-18.438a3.527 3.527 0 012.165-1.016zm25.177 7.302a1.16 1.16 0 00-.824.343 1.163 1.163 0 000 1.657l8.28 8.286a1.174 1.174 0 001.662-1.657l-8.29-8.286a1.164 1.164 0 00-.828-.343zm-7.457 17.4a1.171 1.171 0 00-.829 2l1.657 1.657a1.175 1.175 0 001.662 0 1.17 1.17 0 000-1.657l-1.662-1.657a1.164 1.164 0 00-.828-.343zm-4.143 4.147c-.302 0-.6.11-.828.339a1.177 1.177 0 000 1.661l1.661 1.653c.225.229.527.343.824.343.302 0 .605-.114.829-.343.462-.458.462-1.2 0-1.653l-1.657-1.661a1.16 1.16 0 00-.829-.34zm-4.143 4.143c-.297 0-.6.11-.828.343a1.166 1.166 0 000 1.653l1.657 1.661a1.179 1.179 0 001.657 0c.458-.458.458-1.2 0-1.661l-1.657-1.653a1.153 1.153 0 00-.829-.343zm-4.142 4.138c-.298 0-.6.114-.829.348a1.166 1.166 0 000 1.652l1.657 1.662c.23.224.527.343.829.343.302 0 .6-.119.828-.343.458-.462.458-1.2 0-1.662l-1.657-1.652a1.158 1.158 0 00-.828-.348zm-4.143 4.143c-.302 0-.6.114-.833.343a1.177 1.177 0 000 1.662l1.661 1.652a1.159 1.159 0 001.653 0 1.158 1.158 0 000-1.652l-1.653-1.662a1.18 1.18 0 00-.828-.343zm-11.083 2.307L23.15 60.6l-1.14 1.135a5.865 5.865 0 01-8.286 0 5.809 5.809 0 01-1.716-4.143 5.82 5.82 0 011.716-4.143l.531-.535z"/></svg></svg>