<svg width="80" height="80" viewBox="0 0 80 80" fill="none" xmlns="http://www.w3.org/2000/svg">
<path d="M13.2812 0.625C10.9576 0.625 9.0625 2.52014 9.0625 4.84375V68.125H3.4375C1.88843 68.125 0.625 69.3884 0.625 70.9375V73.75C0.625 76.8536 3.14636 79.375 6.25 79.375H73.75C76.8536 79.375 79.375 76.8536 79.375 73.75V4.84375C79.375 2.52014 77.4799 0.625 75.1562 0.625H13.2812ZM13.2812 3.4375H75.1562C75.9308 3.4375 76.5625 4.06921 76.5625 4.84375V73.75C76.5625 75.2991 75.2991 76.5625 73.75 76.5625C72.2009 76.5625 70.9375 75.2991 70.9375 73.75V70.9375C70.9375 69.3884 69.6741 68.125 68.125 68.125H11.875V4.84375C11.875 4.06921 12.5067 3.4375 13.2812 3.4375ZM23.125 16.0938C21.5704 16.0938 20.3125 17.3517 20.3125 18.9062C20.3125 20.4608 21.5704 21.7188 23.125 21.7188C24.6796 21.7188 25.9375 20.4608 25.9375 18.9062C25.9375 17.3517 24.6796 16.0938 23.125 16.0938ZM31.5625 17.5C30.788 17.5 30.1562 18.1317 30.1562 18.9062C30.1562 19.6808 30.788 20.3125 31.5625 20.3125H48.4375C49.212 20.3125 49.8438 19.6808 49.8438 18.9062C49.8438 18.1317 49.212 17.5 48.4375 17.5H31.5625ZM54.0625 17.5C53.288 17.5 52.6562 18.1317 52.6562 18.9062C52.6562 19.6808 53.288 20.3125 54.0625 20.3125H59.6875C60.462 20.3125 61.0938 19.6808 61.0938 18.9062C61.0938 18.1317 60.462 17.5 59.6875 17.5H54.0625ZM31.5625 23.125C30.788 23.125 30.1562 23.7567 30.1562 24.5312C30.1562 25.3058 30.788 25.9375 31.5625 25.9375H55.4688C56.2433 25.9375 56.875 25.3058 56.875 24.5312C56.875 23.7567 56.2433 23.125 55.4688 23.125H31.5625ZM23.125 30.1562C21.5704 30.1562 20.3125 31.4142 20.3125 32.9688C20.3125 34.5233 21.5704 35.7812 23.125 35.7812C24.6796 35.7812 25.9375 34.5233 25.9375 32.9688C25.9375 31.4142 24.6796 30.1562 23.125 30.1562ZM31.5625 31.5625C30.788 31.5625 30.1562 32.1942 30.1562 32.9688C30.1562 33.7433 30.788 34.375 31.5625 34.375H65.3125C66.087 34.375 66.7188 33.7433 66.7188 32.9688C66.7188 32.1942 66.087 31.5625 65.3125 31.5625H31.5625ZM31.5625 37.1875C30.788 37.1875 30.1562 37.8192 30.1562 38.5938C30.1562 39.3683 30.788 40 31.5625 40H59.6875C60.462 40 61.0938 39.3683 61.0938 38.5938C61.0938 37.8192 60.462 37.1875 59.6875 37.1875H31.5625ZM23.125 44.2188C21.5704 44.2188 20.3125 45.4767 20.3125 47.0312C20.3125 48.5858 21.5704 49.8438 23.125 49.8438C24.6796 49.8438 25.9375 48.5858 25.9375 47.0312C25.9375 45.4767 24.6796 44.2188 23.125 44.2188ZM31.5625 45.625C30.788 45.625 30.1562 46.2567 30.1562 47.0312C30.1562 47.8058 30.788 48.4375 31.5625 48.4375H42.8125C43.587 48.4375 44.2188 47.8058 44.2188 47.0312C44.2188 46.2567 43.587 45.625 42.8125 45.625H31.5625ZM48.4375 45.625C47.663 45.625 47.0312 46.2567 47.0312 47.0312C47.0312 47.8058 47.663 48.4375 48.4375 48.4375H61.0938C61.8683 48.4375 62.5 47.8058 62.5 47.0312C62.5 46.2567 61.8683 45.625 61.0938 45.625H48.4375ZM16.0938 59.6875C15.3192 59.6875 14.6875 60.3192 14.6875 61.0938V63.9062C14.6875 64.6808 15.3192 65.3125 16.0938 65.3125C16.8683 65.3125 17.5 64.6808 17.5 63.9062V61.0938C17.5 60.3192 16.8683 59.6875 16.0938 59.6875ZM23.125 59.6875C22.3505 59.6875 21.7188 60.3192 21.7188 61.0938V63.9062C21.7188 64.6808 22.3505 65.3125 23.125 65.3125C23.8995 65.3125 24.5312 64.6808 24.5312 63.9062V61.0938C24.5312 60.3192 23.8995 59.6875 23.125 59.6875ZM30.1562 59.6875C29.3817 59.6875 28.75 60.3192 28.75 61.0938V63.9062C28.75 64.6808 29.3817 65.3125 30.1562 65.3125C30.9308 65.3125 31.5625 64.6808 31.5625 63.9062V61.0938C31.5625 60.3192 30.9308 59.6875 30.1562 59.6875ZM37.1875 59.6875C36.413 59.6875 35.7812 60.3192 35.7812 61.0938V63.9062C35.7812 64.6808 36.413 65.3125 37.1875 65.3125C37.962 65.3125 38.5938 64.6808 38.5938 63.9062V61.0938C38.5938 60.3192 37.962 59.6875 37.1875 59.6875ZM44.2188 59.6875C43.4442 59.6875 42.8125 60.3192 42.8125 61.0938V63.9062C42.8125 64.6808 43.4442 65.3125 44.2188 65.3125C44.9933 65.3125 45.625 64.6808 45.625 63.9062V61.0938C45.625 60.3192 44.9933 59.6875 44.2188 59.6875ZM51.25 59.6875C50.4755 59.6875 49.8438 60.3192 49.8438 61.0938V63.9062C49.8438 64.6808 50.4755 65.3125 51.25 65.3125C52.0245 65.3125 52.6562 64.6808 52.6562 63.9062V61.0938C52.6562 60.3192 52.0245 59.6875 51.25 59.6875ZM58.2812 59.6875C57.5067 59.6875 56.875 60.3192 56.875 61.0938V63.9062C56.875 64.6808 57.5067 65.3125 58.2812 65.3125C59.0558 65.3125 59.6875 64.6808 59.6875 63.9062V61.0938C59.6875 60.3192 59.0558 59.6875 58.2812 59.6875ZM65.3125 59.6875C64.538 59.6875 63.9062 60.3192 63.9062 61.0938V63.9062C63.9062 64.6808 64.538 65.3125 65.3125 65.3125C66.087 65.3125 66.7188 64.6808 66.7188 63.9062V61.0938C66.7188 60.3192 66.087 59.6875 65.3125 59.6875ZM72.3438 59.6875C71.5692 59.6875 70.9375 60.3192 70.9375 61.0938V63.9062C70.9375 64.6808 71.5692 65.3125 72.3438 65.3125C73.1183 65.3125 73.75 64.6808 73.75 63.9062V61.0938C73.75 60.3192 73.1183 59.6875 72.3438 59.6875ZM3.4375 70.9375H68.125V73.75C68.125 74.7772 68.4216 75.733 68.9105 76.5625H6.25C4.70093 76.5625 3.4375 75.2991 3.4375 73.75V70.9375Z" fill="#E4B564"/>
</svg>
