<svg width="85" height="72" viewBox="0 0 85 72" fill="none" xmlns="http://www.w3.org/2000/svg">
<path d="M42.4007 0.723877C42.3128 0.723877 42.2304 0.72937 42.1425 0.74585C42.0546 0.762328 41.9722 0.789795 41.8843 0.822753C41.7964 0.855713 41.7195 0.899658 41.6371 0.954589C41.5987 0.982055 41.5492 0.993042 41.5053 1.02051L0.724031 34.7705C0.125276 35.2704 0.0483713 36.1548 0.537264 36.7535C0.817414 37.0886 1.21842 37.2589 1.62491 37.2589C1.93802 37.2589 2.25662 37.1545 2.5203 36.9403L7.24991 33.0292V68.2019H3.03116C2.25113 68.2019 1.62491 68.8281 1.62491 69.6082C1.62491 70.3882 2.25113 71.0144 3.03116 71.0144H81.7812C82.5612 71.0144 83.1874 70.3882 83.1874 69.6082C83.1874 68.8281 82.5612 68.2019 81.7812 68.2019H77.5624V33.0292L82.2865 36.9403C82.5502 37.1545 82.8688 37.2644 83.1874 37.2644C83.5884 37.2644 83.9894 37.0886 84.2696 36.7535C84.7639 36.1548 84.6815 35.2704 84.0828 34.7705L43.3015 1.02051C43.2631 0.993042 43.2137 0.982055 43.1752 0.954589C43.0928 0.899658 43.0104 0.855713 42.917 0.822753C42.8401 0.789795 42.7577 0.762328 42.6753 0.74585C42.5819 0.72937 42.4941 0.723877 42.4007 0.723877ZM42.4062 3.93188L74.7499 30.7001V68.2019H10.0624V30.7001L42.4062 3.93188ZM42.4062 14.7589C40.0826 14.7589 38.1874 16.6541 38.1874 18.9832C38.1874 20.8124 39.3684 22.3615 40.9999 22.9437V26.0474C39.8189 25.1575 38.3687 24.6082 36.7812 24.6082H33.9687C30.9419 24.6082 28.3766 26.5472 27.3878 29.2334C27.267 29.3378 27.1626 29.4531 27.0857 29.6069L18.6482 46.4819C18.6427 46.4929 18.6427 46.5094 18.6372 46.5259C18.5988 46.6083 18.5878 46.6962 18.5658 46.7896C18.5439 46.8829 18.5109 46.9763 18.5054 47.0697C18.5054 47.0807 18.4999 47.0917 18.4999 47.1082C18.4999 51.0522 22.823 54.1394 28.3437 54.1394C33.8643 54.1394 38.1874 51.0522 38.1874 47.1082C38.1874 47.0917 38.1819 47.0807 38.1819 47.0697C38.1764 46.9763 38.1435 46.8829 38.1215 46.7896C38.0995 46.6962 38.0885 46.6028 38.0501 46.5204C38.0446 46.5039 38.0446 46.4929 38.0391 46.4819L29.9696 30.3485C30.5244 28.6566 32.0955 27.4207 33.9687 27.4207H36.7812C39.1048 27.4207 40.9999 29.3158 40.9999 31.6394V35.8582C40.9999 36.6382 41.6261 37.2644 42.4062 37.2644C43.1862 37.2644 43.8124 36.6382 43.8124 35.8582V31.6394C43.8124 29.3158 45.7076 27.4207 48.0312 27.4207H50.8437C52.7168 27.4207 54.2934 28.6566 54.8427 30.3485L46.7732 46.4764C46.7677 46.4929 46.7677 46.5039 46.7622 46.5204C46.7238 46.6028 46.7128 46.6962 46.6908 46.7896C46.6634 46.8774 46.6359 46.9708 46.6304 47.0642C46.6304 47.0807 46.6249 47.0917 46.6249 47.1027C46.6249 51.0468 50.948 54.1339 56.4687 54.1339C61.9838 54.1339 66.3124 51.0468 66.3124 47.1027C66.3124 47.0917 66.3014 47.0807 66.3014 47.0642C66.2959 46.9708 66.2685 46.8774 66.2465 46.7896C66.2245 46.6962 66.2135 46.6028 66.1751 46.5204C66.1696 46.5039 66.1696 46.4929 66.1641 46.4764L57.7266 29.6014C57.6497 29.4531 57.5453 29.3323 57.4245 29.2334C56.4357 26.5417 53.8704 24.6027 50.8437 24.6027H48.0312C46.4436 24.6027 44.9934 25.152 43.8124 26.0474V22.9382C45.4439 22.356 46.6249 20.8124 46.6249 18.9777C46.6249 16.6541 44.7298 14.7589 42.4062 14.7589ZM42.4062 17.5769C43.1807 17.5769 43.8124 18.2086 43.8124 18.9832C43.8124 19.7577 43.1807 20.3894 42.4062 20.3894C41.6316 20.3894 40.9999 19.7577 40.9999 18.9832C40.9999 18.2086 41.6316 17.5769 42.4062 17.5769ZM28.3437 33.3807L34.507 45.7019H22.1803L28.3437 33.3807ZM56.4687 33.3807L62.632 45.7019H50.3053L56.4687 33.3807ZM21.7299 48.5144H34.9574C33.9687 50.1349 31.3374 51.3269 28.3437 51.3269C25.3499 51.3269 22.7187 50.1349 21.7299 48.5144ZM49.8549 48.5144H63.0824C62.0937 50.1349 59.4624 51.3269 56.4687 51.3269C53.4749 51.3269 50.8437 50.1349 49.8549 48.5144ZM14.2812 59.7644C13.5011 59.7644 12.8749 60.3906 12.8749 61.1707V63.9832C12.8749 64.7632 13.5011 65.3894 14.2812 65.3894C15.0612 65.3894 15.6874 64.7632 15.6874 63.9832V61.1707C15.6874 60.3906 15.0612 59.7644 14.2812 59.7644ZM21.3124 59.7644C20.5324 59.7644 19.9062 60.3906 19.9062 61.1707V63.9832C19.9062 64.7632 20.5324 65.3894 21.3124 65.3894C22.0924 65.3894 22.7187 64.7632 22.7187 63.9832V61.1707C22.7187 60.3906 22.0924 59.7644 21.3124 59.7644ZM28.3437 59.7644C27.5636 59.7644 26.9374 60.3906 26.9374 61.1707V63.9832C26.9374 64.7632 27.5636 65.3894 28.3437 65.3894C29.1237 65.3894 29.7499 64.7632 29.7499 63.9832V61.1707C29.7499 60.3906 29.1237 59.7644 28.3437 59.7644ZM35.3749 59.7644C34.5949 59.7644 33.9687 60.3906 33.9687 61.1707V63.9832C33.9687 64.7632 34.5949 65.3894 35.3749 65.3894C36.1549 65.3894 36.7812 64.7632 36.7812 63.9832V61.1707C36.7812 60.3906 36.1549 59.7644 35.3749 59.7644ZM42.4062 59.7644C41.6261 59.7644 40.9999 60.3906 40.9999 61.1707V63.9832C40.9999 64.7632 41.6261 65.3894 42.4062 65.3894C43.1862 65.3894 43.8124 64.7632 43.8124 63.9832V61.1707C43.8124 60.3906 43.1862 59.7644 42.4062 59.7644ZM49.4374 59.7644C48.6574 59.7644 48.0312 60.3906 48.0312 61.1707V63.9832C48.0312 64.7632 48.6574 65.3894 49.4374 65.3894C50.2174 65.3894 50.8437 64.7632 50.8437 63.9832V61.1707C50.8437 60.3906 50.2174 59.7644 49.4374 59.7644ZM56.4687 59.7644C55.6886 59.7644 55.0624 60.3906 55.0624 61.1707V63.9832C55.0624 64.7632 55.6886 65.3894 56.4687 65.3894C57.2487 65.3894 57.8749 64.7632 57.8749 63.9832V61.1707C57.8749 60.3906 57.2487 59.7644 56.4687 59.7644ZM63.4999 59.7644C62.7199 59.7644 62.0937 60.3906 62.0937 61.1707V63.9832C62.0937 64.7632 62.7199 65.3894 63.4999 65.3894C64.2799 65.3894 64.9062 64.7632 64.9062 63.9832V61.1707C64.9062 60.3906 64.2799 59.7644 63.4999 59.7644ZM70.5312 59.7644C69.7511 59.7644 69.1249 60.3906 69.1249 61.1707V63.9832C69.1249 64.7577 69.7511 65.3894 70.5312 65.3894C71.3112 65.3894 71.9374 64.7632 71.9374 63.9832V61.1707C71.9374 60.3906 71.3112 59.7644 70.5312 59.7644Z" fill="#E4B564"/>
</svg>
