<svg width="65" height="80" viewBox="0 0 65 80" fill="none" xmlns="http://www.w3.org/2000/svg">
<path d="M4.46875 0.625C2.14514 0.625 0.25 2.52014 0.25 4.84375V75.1562C0.25 77.4799 2.14514 79.375 4.46875 79.375H60.7188C63.0424 79.375 64.9375 77.4799 64.9375 75.1562V19.8291C64.9375 17.9504 64.2069 16.1871 62.8776 14.8578L50.7047 2.68494C49.3754 1.35559 47.6121 0.625 45.7334 0.625H4.46875ZM4.46875 3.4375H45.25V16.0938C45.25 18.4174 47.1451 20.3125 49.4688 20.3125H62.125V75.1562C62.125 75.9308 61.4933 76.5625 60.7188 76.5625H4.46875C3.69421 76.5625 3.0625 75.9308 3.0625 75.1562V4.84375C3.0625 4.06921 3.69421 3.4375 4.46875 3.4375ZM48.0625 4.14062C48.2932 4.29443 48.5129 4.47021 48.7162 4.67346L60.889 16.8463C61.0868 17.0441 61.2626 17.2638 61.4219 17.5H49.4688C48.6942 17.5 48.0625 16.8683 48.0625 16.0938V4.14062ZM15.7188 14.6875C14.9387 14.6875 14.3125 15.3137 14.3125 16.0938C14.3125 16.8738 14.9387 17.5 15.7188 17.5H41.0312C41.8113 17.5 42.4375 16.8738 42.4375 16.0938C42.4375 15.3137 41.8113 14.6875 41.0312 14.6875H15.7188ZM15.7188 20.3125C14.9387 20.3125 14.3125 20.9387 14.3125 21.7188C14.3125 22.4988 14.9387 23.125 15.7188 23.125H43.8438C44.6238 23.125 45.25 22.4988 45.25 21.7188C45.25 20.9387 44.6238 20.3125 43.8438 20.3125H15.7188ZM15.7188 25.9375C14.9387 25.9375 14.3125 26.5637 14.3125 27.3438C14.3125 28.1238 14.9387 28.75 15.7188 28.75H38.2188C38.9988 28.75 39.625 28.1238 39.625 27.3438C39.625 26.5637 38.9988 25.9375 38.2188 25.9375H15.7188ZM43.8438 25.9375C43.0637 25.9375 42.4375 26.5637 42.4375 27.3438C42.4375 28.1238 43.0637 28.75 43.8438 28.75H49.4688C50.2488 28.75 50.875 28.1238 50.875 27.3438C50.875 26.5637 50.2488 25.9375 49.4688 25.9375H43.8438ZM15.7188 31.5625C14.9387 31.5625 14.3125 32.1887 14.3125 32.9688C14.3125 33.7488 14.9387 34.375 15.7188 34.375H49.4688C50.2488 34.375 50.875 33.7488 50.875 32.9688C50.875 32.1887 50.2488 31.5625 49.4688 31.5625H15.7188ZM15.7188 37.1875C14.9387 37.1875 14.3125 37.8137 14.3125 38.5938C14.3125 39.3738 14.9387 40 15.7188 40H49.4688C50.2488 40 50.875 39.3738 50.875 38.5938C50.875 37.8137 50.2488 37.1875 49.4688 37.1875H15.7188ZM15.7188 42.8125C14.9387 42.8125 14.3125 43.4387 14.3125 44.2188C14.3125 44.9988 14.9387 45.625 15.7188 45.625H35.4062C36.1863 45.625 36.8125 44.9988 36.8125 44.2188C36.8125 43.4387 36.1863 42.8125 35.4062 42.8125H15.7188ZM21.8107 52.7057C21.3987 52.7332 21.0746 52.865 20.8768 52.9694C18.6851 54.1174 18.6686 58.1879 19.3827 61.6156C19.6958 63.1152 20.5472 65.0323 21.6733 66.6254C21.113 67.7899 20.3989 68.8501 19.531 69.6631C18.9652 70.1904 18.9323 71.0803 19.4596 71.6461C19.7397 71.9482 20.1133 72.0966 20.4868 72.0966C20.8329 72.0966 21.179 71.9702 21.4536 71.712C22.3325 70.8936 23.0796 69.8883 23.7058 68.7897C23.8212 68.8776 23.9365 68.96 24.0519 69.0369C24.5737 69.3719 25.0736 69.5587 25.5735 69.6027C26.1777 69.6521 26.793 69.5038 27.4137 69.1632C28.353 68.6469 29.21 67.8119 29.8911 66.8286C30.5173 67.0264 31.1765 66.9934 31.7808 66.7297C33.4562 65.9991 34.1154 64.6313 34.4724 63.9008L34.5768 63.6755C34.6152 63.5986 34.6592 63.5217 34.6976 63.4393H34.7031C36.7301 63.8184 38.0594 61.9617 38.6912 61.0718C39.1031 60.5005 39.5481 60.2203 39.5865 60.1874C40.2622 60.5719 41.1246 60.3467 41.5146 59.6765C41.8992 59.0063 41.674 58.1439 41.0038 57.7539C39.5426 56.908 37.7354 57.5726 36.4005 59.4403C35.8842 60.1654 35.5765 60.462 35.4227 60.5939C35.4722 59.9402 35.4337 59.314 35.2524 58.8086C34.9943 58.078 34.5219 57.7429 34.1703 57.5946C33.7583 57.4243 33.2914 57.4518 32.9014 57.6715C32.5443 57.8857 31.7313 58.5504 32.0225 60.1874C32.0939 60.6049 32.2312 61.0388 32.429 61.4563C32.3411 61.7859 32.2257 62.11 32.0884 62.3737L31.9346 62.6813C31.7533 63.0658 31.561 63.4558 31.2534 63.7689C31.3578 63.291 31.4127 62.8241 31.4072 62.3737C31.3633 59.2865 30.7865 57.5836 29.6 57.0288C28.9463 56.7212 28.2102 56.8201 27.6279 57.287C26.5293 58.1769 26.1283 60.4071 26.6611 62.7142C26.8259 63.4448 27.1885 64.3018 27.6993 65.0488C27.2434 65.7574 26.6611 66.3672 26.0624 66.6968C25.9086 66.7847 25.8262 66.8011 25.8262 66.8066C25.8097 66.8011 25.7383 66.7792 25.5845 66.6748C25.3647 66.532 25.145 66.3562 24.9253 66.142C25.6888 64.0601 26.0789 61.8738 26.1338 60.0116C26.2107 57.3145 25.6229 55.1721 24.4749 53.9691C23.4421 52.887 22.4973 52.6562 21.8107 52.7057ZM22.1128 55.6171C22.1952 55.6775 22.2996 55.7709 22.4369 55.9137C22.9038 56.4026 23.3817 57.7155 23.3158 59.9292C23.2883 60.907 23.1455 62.0166 22.8818 63.1482C22.5303 62.4121 22.2666 61.6705 22.1348 61.0443C21.5031 58.0011 21.8326 56.2103 22.1128 55.6171ZM7.28125 65.3125C6.50122 65.3125 5.875 65.9387 5.875 66.7188V69.5312C5.875 70.3113 6.50122 70.9375 7.28125 70.9375C8.06128 70.9375 8.6875 70.3113 8.6875 69.5312V66.7188C8.6875 65.9387 8.06128 65.3125 7.28125 65.3125ZM14.3125 65.3125C13.5325 65.3125 12.9062 65.9387 12.9062 66.7188V69.5312C12.9062 70.3113 13.5325 70.9375 14.3125 70.9375C15.0925 70.9375 15.7188 70.3113 15.7188 69.5312V66.7188C15.7188 65.9387 15.0925 65.3125 14.3125 65.3125ZM36.8125 65.3125C36.0325 65.3125 35.4062 65.9387 35.4062 66.7188V69.5312C35.4062 70.3113 36.0325 70.9375 36.8125 70.9375C37.5925 70.9375 38.2188 70.3113 38.2188 69.5312V66.7188C38.2188 65.9387 37.5925 65.3125 36.8125 65.3125ZM43.8438 65.3125C43.0637 65.3125 42.4375 65.9387 42.4375 66.7188V69.5312C42.4375 70.3113 43.0637 70.9375 43.8438 70.9375C44.6238 70.9375 45.25 70.3113 45.25 69.5312V66.7188C45.25 65.9387 44.6238 65.3125 43.8438 65.3125ZM50.875 65.3125C50.095 65.3125 49.4688 65.9387 49.4688 66.7188V69.5312C49.4688 70.3113 50.095 70.9375 50.875 70.9375C51.655 70.9375 52.2812 70.3113 52.2812 69.5312V66.7188C52.2812 65.9387 51.655 65.3125 50.875 65.3125ZM57.9062 65.3125C57.1262 65.3125 56.5 65.9387 56.5 66.7188V69.5312C56.5 70.3113 57.1262 70.9375 57.9062 70.9375C58.6863 70.9375 59.3125 70.3113 59.3125 69.5312V66.7188C59.3125 65.9387 58.6863 65.3125 57.9062 65.3125Z" fill="#E4B564"/>
</svg>
