<?xml version="1.0" encoding="utf-8"?><svg viewBox="0 0 512 512" xmlns="http://www.w3.org/2000/svg" xmlns:xlink="http://www.w3.org/1999/xlink"><style>:root>svg{display:none}:root>svg:target{display:block}</style><svg aria-hidden="true" data-prefix="fas" data-icon="chevron-left" class="asvg-inline--fa afa-chevron-left afa-w-10" viewBox="0 0 320 512" id="chevron-left" xmlns="http://www.w3.org/2000/svg"><path d="M34.52 239.03L228.87 44.69c9.37-9.37 24.57-9.37 33.94 0l22.67 22.67c9.36 9.36 9.37 24.52.04 33.9L131.49 256l154.02 154.75c9.34 9.38 9.32 24.54-.04 33.9l-22.67 22.67c-9.37 9.37-24.57 9.37-33.94 0L34.52 272.97c-9.37-9.37-9.37-24.57 0-33.94z"/></svg><svg aria-hidden="true" data-prefix="fas" data-icon="chevron-right" class="bsvg-inline--fa bfa-chevron-right bfa-w-10" viewBox="0 0 320 512" id="chevron-right" xmlns="http://www.w3.org/2000/svg"><path d="M285.476 272.971L91.132 467.314c-9.373 9.373-24.569 9.373-33.941 0l-22.667-22.667c-9.357-9.357-9.375-24.522-.04-33.901L188.505 256 34.484 101.255c-9.335-9.379-9.317-24.544.04-33.901l22.667-22.667c9.373-9.373 24.569-9.373 33.941 0L285.475 239.03c9.373 9.372 9.373 24.568.001 33.941z"/></svg><svg viewBox="0 0 52 61" id="network" xmlns="http://www.w3.org/2000/svg"><path d="M13.5.375l-.7.352-.14.77.536.573.304.055.7-.352.14-.77-.536-.573L13.5.375zm7 0l-.7.352-.14.77.536.573.304.055.7-.352.14-.77-.536-.573L20.5.375zm7 0l-.7.352-.14.77.536.573.304.055.7-.352.14-.77-.536-.573L27.5.375zm6.125 0l-.7.352-.14.77.536.573.304.055.7-.352.14-.77-.536-.573-.304-.055zM12.374 3.687l-.7.35-.14.773.536.572.304.055.7-.352.139-.772-.535-.573-.304-.053zm7 0l-.7.35-.14.773.536.572.304.055.7-.352.139-.772-.535-.573-.304-.053zm7 0l-.7.35-.14.773.536.572.304.055.7-.352.139-.772-.535-.573-.304-.053zm6.125 0l-.7.35-.14.773.536.572.304.055.7-.352.139-.772-.535-.573-.304-.053zM12.035 7.141l-.702.35-.137.773.535.572.304.055.701-.352.138-.77-.536-.573-.303-.055zm7 0l-.702.35-.137.773.535.572.304.055.701-.352.139-.77-.537-.573-.303-.055zm7 0l-.702.35-.137.773.535.572.304.055.701-.352.139-.77-.537-.573-.303-.055zm6.125 0l-.702.35-.137.773.535.572.304.055.701-.352.139-.77-.537-.573-.303-.055zM14.734 8.84l-.7.352-.14.77.536.573.304.055.7-.35.139-.773-.535-.573-.304-.054zm7 0l-.7.352-.14.77.536.573.304.055.7-.35.139-.773-.535-.573-.304-.054zm7 0l-.7.352-.14.77.536.573.304.055.7-.35.139-.773-.535-.573-.304-.054zm6.125 0l-.7.352-.14.77.536.573.304.055.7-.35.139-.773-.535-.573-.304-.054zm-18.982 3.014l-.702.352-.137.771.535.573.304.054.7-.35.14-.773-.537-.572-.303-.055zm7 0l-.702.352-.137.771.535.573.304.054.7-.35.14-.773-.537-.572-.303-.055zm7 0l-.702.352-.137.771.535.573.304.054.7-.35.14-.773-.537-.572-.303-.055zm6.125 0l-.702.352-.137.771.535.573.304.054.7-.35.14-.773-.537-.572-.303-.055zm-20.976 3.39l-.7.351-.139.771.537.573.302.054.703-.35.136-.773-.535-.572-.304-.055zm7 0l-.7.351-.139.771.537.573.302.054.703-.35.136-.773-.535-.572-.304-.055zm7 0l-.7.351-.139.771.537.573.302.054.703-.35.136-.773-.535-.572-.304-.055zm6.125 0l-.7.351-.139.771.537.573.302.054.702-.35.137-.773-.535-.572-.304-.055zM8.687 19.448l-.485.323s-1.032.686-2.075 1.642c-1.042.956-2.252 2.112-2.252 3.68V27.5H1.951c-.88 0-1.576.748-1.576 1.605v2.917c0 .857.697 1.603 1.576 1.603h1.924v12.25H1.951c-.88 0-1.576.748-1.576 1.605v2.917c0 .857.697 1.603 1.576 1.603h1.924v2.406c0 1.568 1.21 2.724 2.252 3.68 1.043.956 2.075 1.642 2.075 1.642l.486.323.485-.323s1.032-.686 2.075-1.642c.473-.434.964-.925 1.377-1.462.413.537.904 1.028 1.377 1.462a19.197 19.197 0 002.075 1.642l.485.323.486-.323s1.032-.686 2.075-1.642c.473-.434.964-.925 1.377-1.462.413.537.904 1.028 1.377 1.462a19.197 19.197 0 002.075 1.642l.485.323.486-.323s1.032-.686 2.075-1.642c.473-.434.964-.925 1.377-1.462.413.537.904 1.028 1.377 1.462a19.197 19.197 0 002.075 1.642l.485.323.486-.323s1.032-.686 2.075-1.642c.473-.434.964-.925 1.377-1.462.413.537.904 1.028 1.377 1.462a19.197 19.197 0 002.075 1.642l.486.323.485-.323s1.032-.686 2.075-1.642C43.79 57.13 45 55.974 45 54.406V52h1.75a.877.877 0 00.82-1.213.877.877 0 00-.82-.537H45v-2.625h1.75a.877.877 0 00.82-1.213.877.877 0 00-.82-.537H45v-12.25h1.75a.877.877 0 00.82-1.213.877.877 0 00-.82-.537H45V29.25h1.75a.877.877 0 00.82-1.213.877.877 0 00-.82-.537H45v-2.406c0-1.568-1.21-2.724-2.252-3.68-1.043-.956-2.075-1.642-2.075-1.642l-.486-.323-.485.323s-1.032.686-2.075 1.642c-.473.434-.964.925-1.377 1.461-.413-.536-.904-1.027-1.377-1.46-1.043-.957-2.075-1.643-2.075-1.643l-.486-.323-.485.323s-.96.638-1.96 1.538c-.513.461-1.061.973-1.502 1.557-.405-.537-.895-1.02-1.367-1.453-1.043-.956-2.075-1.642-2.075-1.642l-.485-.323-.486.323s-1.032.686-2.075 1.642c-.473.435-.977.913-1.39 1.45-.405-.536-.894-1.018-1.364-1.45-1.043-.956-2.075-1.642-2.075-1.642l-.485-.323-.486.323s-1.032.686-2.075 1.642c-.473.434-.964.925-1.377 1.461-.413-.536-.904-1.027-1.377-1.46-1.043-.957-2.075-1.643-2.075-1.643l-.486-.323zm23.624 2.162c.313.22.693.463 1.379 1.092.926.849 1.685 1.99 1.685 2.39h1.75c0-.4.76-1.541 1.685-2.39.685-.628 1.064-.87 1.377-1.09.314.22.693.462 1.378 1.09.926.849 1.685 1.99 1.685 2.39v29.313c0 .401-.76 1.542-1.685 2.391-.685.628-1.064.87-1.377 1.09-.314-.22-.693-.462-1.378-1.09-.926-.849-1.685-1.99-1.685-2.39h-1.75c0 .4-.76 1.541-1.685 2.39-.685.628-1.064.87-1.377 1.09-.314-.22-.693-.462-1.378-1.09-.926-.849-1.685-1.99-1.685-2.39H27.5c0 .4-.76 1.541-1.685 2.39-.685.628-1.064.87-1.378 1.09-.313-.22-.692-.462-1.377-1.09-.926-.849-1.685-1.99-1.685-2.39h-1.75c0 .4-.76 1.541-1.685 2.39-.685.628-1.064.87-1.378 1.09-.313-.22-.692-.462-1.377-1.09-.926-.849-1.685-1.99-1.685-2.39h-1.75c0 .4-.76 1.541-1.685 2.39-.685.628-1.064.87-1.377 1.09-.314-.22-.693-.462-1.378-1.09-.926-.849-1.685-1.99-1.685-2.39V25.093c0-.401.76-1.542 1.685-2.391.685-.628 1.064-.87 1.378-1.09.313.22.692.462 1.377 1.09.926.849 1.685 1.99 1.685 2.39h1.75c0-.4.76-1.541 1.685-2.39.685-.628 1.064-.87 1.377-1.09.314.22.693.462 1.378 1.09.926.849 1.685 1.99 1.685 2.39h1.75c0-.4.76-1.541 1.685-2.39.685-.628 1.064-.87 1.378-1.09.313.22.692.462 1.377 1.09.926.849 1.685 1.99 1.685 2.39h1.75c0-.028.002-.062.007-.095l-.043-.007v-.002l.043.006c.067-.485.887-1.581 1.78-2.384.647-.581.973-.788 1.274-1zm-19.686 5.014l-.7.352-.14.77.536.573.304.055.7-.352.14-.77-.536-.573-.304-.055zm7.875 0l-.7.352-.14.77.536.573.304.055.7-.352.14-.77-.536-.573-.304-.055zm7.875 0l-.7.352-.14.77.536.573.304.055.7-.352.14-.77-.536-.573-.304-.055zm7.875 0l-.7.352-.14.77.536.573.304.055.7-.352.14-.77-.536-.573-.304-.055zm14 .875a.875.875 0 100 1.75.875.875 0 000-1.75zM2.125 29.25h1.75v2.625h-1.75V29.25zm10.5.875l-.7.352-.14.77.536.573.304.055.7-.352.14-.77-.536-.573-.304-.055zm7.875 0l-.7.352-.14.77.536.573.304.055.7-.352.14-.77-.536-.573-.304-.055zm7.875 0l-.7.352-.14.77.536.573.304.055.7-.352.14-.77-.536-.573-.304-.055zm7.875 0l-.7.352-.14.77.536.573.304.055.7-.352.14-.77-.536-.573-.304-.055zm14 1.75a.875.875 0 100 1.75.875.875 0 000-1.75zm-37.625 1.75l-.7.352-.14.77.536.573.304.055.7-.352.14-.77-.536-.573-.304-.055zm7.875 0l-.7.352-.14.77.536.573.304.055.7-.352.14-.77-.536-.573-.304-.055zm7.875 0l-.7.352-.14.77.536.573.304.055.7-.352.14-.77-.536-.573-.304-.055zm7.875 0l-.7.352-.14.77.536.573.304.055.7-.352.14-.77-.536-.573-.304-.055zm-23.625 3.5l-.7.352-.14.77.536.573.304.055.7-.352.14-.77-.536-.573-.304-.055zm7.875 0l-.7.352-.14.77.536.573.304.055.7-.352.14-.77-.536-.573-.304-.055zm7.875 0l-.7.352-.14.77.536.573.304.055.7-.352.14-.77-.536-.573-.304-.055zm7.875 0l-.7.352-.14.77.536.573.304.055.7-.352.14-.77-.536-.573-.304-.055zm-23.625 3.5l-.7.352-.14.77.536.573.304.055.7-.352.14-.77-.536-.573-.304-.055zm7.875 0l-.7.352-.14.77.536.573.304.055.7-.352.14-.77-.536-.573-.304-.055zm7.875 0l-.7.352-.14.77.536.573.304.055.7-.352.14-.77-.536-.573-.304-.055zm7.875 0l-.7.352-.14.77.536.573.304.055.7-.352.14-.77-.536-.573-.304-.055zm-23.625 3.5l-.7.352-.14.77.536.573.304.055.7-.352.14-.77-.536-.573-.304-.055zm7.875 0l-.7.352-.14.77.536.573.304.055.7-.352.14-.77-.536-.573-.304-.055zm7.875 0l-.7.352-.14.77.536.573.304.055.7-.352.14-.77-.536-.573-.304-.055zm7.875 0l-.7.352-.14.77.536.573.304.055.7-.352.14-.77-.536-.573-.304-.055zm14 1.75a.875.875 0 100 1.75.875.875 0 000-1.75zm-48.125 1.75h1.75v2.625h-1.75v-2.625zm10.5 0l-.7.352-.14.77.536.573.304.055.7-.352.14-.77-.536-.573-.304-.055zm7.875 0l-.7.352-.14.77.536.573.304.055.7-.352.14-.77-.536-.573-.304-.055zm7.875 0l-.7.352-.14.77.536.573.304.055.7-.352.14-.77-.536-.573-.304-.055zm7.875 0l-.7.352-.14.77.536.573.304.055.7-.352.14-.77-.536-.573-.304-.055zm14 2.625a.875.875 0 100 1.75.875.875 0 000-1.75zm-37.625.875l-.7.352-.14.77.536.573.304.055.7-.352.14-.77-.536-.573-.304-.055zm7.875 0l-.7.352-.14.77.536.573.304.055.7-.352.14-.77-.536-.573-.304-.055zm7.875 0l-.7.352-.14.77.536.573.304.055.7-.352.14-.77-.536-.573-.304-.055zm7.875 0l-.7.352-.14.77.536.573.304.055.7-.352.14-.77-.536-.573-.304-.055z"/></svg><svg viewBox="0 0 54 59" id="sewerage" xmlns="http://www.w3.org/2000/svg"><path d="M1.625 0A.877.877 0 00.75.875c0 .482.393.875.875.875A.877.877 0 002.5.875.877.877 0 001.625 0zm15.75 0a.877.877 0 00-.875.875c0 .482.393.875.875.875a.877.877 0 00.875-.875.877.877 0 00-.875-.875zM1.625 3.5a.877.877 0 00-.875.875c0 .482.393.875.875.875a.877.877 0 00.875-.875.877.877 0 00-.875-.875zm15.75 0a.877.877 0 00-.875.875c0 .482.393.875.875.875a.877.877 0 00.875-.875.877.877 0 00-.875-.875zM1.611 6.986a.879.879 0 00-.86.889V14c0 12.072 9.802 21.875 21.874 21.875h.366c.386.967 1.159 1.75 2.26 1.75 1.1 0 1.872-.783 2.258-1.75h5.616A2.613 2.613 0 0135.75 38.5v11.375h17.5V40.25c0-12.072-9.803-21.875-21.875-21.875H27.51c-.386-.967-1.158-1.75-2.259-1.75-1.1 0-1.873.783-2.26 1.75h-2.115a2.613 2.613 0 01-2.625-2.625V7.875a.88.88 0 00-.434-.769.883.883 0 00-.882 0 .88.88 0 00-.434.769v7.875a4.388 4.388 0 004.375 4.375h1.75c0 .482.393.875.875.875a.877.877 0 00.875-.875v-.875a.86.86 0 01.875-.875.86.86 0 01.875.875v.875c0 .482.393.875.875.875a.877.877 0 00.875-.875h3.5c11.126 0 20.125 9 20.125 20.125v7.875h-14V38.5a4.388 4.388 0 00-4.375-4.375h-5.25A.877.877 0 0027 33.25a.877.877 0 00-.875.875V35a.86.86 0 01-.875.875.86.86 0 01-.875-.875v-.875a.877.877 0 00-.875-.875.877.877 0 00-.875.875C11.5 34.125 2.5 25.125 2.5 14V7.875a.878.878 0 00-.889-.889zm21.89 15.764a.877.877 0 00-.876.875c0 .482.393.875.875.875a.877.877 0 00.875-.875.877.877 0 00-.875-.875zm3.5 0a.877.877 0 00-.876.875c0 .482.393.875.875.875a.877.877 0 00.875-.875.877.877 0 00-.875-.875zm-3.5 3.5a.877.877 0 00-.876.875c0 .482.393.875.875.875a.877.877 0 00.875-.875.877.877 0 00-.875-.875zm3.5 0a.877.877 0 00-.876.875c0 .482.393.875.875.875a.877.877 0 00.875-.875.877.877 0 00-.875-.875zm-3.5 3.5a.877.877 0 00-.876.875c0 .482.393.875.875.875a.877.877 0 00.875-.875.877.877 0 00-.875-.875zm3.5 0a.877.877 0 00-.876.875c0 .482.393.875.875.875a.877.877 0 00.875-.875.877.877 0 00-.875-.875zM44.5 52.5s-1.75 3.408-1.75 4.375a1.749 1.749 0 103.5 0c0-.967-1.75-4.375-1.75-4.375z"/></svg><svg viewBox="0 0 70 70" id="ssc" xmlns="http://www.w3.org/2000/svg"><path d="M48.578 20a.875.875 0 00-.272 1.699c2.468.927 4.457 2.088 5.787 3.343s1.986 2.555 1.986 3.88c0 1.18-.517 2.332-1.57 3.463-1.051 1.131-2.637 2.205-4.636 3.114-3.997 1.817-9.63 2.975-15.856 2.975-6.226 0-11.858-1.158-15.856-2.975-1.998-.909-3.584-1.983-4.636-3.114-1.052-1.13-1.569-2.283-1.569-3.462 0-1.181.519-2.334 1.574-3.466 1.056-1.132 2.646-2.208 4.65-3.117a.874.874 0 10-.723-1.593c-2.157.978-3.934 2.15-5.207 3.515-1.272 1.365-2.044 2.959-2.044 4.66 0 1.7.768 3.292 2.037 4.656 1.27 1.364 3.042 2.536 5.194 3.514 4.303 1.956 10.14 3.132 16.58 3.132 6.442 0 12.278-1.176 16.581-3.132 2.151-.978 3.925-2.15 5.194-3.514 1.268-1.364 2.037-2.956 2.037-4.655 0-1.911-.968-3.675-2.535-5.154-1.567-1.48-3.747-2.721-6.372-3.707a.876.876 0 00-.344-.062zM5.971 30.816a.875.875 0 00-.861.887c0 2.02.91 3.915 2.437 5.556 1.527 1.641 3.675 3.065 6.287 4.252 5.226 2.375 12.336 3.81 20.183 3.81 7.848 0 14.956-1.435 20.182-3.81 2.613-1.187 4.76-2.61 6.287-4.252 1.527-1.64 2.437-3.536 2.437-5.556a.877.877 0 00-1.498-.626.875.875 0 00-.252.626c0 1.5-.658 2.957-1.969 4.365-1.31 1.408-3.268 2.73-5.728 3.849-4.92 2.236-11.826 3.654-19.459 3.654-7.632 0-14.54-1.418-19.46-3.654-2.46-1.118-4.418-2.44-5.728-3.849-1.31-1.408-1.97-2.865-1.97-4.365a.875.875 0 00-.888-.887zM6 30v30M62 30v30M6 59h55"/></svg><svg aria-hidden="true" data-prefix="fas" data-icon="phone-alt" class="fsvg-inline--fa ffa-phone-alt ffa-w-16" viewBox="0 0 512 512" id="tel" xmlns="http://www.w3.org/2000/svg"><path d="M497.39 361.8l-112-48a24 24 0 00-28 6.9l-49.6 60.6A370.66 370.66 0 01130.6 204.11l60.6-49.6a23.94 23.94 0 006.9-28l-48-112A24.16 24.16 0 00122.6.61l-104 24A24 24 0 000 48c0 256.5 207.9 464 464 464a24 24 0 0023.4-18.6l24-104a24.29 24.29 0 00-14.01-27.6z"/></svg><svg viewBox="0 0 56 57" id="territory" xmlns="http://www.w3.org/2000/svg"><path d="M26.036.737c-2.03 0-3.768 1.02-4.976 2.481-.458-.123-.912-.261-1.43-.261-2.936 0-5.275 2.195-5.763 5.007-.789-.398-1.64-.687-2.586-.687-3.285 0-5.963 2.699-5.963 5.997 0 .262.07.48.105.721-2.507.707-4.39 2.923-4.39 5.66 0 3.096 2.385 5.579 5.391 5.883-.584.93-.97 1.964-1.056 3.125C2.842 29.36.943 31.6.943 34.353c0 3.298 2.678 5.998 5.965 5.998.27 0 .495-.075.745-.113.718 2.49 2.906 4.365 5.614 4.365 1.893 0 3.485-.99 4.573-2.376.543.13 1.09.267 1.7.267 1.454 0 2.798-.434 3.974-1.114.297.105.6.201.91.278-.007 2.737-.332 4.65-.806 5.9-.516 1.362-1.152 1.984-1.76 2.34-.761.444-1.849.518-3.847 1.606a16.537 16.537 0 00-4.26 3.346.874.874 0 101.288 1.184c.79-.858 2.037-2.029 3.81-2.994 1.777-.968 2.695-.932 3.89-1.63.956-.558 1.885-1.571 2.515-3.232.57-1.507.904-3.59.917-6.42.985-.12 1.881-.494 2.677-1.009.56.524 1.216.95 1.956 1.185-.301 2.487-.24 4.354.098 5.745.374 1.546 1.098 2.554 1.887 3.152 1.39 1.054 2.647.953 4.43 2.356 1.141.9 1.876 1.893 2.312 2.58a.875.875 0 101.478-.94 12.038 12.038 0 00-2.707-3.015c-2.103-1.656-3.628-1.749-4.456-2.376-.469-.355-.945-.936-1.244-2.169-.27-1.116-.346-2.801-.056-5.17 1.352-.162 2.467-.96 3.249-2.013.71.226 1.431.44 2.216.44 1.384 0 2.655-.423 3.765-1.077.033.005.08.007.121.012 1.029 1.796 2.91 3.044 5.116 3.044 3.284 0 5.962-2.7 5.962-5.999 0-1.85-.92-3.429-2.237-4.53.008-.073.014-.143.02-.214 2.463-.74 4.297-2.954 4.297-5.66 0-2.845-2.025-5.147-4.681-5.75a5.865 5.865 0 00-4.474-4.402c.409-.803.707-1.67.707-2.638 0-3.299-2.677-5.999-5.962-5.999-1.188 0-2.232.441-3.158 1.044-.986-1.933-2.914-3.303-5.221-3.303-.067 0-.1.012-.161.015-.937-2.5-3.257-4.33-6.069-4.33zm0 1.75c2.276 0 4.16 1.585 4.678 3.717a.875.875 0 00.965.661c.255-.034.446-.063.587-.063 1.918 0 3.507 1.293 4.023 3.064a.875.875 0 001.447.385 4.154 4.154 0 012.909-1.19c2.332 0 4.212 1.89 4.212 4.249 0 1.046-.386 1.984-1.02 2.734a.874.874 0 00.708 1.44c.183-.01.225-.018.126-.018 2.14 0 3.874 1.602 4.151 3.686a.875.875 0 00.764.754 4.208 4.208 0 013.719 4.194 4.227 4.227 0 01-3.509 4.177.875.875 0 00-.692.623l-.471-.502-.303-.055-.7.352-.139.773.535.572.304.053.675-.338c-.012.104-.013.228-.03.323a.875.875 0 00.37.89 4.246 4.246 0 011.88 3.536c0 2.358-1.882 4.249-4.212 4.249-1.714 0-3.175-1.034-3.835-2.514a.875.875 0 00-.812-.52c-.222.003-.272.019-.166.019-.064 0-.219-.033-.496-.055a.875.875 0 00-.548.14 5.689 5.689 0 01-5.313.522.876.876 0 00-1.105.395c-.526.98-1.522 1.642-2.696 1.642-.022 0-.043-.003-.065-.004a.875.875 0 00-.304-.02 3.058 3.058 0 01-2.053-1.188.873.873 0 00-1.246-.142c-.786.644-1.753 1.034-2.825 1.034-.019 0-.037-.003-.056-.003a.875.875 0 00-.285-.015 4.46 4.46 0 01-1.458-.366.875.875 0 00-.827.066c-.98.632-2.135 1-3.382 1-.577 0-1.146-.108-1.725-.277a.875.875 0 00-.988.378c-.748 1.206-2.052 2.008-3.561 2.008-2.092 0-3.788-1.535-4.12-3.551l.304-.154.138-.77-.535-.573-.304-.055-.7.352-.06.332a4.039 4.039 0 01-1.082.167c-2.335 0-4.215-1.89-4.215-4.248a4.215 4.215 0 013.59-4.182.875.875 0 00.743-.908c-.008-.16-.014-.197-.014-.116a5.18 5.18 0 011.54-3.683l.198.036.7-.352.14-.77-.536-.573-.304-.055-.209.104a.876.876 0 00-.598-.072 4.115 4.115 0 01-.95.122c-2.332 0-4.21-1.89-4.21-4.249a4.208 4.208 0 013.71-4.192.875.875 0 00.74-1.092 4.3 4.3 0 01-.165-1.097c0-2.358 1.882-4.247 4.213-4.247 1.048 0 1.985.394 2.733 1.044a.875.875 0 001.444-.745c-.021-.214-.041-.33-.041-.37 0-2.359 1.881-4.25 4.212-4.25.471 0 .928.098 1.388.26a.875.875 0 001.017-.336 4.808 4.808 0 014.002-2.143zm-3.4 5.797l-.701.352-.139.77.537.573.303.055.7-.35.139-.773-.535-.573-.305-.054zm3.399.085l-.701.35-.138.773.536.572.303.055.7-.352.139-.77-.535-.573-.304-.055zm-5.91 2.256l-.7.352-.14.77.536.573.304.055.7-.352.14-.77-.536-.573-.304-.055zm8.403.113l-.7.35-.139.773.535.572.304.055.7-.352.14-.771-.537-.574-.303-.053zm12.397 5.038l-.7.35-.14.773.536.572.304.055.7-.352.14-.77-.536-.575-.304-.053zm-3.281 1.136l-.7.35-.14.773.537.573.303.054.702-.352.137-.77-.535-.575-.304-.053zm-9.835 1.826l-.701.35-.139.772.535.573.305.055.7-.352.139-.771-.535-.574-.304-.053zm3.358.35l-.7.352-.14.772.535.573.305.053.7-.35.139-.773-.535-.572-.304-.055zm3.857.114l-.703.352-.136.771.535.573.304.054.7-.35.139-.772-.537-.573-.302-.055zm-9.649 1.923l-.7.352-.14.77.536.573.304.055.7-.352.14-.77-.536-.573-.304-.055zm7.82.706l-.7.35-.139.773.537.572.302.055.701-.352.138-.773-.535-.572-.304-.053zm-21.1 1.003l-.701.352-.139.773.535.572.305.053.7-.35.139-.773-.537-.572-.303-.055zm3.375.769l-.703.352-.136.773.534.572.305.053.7-.35.139-.773-.537-.572-.302-.055zm29.625 5.479l-.7.352-.14.77.536.573.304.055.7-.35.14-.773-.536-.572-.304-.055zm-3.468.152l-.7.352-.139.773.537.572.302.053.703-.35.137-.773-.535-.572-.305-.055zM38.5 30.75l-.7.352-.14.77.536.573.304.055.7-.352.14-.77-.536-.573-.304-.055zm-24.614 2.72l-.703.351-.137.773.535.572.305.055.7-.352.139-.771-.537-.573-.303-.054zm-3.142 1.45l-.702.352-.137.77.535.573.304.055.701-.35.139-.773-.537-.572-.303-.055z"/></svg><svg viewBox="0 0 64 55" id="water" xmlns="http://www.w3.org/2000/svg"><path d="M10.937.03c-.202-.007-.4.017-.595.058C9.183.34 8.25 1.376 8.25 2.655v6.47a2.639 2.639 0 002.625 2.625h9.116c.386.967 1.158 1.75 2.259 1.75H24v2.625h-5.25c-1.1 0-1.873.783-2.26 1.75H8.25a.88.88 0 00-.769.434.883.883 0 000 .882.88.88 0 00.769.434h7.875c0 .482.393.875.875.875a.877.877 0 00.875-.875v-.875a.86.86 0 01.875-.875h5.978a.79.79 0 00.284 0h4.966a.79.79 0 00.284 0h5.988a.86.86 0 01.875.875v.875c0 .482.393.875.875.875a.877.877 0 00.875-.875h4.375c9.19 0 16.625 7.434 16.625 16.625v6.125h.875a.86.86 0 01.875.875.86.86 0 01-.875.875h-14a.86.86 0 01-.875-.875.86.86 0 01.875-.875h.875V38a4.388 4.388 0 00-4.375-4.375h-4.375A.877.877 0 0038 32.75a.877.877 0 00-.875.875v.875a.86.86 0 01-.875.875h-17.5a.86.86 0 01-.875-.875v-.875A.877.877 0 0017 32.75a.877.877 0 00-.875.875H8.25a.88.88 0 00-.769.434.883.883 0 000 .882.88.88 0 00.769.434h8.24c.387.967 1.16 1.75 2.26 1.75h17.5c1.1 0 1.873-.783 2.26-1.75h4.74A2.613 2.613 0 0145.875 38v2.99c-.967.387-1.75 1.16-1.75 2.26a2.639 2.639 0 002.625 2.625h14a2.639 2.639 0 002.625-2.625c0-1.1-.783-1.873-1.75-2.26v-4.74c0-10.138-8.237-18.375-18.375-18.375h-4.74c-.387-.967-1.16-1.75-2.26-1.75H31V13.5h1.75c1.1 0 1.873-.783 2.26-1.75h9.115a2.639 2.639 0 002.625-2.625v-6.47c0-1.706-1.658-2.977-3.302-2.54l-9.826 2.622c-.93-.868-2.116-1.487-3.497-1.487h-5.25c-1.38 0-2.567.619-3.497 1.487L11.552.115h-.004a2.537 2.537 0 00-.611-.085zm-.048 1.743c.068.003.14.014.212.034l10.756 2.871.362-.424C22.865 3.485 23.802 3 24.875 3h5.25c1.073 0 2.01.489 2.656 1.254l.362.424L43.9 1.808A.857.857 0 0145 2.654v6.47a.86.86 0 01-.875.875h-8.75a.877.877 0 00-.875-.875.877.877 0 00-.875.875v.875a.86.86 0 01-.875.875h-2.488c-.052-.007-.1-.014-.15-.014-.042.004-.086.007-.127.014h-4.973c-.052-.007-.1-.014-.15-.014-.042.004-.086.007-.127.014H22.25a.86.86 0 01-.875-.875V10a.877.877 0 00-.875-.875.877.877 0 00-.875.875h-8.75A.86.86 0 0110 9.125v-6.47c0-.523.403-.9.889-.882zM20.5 5.625a.877.877 0 00-.875.875c0 .482.393.875.875.875a.877.877 0 00.875-.875.877.877 0 00-.875-.875zm14 0a.877.877 0 00-.875.875c0 .482.393.875.875.875a.877.877 0 00.875-.875.877.877 0 00-.875-.875zM25.75 13.5h3.5v2.625h-3.5V13.5zm-24.5 4.375a.877.877 0 00-.875.875c0 .482.393.875.875.875a.877.877 0 00.875-.875.877.877 0 00-.875-.875zm3.5 0a.877.877 0 00-.875.875c0 .482.393.875.875.875a.877.877 0 00.875-.875.877.877 0 00-.875-.875zM17 22.25a.877.877 0 00-.875.875c0 .482.393.875.875.875a.877.877 0 00.875-.875.877.877 0 00-.875-.875zm21 0a.877.877 0 00-.875.875c0 .482.393.875.875.875a.877.877 0 00.875-.875.877.877 0 00-.875-.875zm-21 3.5a.877.877 0 00-.875.875c0 .482.393.875.875.875a.877.877 0 00.875-.875.877.877 0 00-.875-.875zm21 0a.877.877 0 00-.875.875c0 .482.393.875.875.875a.877.877 0 00.875-.875.877.877 0 00-.875-.875zm-21 3.5a.877.877 0 00-.875.875c0 .482.393.875.875.875a.877.877 0 00.875-.875.877.877 0 00-.875-.875zm21 0a.877.877 0 00-.875.875c0 .482.393.875.875.875a.877.877 0 00.875-.875.877.877 0 00-.875-.875zM1.25 33.625a.877.877 0 00-.875.875c0 .482.393.875.875.875a.877.877 0 00.875-.875.877.877 0 00-.875-.875zm3.5 0a.877.877 0 00-.875.875c0 .482.393.875.875.875a.877.877 0 00.875-.875.877.877 0 00-.875-.875zm45.5 7a.877.877 0 00-.875.875c0 .482.393.875.875.875a.877.877 0 00.875-.875.877.877 0 00-.875-.875zm3.5 0a.877.877 0 00-.875.875c0 .482.393.875.875.875a.877.877 0 00.875-.875.877.877 0 00-.875-.875zm3.5 0a.877.877 0 00-.875.875c0 .482.393.875.875.875a.877.877 0 00.875-.875.877.877 0 00-.875-.875zM54.625 48.5s-1.75 3.408-1.75 4.375a1.749 1.749 0 103.5 0c0-.967-1.75-4.375-1.75-4.375z"/></svg></svg>