<svg width="12" height="6" viewBox="0 0 12 6" fill="none" xmlns="http://www.w3.org/2000/svg">
<path d="M6.00333 5.63987C6.06614 5.63893 6.1252 5.61362 6.16926 5.56956L10.9693 0.769555C11.0321 0.709554 11.0574 0.619555 11.0349 0.536117C11.0133 0.451742 10.9477 0.386117 10.8633 0.364554C10.7799 0.342054 10.6899 0.367367 10.6299 0.43018L5.99958 5.06049L1.36926 0.43018C1.30926 0.367368 1.21926 0.342055 1.13582 0.364555C1.05145 0.386118 0.985825 0.451743 0.964263 0.536118C0.941762 0.619555 0.967075 0.709555 1.02989 0.769555L5.82989 5.56956C5.87583 5.61549 5.93864 5.64081 6.00333 5.63987Z" fill="#E4B564"/>
</svg>
