<svg width="71" height="67" viewBox="0 0 71 67" fill="none" xmlns="http://www.w3.org/2000/svg">
<path d="M8.54688 0.171875C4.02344 0.171875 0.34375 3.85273 0.34375 8.375V9.54688V10.7188V52.9062V54.0781C0.34375 58.0531 3.18762 61.3745 6.94699 62.121C8.26183 65.039 11.166 66.9688 14.4062 66.9688H67.1406C69.0789 66.9688 70.6562 65.3914 70.6562 63.4531V21.2656C70.6562 19.3273 69.0789 17.75 67.1406 17.75H65.9688V16.5781C65.9688 14.6398 64.3914 13.0625 62.4531 13.0625H16.75V8.375C16.75 3.85273 13.0703 0.171875 8.54688 0.171875ZM8.54688 2.51562C11.7777 2.51562 14.4062 5.14414 14.4062 8.375V47.1773C12.9156 45.6527 10.8414 44.7031 8.54688 44.7031C6.25234 44.7031 4.17812 45.6527 2.6875 47.1773V10.7188V9.54688V8.375C2.6875 5.14414 5.31602 2.51562 8.54688 2.51562ZM16.75 15.4062H62.4531C63.0988 15.4062 63.625 15.9312 63.625 16.5781V58.7656C63.625 59.4125 63.0988 59.9375 62.4531 59.9375H8.54688C5.31602 59.9375 2.6875 57.309 2.6875 54.0781V52.9062C2.6875 49.6754 5.31602 47.0469 8.54688 47.0469C11.7777 47.0469 14.4062 49.6754 14.4062 52.9062V54.0781C14.4062 54.7262 14.9312 55.25 15.5781 55.25C16.225 55.25 16.75 54.7262 16.75 54.0781V15.4062ZM57.7656 18.9219C57.1188 18.9219 56.5938 19.4457 56.5938 20.0938C56.5938 20.7418 57.1188 21.2656 57.7656 21.2656H60.1094C60.7562 21.2656 61.2812 20.7418 61.2812 20.0938C61.2812 19.4457 60.7562 18.9219 60.1094 18.9219H57.7656ZM65.9688 20.0938H67.1406C67.7863 20.0938 68.3125 20.6187 68.3125 21.2656V63.4531C68.3125 64.1 67.7863 64.625 67.1406 64.625H14.4062C12.5324 64.625 10.8108 63.7273 9.72333 62.2812H62.4531C64.3914 62.2812 65.9688 60.7039 65.9688 58.7656V20.0938ZM41.3594 24.7812C40.7125 24.7812 40.1875 25.3051 40.1875 25.9531C40.1875 26.6012 40.7125 27.125 41.3594 27.125H45.5616L35.5 37.1866L31.6411 33.3277C31.1828 32.8695 30.4422 32.8695 29.9839 33.3277L21.7808 41.5308C21.3226 41.989 21.3226 42.7297 21.7808 43.1879C22.0093 43.4164 22.3094 43.5312 22.6094 43.5312C22.9094 43.5312 23.2094 43.4164 23.4379 43.1879L30.8125 35.8134L34.6714 39.6723C35.1297 40.1305 35.8703 40.1305 36.3286 39.6723L47.2188 28.7821V32.9844C47.2188 33.6324 47.7438 34.1562 48.3906 34.1562C49.0375 34.1562 49.5625 33.6324 49.5625 32.9844V25.9531C49.5625 25.9379 49.5533 25.9249 49.5533 25.9096C49.5487 25.7725 49.5283 25.6358 49.4732 25.5045C49.4732 25.5033 49.4721 25.5011 49.4709 25.4999C49.4663 25.4894 49.4573 25.483 49.4526 25.4725C49.3999 25.3553 49.3287 25.2526 49.2444 25.1612C49.2162 25.1307 49.1856 25.108 49.1551 25.0811C49.0801 25.0155 49.0004 24.9608 48.9125 24.9163C48.875 24.8975 48.8402 24.8789 48.8003 24.8636C48.6702 24.8156 48.5348 24.7812 48.3906 24.7812H41.3594ZM57.7656 24.7812C57.1188 24.7812 56.5938 25.3051 56.5938 25.9531C56.5938 26.6012 57.1188 27.125 57.7656 27.125H60.1094C60.7562 27.125 61.2812 26.6012 61.2812 25.9531C61.2812 25.3051 60.7562 24.7812 60.1094 24.7812H57.7656ZM57.7656 30.6406C57.1188 30.6406 56.5938 31.1645 56.5938 31.8125C56.5938 32.4605 57.1188 32.9844 57.7656 32.9844H60.1094C60.7562 32.9844 61.2812 32.4605 61.2812 31.8125C61.2812 31.1645 60.7562 30.6406 60.1094 30.6406H57.7656ZM57.7656 36.5C57.1188 36.5 56.5938 37.0238 56.5938 37.6719C56.5938 38.3199 57.1188 38.8438 57.7656 38.8438H60.1094C60.7562 38.8438 61.2812 38.3199 61.2812 37.6719C61.2812 37.0238 60.7562 36.5 60.1094 36.5H57.7656ZM57.7656 42.3594C57.1188 42.3594 56.5938 42.8832 56.5938 43.5312C56.5938 44.1793 57.1188 44.7031 57.7656 44.7031H60.1094C60.7562 44.7031 61.2812 44.1793 61.2812 43.5312C61.2812 42.8832 60.7562 42.3594 60.1094 42.3594H57.7656ZM20.2656 45.875C19.6187 45.875 19.0938 46.3988 19.0938 47.0469C19.0938 47.6949 19.6187 48.2188 20.2656 48.2188H50.7344C51.3812 48.2188 51.9062 47.6949 51.9062 47.0469C51.9062 46.3988 51.3812 45.875 50.7344 45.875H20.2656ZM57.7656 48.2188C57.1188 48.2188 56.5938 48.7426 56.5938 49.3906C56.5938 50.0387 57.1188 50.5625 57.7656 50.5625H60.1094C60.7562 50.5625 61.2812 50.0387 61.2812 49.3906C61.2812 48.7426 60.7562 48.2188 60.1094 48.2188H57.7656ZM57.7656 54.0781C57.1188 54.0781 56.5938 54.602 56.5938 55.25C56.5938 55.898 57.1188 56.4219 57.7656 56.4219H60.1094C60.7562 56.4219 61.2812 55.898 61.2812 55.25C61.2812 54.602 60.7562 54.0781 60.1094 54.0781H57.7656Z" fill="#E4B564"/>
</svg>
