<svg width="64" height="64" viewBox="0 0 64 64" fill="none" xmlns="http://www.w3.org/2000/svg">
<path d="M1 0C0.448 0 0 0.447 0 1V63C0 63.553 0.448 64 1 64H63C63.553 64 64 63.553 64 63V1C64 0.447 63.553 0 63 0H1ZM2 2H62V62H2V2ZM7.5 14C7.224 14 7 14.224 7 14.5V19.5C7 19.776 7.224 20 7.5 20H56.5C56.776 20 57 19.776 57 19.5V14.5C57 14.224 56.776 14 56.5 14H52.5C52.224 14 52 14.224 52 14.5C52 14.776 52.224 15 52.5 15H56V19H8V15H43.5C43.776 15 44 14.776 44 14.5C44 14.224 43.776 14 43.5 14H7.5ZM45.5 14C45.224 14 45 14.224 45 14.5C45 14.776 45.224 15 45.5 15H49.5C49.776 15 50 14.776 50 14.5C50 14.224 49.776 14 49.5 14H45.5ZM7.5 24C7.224 24 7 24.224 7 24.5V29.5C7 29.776 7.224 30 7.5 30H51.5C51.776 30 52 29.776 52 29.5V24.5C52 24.224 51.776 24 51.5 24H19.5C19.224 24 19 24.224 19 24.5C19 24.776 19.224 25 19.5 25H51V29H8V25H14.5C14.776 25 15 24.776 15 24.5C15 24.224 14.776 24 14.5 24H7.5ZM7.5 34C7.224 34 7 34.224 7 34.5V39.5C7 39.776 7.224 40 7.5 40H31.5C31.776 40 32 39.776 32 39.5C32 39.224 31.776 39 31.5 39H8V35H45V39H39.5C39.224 39 39 39.224 39 39.5C39 39.776 39.224 40 39.5 40H45.5C45.776 40 46 39.776 46 39.5V34.5C46 34.224 45.776 34 45.5 34H7.5ZM33.5 39C33.224 39 33 39.224 33 39.5C33 39.776 33.224 40 33.5 40H36.5C36.776 40 37 39.776 37 39.5C37 39.224 36.776 39 36.5 39H33.5ZM7.5 44C7.224 44 7 44.224 7 44.5V49.5C7 49.776 7.224 50 7.5 50H15.5C15.776 50 16 49.776 16 49.5C16 49.224 15.776 49 15.5 49H8V45H54V49H21.5C21.224 49 21 49.224 21 49.5C21 49.776 21.224 50 21.5 50H54.5C54.776 50 55 49.776 55 49.5V44.5C55 44.224 54.776 44 54.5 44H7.5Z" fill="#E4B564"/>
</svg>
