<svg width="61" height="61" viewBox="0 0 61 61" fill="none" xmlns="http://www.w3.org/2000/svg">
<path d="M2.375 0.03125C1.08242 0.03125 0.03125 1.08242 0.03125 2.375V58.625C0.03125 59.9176 1.08242 60.9688 2.375 60.9688H58.625C59.9176 60.9688 60.9688 59.9176 60.9688 58.625V2.375C60.9688 1.08242 59.9176 0.03125 58.625 0.03125H2.375ZM2.375 2.375H58.625L58.6273 58.625H2.375V2.375ZM9.40625 9.40625C8.11367 9.40625 7.0625 10.4574 7.0625 11.75V21.125C7.0625 22.4176 8.11367 23.4688 9.40625 23.4688H18.7812C20.0738 23.4688 21.125 22.4176 21.125 21.125V17.7055C21.125 17.0586 20.6 16.5336 19.9531 16.5336C19.3062 16.5336 18.7812 17.0586 18.7812 17.7055V21.125H9.40625V11.75H16.4375C17.0844 11.75 17.6094 11.225 17.6094 10.5781C17.6094 9.93125 17.0844 9.40625 16.4375 9.40625H9.40625ZM21.7109 9.99219C21.4112 9.99219 21.1115 10.1064 20.8824 10.3355L14.0938 17.1241L12.5786 15.6089C12.1203 15.1507 11.3797 15.1507 10.9214 15.6089C10.4632 16.0672 10.4632 16.8078 10.9214 17.2661L13.2652 19.6098C13.4937 19.8383 13.7937 19.9531 14.0938 19.9531C14.3938 19.9531 14.6938 19.8383 14.9223 19.6098L22.5395 11.9926C22.9977 11.5344 22.9977 10.7937 22.5395 10.3355C22.3104 10.1064 22.0106 9.99219 21.7109 9.99219ZM26.9844 11.75C26.3375 11.75 25.8125 12.275 25.8125 12.9219C25.8125 13.5688 26.3375 14.0938 26.9844 14.0938H52.7656C53.4125 14.0938 53.9375 13.5688 53.9375 12.9219C53.9375 12.275 53.4125 11.75 52.7656 11.75H26.9844ZM26.9844 16.4375C26.3375 16.4375 25.8125 16.9625 25.8125 17.6094C25.8125 18.2563 26.3375 18.7812 26.9844 18.7812H45.7344C46.3812 18.7812 46.9062 18.2563 46.9062 17.6094C46.9062 16.9625 46.3812 16.4375 45.7344 16.4375H26.9844ZM9.40625 30.5C8.11367 30.5 7.0625 31.5512 7.0625 32.8438V42.2188C7.0625 43.5113 8.11367 44.5625 9.40625 44.5625H18.7812C20.0738 44.5625 21.125 43.5113 21.125 42.2188V38.7993C21.125 38.1524 20.6 37.6274 19.9531 37.6274C19.3062 37.6274 18.7812 38.1524 18.7812 38.7993V42.2188H9.40625V32.8438H16.4375C17.0844 32.8438 17.6094 32.3187 17.6094 31.6719C17.6094 31.025 17.0844 30.5 16.4375 30.5H9.40625ZM21.7109 31.0859C21.4112 31.0859 21.1115 31.2002 20.8824 31.4293L14.0938 38.2179L12.5786 36.7027C12.1203 36.2445 11.3797 36.2445 10.9214 36.7027C10.4632 37.1609 10.4632 37.9016 10.9214 38.3598L13.2652 40.7036C13.4937 40.9321 13.7937 41.0469 14.0938 41.0469C14.3938 41.0469 14.6938 40.9321 14.9223 40.7036L22.5395 33.0864C22.9977 32.6282 22.9977 31.8875 22.5395 31.4293C22.3104 31.2002 22.0106 31.0859 21.7109 31.0859ZM26.9844 32.8438C26.3375 32.8438 25.8125 33.3688 25.8125 34.0156C25.8125 34.6625 26.3375 35.1875 26.9844 35.1875H38.7031C39.35 35.1875 39.875 34.6625 39.875 34.0156C39.875 33.3688 39.35 32.8438 38.7031 32.8438H26.9844ZM43.3906 32.8438C42.7438 32.8438 42.2188 33.3688 42.2188 34.0156C42.2188 34.6625 42.7438 35.1875 43.3906 35.1875H52.7656C53.4125 35.1875 53.9375 34.6625 53.9375 34.0156C53.9375 33.3688 53.4125 32.8438 52.7656 32.8438H43.3906ZM26.9844 37.5312C26.3375 37.5312 25.8125 38.0563 25.8125 38.7031C25.8125 39.35 26.3375 39.875 26.9844 39.875H36.3594C37.0062 39.875 37.5312 39.35 37.5312 38.7031C37.5312 38.0563 37.0062 37.5312 36.3594 37.5312H26.9844ZM7.0625 51.5938C6.41563 51.5938 5.89062 52.1188 5.89062 52.7656V55.1094C5.89062 55.7562 6.41563 56.2812 7.0625 56.2812C7.70937 56.2812 8.23438 55.7562 8.23438 55.1094V52.7656C8.23438 52.1188 7.70937 51.5938 7.0625 51.5938ZM12.9219 51.5938C12.275 51.5938 11.75 52.1188 11.75 52.7656V55.1094C11.75 55.7562 12.275 56.2812 12.9219 56.2812C13.5688 56.2812 14.0938 55.7562 14.0938 55.1094V52.7656C14.0938 52.1188 13.5688 51.5938 12.9219 51.5938ZM18.7812 51.5938C18.1344 51.5938 17.6094 52.1188 17.6094 52.7656V55.1094C17.6094 55.7562 18.1344 56.2812 18.7812 56.2812C19.4281 56.2812 19.9531 55.7562 19.9531 55.1094V52.7656C19.9531 52.1188 19.4281 51.5938 18.7812 51.5938ZM24.6406 51.5938C23.9937 51.5938 23.4688 52.1188 23.4688 52.7656V55.1094C23.4688 55.7562 23.9937 56.2812 24.6406 56.2812C25.2875 56.2812 25.8125 55.7562 25.8125 55.1094V52.7656C25.8125 52.1188 25.2875 51.5938 24.6406 51.5938ZM30.5 51.5938C29.8531 51.5938 29.3281 52.1188 29.3281 52.7656V55.1094C29.3281 55.7562 29.8531 56.2812 30.5 56.2812C31.1469 56.2812 31.6719 55.7562 31.6719 55.1094V52.7656C31.6719 52.1188 31.1469 51.5938 30.5 51.5938ZM36.3594 51.5938C35.7125 51.5938 35.1875 52.1188 35.1875 52.7656V55.1094C35.1875 55.7562 35.7125 56.2812 36.3594 56.2812C37.0062 56.2812 37.5312 55.7562 37.5312 55.1094V52.7656C37.5312 52.1188 37.0062 51.5938 36.3594 51.5938ZM42.2188 51.5938C41.5719 51.5938 41.0469 52.1188 41.0469 52.7656V55.1094C41.0469 55.7562 41.5719 56.2812 42.2188 56.2812C42.8656 56.2812 43.3906 55.7562 43.3906 55.1094V52.7656C43.3906 52.1188 42.8656 51.5938 42.2188 51.5938ZM48.0781 51.5938C47.4313 51.5938 46.9062 52.1188 46.9062 52.7656V55.1094C46.9062 55.7562 47.4313 56.2812 48.0781 56.2812C48.725 56.2812 49.25 55.7562 49.25 55.1094V52.7656C49.25 52.1188 48.725 51.5938 48.0781 51.5938ZM53.9375 51.5938C53.2906 51.5938 52.7656 52.1188 52.7656 52.7656V55.1094C52.7656 55.7562 53.2906 56.2812 53.9375 56.2812C54.5844 56.2812 55.1094 55.7562 55.1094 55.1094V52.7656C55.1094 52.1188 54.5844 51.5938 53.9375 51.5938Z" fill="#E4B564"/>
</svg>
