<svg width="10" height="14" viewBox="0 0 10 14" fill="none" xmlns="http://www.w3.org/2000/svg">
<path d="M5 0C2.24609 0 0 2.24609 0 5C0 5.77344 0.316406 6.62109 0.753906 7.51562C1.19141 8.41406 1.76172 9.35156 2.33594 10.207C3.47656 11.9219 4.61328 13.3164 4.61328 13.3164L5 13.793L5.38672 13.3164C5.38672 13.3164 6.52344 11.9219 7.66797 10.207C8.23828 9.35156 8.80859 8.41406 9.24609 7.51562C9.68359 6.62109 10 5.77344 10 5C10 2.24609 7.75391 0 5 0ZM5 1C7.21484 1 9 2.78516 9 5C9 5.46875 8.75391 6.24609 8.34766 7.07812C7.94141 7.91406 7.38672 8.82031 6.83594 9.65625C5.91797 11.0312 5.29297 11.7891 5 12.1562C4.70703 11.7891 4.08203 11.0312 3.16406 9.65625C2.61328 8.82031 2.05859 7.91406 1.65234 7.07812C1.24609 6.24609 1 5.46875 1 5C1 2.78516 2.78516 1 5 1ZM5 4C4.44922 4 4 4.44922 4 5C4 5.55078 4.44922 6 5 6C5.55078 6 6 5.55078 6 5C6 4.44922 5.55078 4 5 4Z" fill="#E4B564"/>
</svg>
