<svg width="71" height="64" viewBox="0 0 71 64" fill="none" xmlns="http://www.w3.org/2000/svg">
<path d="M3.85938 0.6875C1.92303 0.6875 0.34375 2.26678 0.34375 4.20312V13.5781C0.34375 14.4799 0.696228 15.2993 1.25928 15.9219C0.696228 16.5444 0.34375 17.3638 0.34375 18.2656V29.9844C0.34375 30.8862 0.696228 31.7056 1.25928 32.3281C0.696228 32.9507 0.34375 33.7701 0.34375 34.6719V46.3906C0.34375 47.2924 0.696228 48.1118 1.25928 48.7344C0.696228 49.3569 0.34375 50.1763 0.34375 51.0781V60.4531C0.34375 62.3895 1.92303 63.9688 3.85938 63.9688H20.2656C21.1674 63.9688 21.9868 63.6163 22.6094 63.0532C23.2319 63.6163 24.0513 63.9688 24.9531 63.9688H43.7031C44.6049 63.9688 45.4243 63.6163 46.0469 63.0532C46.6694 63.6163 47.4888 63.9688 48.3906 63.9688H67.1406C69.077 63.9688 70.6562 62.3895 70.6562 60.4531V51.0781C70.6562 50.1763 70.3038 49.3569 69.7407 48.7344C70.3038 48.1118 70.6562 47.2924 70.6562 46.3906V34.6719C70.6562 33.7701 70.3038 32.9507 69.7407 32.3281C70.3038 31.7056 70.6562 30.8862 70.6562 29.9844V18.2656C70.6562 17.3638 70.3038 16.5444 69.7407 15.9219C70.3038 15.2993 70.6562 14.4799 70.6562 13.5781V4.20312C70.6562 2.26678 69.077 0.6875 67.1406 0.6875H61.2812C60.3795 0.6875 59.5601 1.03998 58.9375 1.60303C58.3149 1.03998 57.4955 0.6875 56.5938 0.6875H37.8438C36.942 0.6875 36.1226 1.03998 35.5 1.60303C34.8774 1.03998 34.058 0.6875 33.1562 0.6875H14.4062C13.5045 0.6875 12.6851 1.03998 12.0625 1.60303C11.4399 1.03998 10.6205 0.6875 9.71875 0.6875H3.85938ZM3.85938 3.03125H9.71875C10.3642 3.03125 10.8906 3.55768 10.8906 4.20312V13.5781C10.8906 14.2236 10.3642 14.75 9.71875 14.75H3.85938C3.21393 14.75 2.6875 14.2236 2.6875 13.5781V4.20312C2.6875 3.55768 3.21393 3.03125 3.85938 3.03125ZM14.4062 3.03125H33.1562C33.8017 3.03125 34.3281 3.55768 34.3281 4.20312V13.5781C34.3281 14.2236 33.8017 14.75 33.1562 14.75H14.4062C13.7608 14.75 13.2344 14.2236 13.2344 13.5781V4.20312C13.2344 3.55768 13.7608 3.03125 14.4062 3.03125ZM37.8438 3.03125H56.5938C57.2392 3.03125 57.7656 3.55768 57.7656 4.20312V13.5781C57.7656 14.2236 57.2392 14.75 56.5938 14.75H37.8438C37.1983 14.75 36.6719 14.2236 36.6719 13.5781V4.20312C36.6719 3.55768 37.1983 3.03125 37.8438 3.03125ZM61.2812 3.03125H67.1406C67.7861 3.03125 68.3125 3.55768 68.3125 4.20312V13.5781C68.3125 14.2236 67.7861 14.75 67.1406 14.75H61.2812C60.6358 14.75 60.1094 14.2236 60.1094 13.5781V4.20312C60.1094 3.55768 60.6358 3.03125 61.2812 3.03125ZM3.85938 17.0938H20.2656C20.9111 17.0938 21.4375 17.6202 21.4375 18.2656V29.9844C21.4375 30.6298 20.9111 31.1562 20.2656 31.1562H3.85938C3.21393 31.1562 2.6875 30.6298 2.6875 29.9844V18.2656C2.6875 17.6202 3.21393 17.0938 3.85938 17.0938ZM24.9531 17.0938H43.7031C44.3486 17.0938 44.875 17.6202 44.875 18.2656V29.9844C44.875 30.6298 44.3486 31.1562 43.7031 31.1562H24.9531C24.3077 31.1562 23.7812 30.6298 23.7812 29.9844V18.2656C23.7812 17.6202 24.3077 17.0938 24.9531 17.0938ZM48.3906 17.0938H67.1406C67.7861 17.0938 68.3125 17.6202 68.3125 18.2656V29.9844C68.3125 30.6298 67.7861 31.1562 67.1406 31.1562H48.3906C47.7452 31.1562 47.2188 30.6298 47.2188 29.9844V18.2656C47.2188 17.6202 47.7452 17.0938 48.3906 17.0938ZM3.85938 33.5H9.71875C10.3642 33.5 10.8906 34.0264 10.8906 34.6719V46.3906C10.8906 47.0361 10.3642 47.5625 9.71875 47.5625H3.85938C3.21393 47.5625 2.6875 47.0361 2.6875 46.3906V34.6719C2.6875 34.0264 3.21393 33.5 3.85938 33.5ZM14.4062 33.5H33.1562C33.8017 33.5 34.3281 34.0264 34.3281 34.6719V46.3906C34.3281 47.0361 33.8017 47.5625 33.1562 47.5625H14.4062C13.7608 47.5625 13.2344 47.0361 13.2344 46.3906V34.6719C13.2344 34.0264 13.7608 33.5 14.4062 33.5ZM37.8438 33.5H56.5938C57.2392 33.5 57.7656 34.0264 57.7656 34.6719V46.3906C57.7656 47.0361 57.2392 47.5625 56.5938 47.5625H37.8438C37.1983 47.5625 36.6719 47.0361 36.6719 46.3906V34.6719C36.6719 34.0264 37.1983 33.5 37.8438 33.5ZM61.2812 33.5H67.1406C67.7861 33.5 68.3125 34.0264 68.3125 34.6719V46.3906C68.3125 47.0361 67.7861 47.5625 67.1406 47.5625H61.2812C60.6358 47.5625 60.1094 47.0361 60.1094 46.3906V34.6719C60.1094 34.0264 60.6358 33.5 61.2812 33.5ZM3.85938 49.9062H20.2656C20.9111 49.9062 21.4375 50.4327 21.4375 51.0781V60.4531C21.4375 61.0986 20.9111 61.625 20.2656 61.625H3.85938C3.21393 61.625 2.6875 61.0986 2.6875 60.4531V51.0781C2.6875 50.4327 3.21393 49.9062 3.85938 49.9062ZM24.9531 49.9062H43.7031C44.3486 49.9062 44.875 50.4327 44.875 51.0781V60.4531C44.875 61.0986 44.3486 61.625 43.7031 61.625H24.9531C24.3077 61.625 23.7812 61.0986 23.7812 60.4531V51.0781C23.7812 50.4327 24.3077 49.9062 24.9531 49.9062ZM48.3906 49.9062H67.1406C67.7861 49.9062 68.3125 50.4327 68.3125 51.0781V60.4531C68.3125 61.0986 67.7861 61.625 67.1406 61.625H48.3906C47.7452 61.625 47.2188 61.0986 47.2188 60.4531V51.0781C47.2188 50.4327 47.7452 49.9062 48.3906 49.9062ZM6.20312 54.5938C5.5531 54.5938 5.03125 55.1156 5.03125 55.7656V58.1094C5.03125 58.7594 5.5531 59.2812 6.20312 59.2812C6.85315 59.2812 7.375 58.7594 7.375 58.1094V55.7656C7.375 55.1156 6.85315 54.5938 6.20312 54.5938ZM12.0625 54.5938C11.4125 54.5938 10.8906 55.1156 10.8906 55.7656V58.1094C10.8906 58.7594 11.4125 59.2812 12.0625 59.2812C12.7125 59.2812 13.2344 58.7594 13.2344 58.1094V55.7656C13.2344 55.1156 12.7125 54.5938 12.0625 54.5938ZM17.9219 54.5938C17.2719 54.5938 16.75 55.1156 16.75 55.7656V58.1094C16.75 58.7594 17.2719 59.2812 17.9219 59.2812C18.5719 59.2812 19.0938 58.7594 19.0938 58.1094V55.7656C19.0938 55.1156 18.5719 54.5938 17.9219 54.5938ZM28.4688 54.5938C27.8187 54.5938 27.2969 55.1156 27.2969 55.7656V58.1094C27.2969 58.7594 27.8187 59.2812 28.4688 59.2812C29.1188 59.2812 29.6406 58.7594 29.6406 58.1094V55.7656C29.6406 55.1156 29.1188 54.5938 28.4688 54.5938ZM34.3281 54.5938C33.6781 54.5938 33.1562 55.1156 33.1562 55.7656V58.1094C33.1562 58.7594 33.6781 59.2812 34.3281 59.2812C34.9781 59.2812 35.5 58.7594 35.5 58.1094V55.7656C35.5 55.1156 34.9781 54.5938 34.3281 54.5938ZM40.1875 54.5938C39.5375 54.5938 39.0156 55.1156 39.0156 55.7656V58.1094C39.0156 58.7594 39.5375 59.2812 40.1875 59.2812C40.8375 59.2812 41.3594 58.7594 41.3594 58.1094V55.7656C41.3594 55.1156 40.8375 54.5938 40.1875 54.5938ZM51.9062 54.5938C51.2562 54.5938 50.7344 55.1156 50.7344 55.7656V58.1094C50.7344 58.7594 51.2562 59.2812 51.9062 59.2812C52.5563 59.2812 53.0781 58.7594 53.0781 58.1094V55.7656C53.0781 55.1156 52.5563 54.5938 51.9062 54.5938ZM57.7656 54.5938C57.1156 54.5938 56.5938 55.1156 56.5938 55.7656V58.1094C56.5938 58.7594 57.1156 59.2812 57.7656 59.2812C58.4156 59.2812 58.9375 58.7594 58.9375 58.1094V55.7656C58.9375 55.1156 58.4156 54.5938 57.7656 54.5938ZM63.625 54.5938C62.975 54.5938 62.4531 55.1156 62.4531 55.7656V58.1094C62.4531 58.7594 62.975 59.2812 63.625 59.2812C64.275 59.2812 64.7969 58.7594 64.7969 58.1094V55.7656C64.7969 55.1156 64.275 54.5938 63.625 54.5938Z" fill="#E4B564"/>
</svg>
