<svg width="61" height="71" viewBox="0 0 61 71" fill="none" xmlns="http://www.w3.org/2000/svg">
<path d="M30.3582 0.34375C29.5845 0.34375 28.8109 0.600098 28.1609 1.11737L26.5221 2.43115C21.0747 6.78906 14.5149 9.33881 7.55694 9.80115L3.31347 10.085C1.38629 10.2131 -0.0831336 11.884 0.0404629 13.8066L0.846127 27.3518C1.76623 40.1097 7.58898 51.7552 17.2432 60.146L28.051 69.553C28.7102 70.1207 29.5342 70.4045 30.3582 70.4045C31.1867 70.4045 32.0107 70.1207 32.6653 69.553L43.4822 60.146C53.1319 51.7552 58.9546 40.1051 59.8748 27.3335L60.6804 13.8112C60.7994 11.884 59.33 10.2131 57.4028 10.085L53.1639 9.80115C46.2014 9.33881 39.6416 6.78906 34.1942 2.43115L32.5554 1.11737C31.91 0.600098 31.1318 0.34375 30.3582 0.34375ZM30.3582 2.6875C30.6191 2.6875 30.8754 2.77448 31.0906 2.94842L32.7294 4.26221C38.5567 8.92224 45.5696 11.6459 53.0083 12.1403L57.2518 12.4241C57.8926 12.4653 58.3824 13.0238 58.3412 13.6693L57.5356 27.1779C56.7024 38.7227 51.6442 49.3062 43.2488 57.1843V57.1064C43.2488 56.461 42.7269 55.9346 42.0769 55.9346C41.4315 55.9346 40.905 56.461 40.905 57.1064V59.2808L31.1272 67.7815C30.6923 68.1614 30.0286 68.1614 29.5891 67.7815L19.8113 59.2808V57.1064C19.8113 56.461 19.2894 55.9346 18.6394 55.9346C17.994 55.9346 17.4675 56.461 17.4675 57.1064V57.1843C9.07672 49.3062 4.01385 38.7272 3.18072 27.1916L2.37506 13.6647C2.33844 13.0238 2.82824 12.4653 3.46911 12.4241L7.708 12.1403C15.1512 11.6459 22.1642 8.92224 27.9915 4.26221L29.6257 2.94842C29.8455 2.77448 30.1018 2.6875 30.3582 2.6875ZM30.3582 6.04749C29.8912 6.04749 29.4152 6.18481 29.0169 6.46863L26.0048 8.57434C20.9191 12.1312 14.9636 14.2277 8.77917 14.6443L8.01471 14.6946C7.36926 14.7358 6.87945 15.2943 6.92065 15.9398C6.96185 16.5577 7.47912 17.0338 8.09253 17.0338C8.11999 17.0338 8.14288 17.0338 8.17035 17.0292L8.93023 16.9835C15.5449 16.5394 21.9124 14.2964 27.3506 10.4924L30.3582 8.38666L33.3702 10.4924C36.6158 12.7675 40.1955 14.4886 44.0087 15.601C44.6312 15.7841 45.2812 15.4271 45.4598 14.8091C45.6429 14.1865 45.2858 13.5365 44.6678 13.3534C41.1019 12.3097 37.7556 10.7029 34.7115 8.57434L31.704 6.46863C31.3011 6.18481 30.8296 6.04749 30.3582 6.04749ZM49.2684 14.3559C48.6229 14.2552 48.0324 14.7084 47.9363 15.3447C47.8447 15.9855 48.2842 16.5852 48.925 16.6768C49.868 16.8141 50.8293 16.9194 51.7861 16.9835L52.4773 17.0292C52.5048 17.0292 52.5322 17.0292 52.5597 17.0292C53.1685 17.0292 53.6858 16.5577 53.7224 15.9398C53.7682 15.2897 53.2784 14.7313 52.6375 14.6855L51.9417 14.6443C51.0491 14.5802 50.1473 14.4886 49.2684 14.3559ZM45.5925 24.2939C45.2904 24.2939 44.9929 24.4084 44.764 24.6418L28.0144 41.3868L19.4725 32.8404C19.0102 32.3826 18.2732 32.3826 17.8108 32.8404C17.3531 33.2982 17.3531 34.0397 17.8108 34.4975L27.1858 43.8725C27.4147 44.1014 27.7169 44.2158 28.0144 44.2158C28.3165 44.2158 28.6186 44.1014 28.8475 43.8725L46.4257 26.2944C46.8834 25.8366 46.8834 25.095 46.4257 24.6373C46.1922 24.4084 45.8946 24.2939 45.5925 24.2939ZM24.4988 55.9346C23.8533 55.9346 23.3269 56.461 23.3269 57.1064V59.4502C23.3269 60.1002 23.8533 60.6221 24.4988 60.6221C25.1488 60.6221 25.6707 60.1002 25.6707 59.4502V57.1064C25.6707 56.461 25.1488 55.9346 24.4988 55.9346ZM30.3582 55.9346C29.7127 55.9346 29.1863 56.461 29.1863 57.1064V59.4502C29.1863 60.1002 29.7127 60.6221 30.3582 60.6221C31.0082 60.6221 31.53 60.1002 31.53 59.4502V57.1064C31.53 56.461 31.0082 55.9346 30.3582 55.9346ZM36.2175 55.9346C35.5721 55.9346 35.0457 56.461 35.0457 57.1064V59.4502C35.0457 60.1002 35.5721 60.6221 36.2175 60.6221C36.8675 60.6221 37.3894 60.1002 37.3894 59.4502V57.1064C37.3894 56.461 36.8675 55.9346 36.2175 55.9346Z" fill="#E4B564"/>
</svg>
