<svg width="56" height="57" viewBox="0 0 56 57" fill="none" xmlns="http://www.w3.org/2000/svg">
<path d="M26.0364 0.736816C24.0052 0.736816 22.2677 1.75733 21.0598 3.21826C20.6021 3.0947 20.1476 2.95679 19.6294 2.95679C16.6944 2.95679 14.3551 5.15215 13.8667 7.96411C13.0783 7.56586 12.2274 7.2771 11.281 7.2771C7.99632 7.2771 5.31836 9.97576 5.31836 13.2739C5.31836 13.5361 5.38719 13.7535 5.42261 13.9951C2.91606 14.702 1.03223 16.918 1.03223 19.6553C1.03223 22.7515 3.41795 25.2339 6.42407 25.5376C5.83984 26.4689 5.45365 27.5024 5.36792 28.6633C2.8417 29.3589 0.943359 31.5998 0.943359 34.3525C0.943359 37.6513 3.62103 40.3511 6.90771 40.3511C7.17713 40.3511 7.4032 40.2765 7.65283 40.2383C8.3714 42.7281 10.5594 44.603 13.2668 44.603C15.1601 44.603 16.7519 43.6139 17.8401 42.2275C18.383 42.3578 18.9294 42.4941 19.5405 42.4941C20.9937 42.4941 22.3377 42.0601 23.5139 41.3799C23.811 41.4853 24.114 41.5812 24.4231 41.6585C24.4168 44.395 24.0917 46.3083 23.6182 47.5579C23.1021 48.9197 22.4658 49.5425 21.8579 49.8975C21.0969 50.3419 20.0094 50.4158 18.011 51.5039C16.0194 52.5881 14.6252 53.8991 13.7505 54.8501C13.6721 54.9346 13.6112 55.0338 13.5713 55.1419C13.5313 55.25 13.5131 55.3649 13.5177 55.4801C13.5223 55.5952 13.5496 55.7083 13.598 55.8129C13.6465 55.9175 13.7151 56.0115 13.7999 56.0895C13.8848 56.1675 13.9842 56.2279 14.0925 56.2674C14.2008 56.3068 14.3158 56.3245 14.4309 56.3194C14.5461 56.3143 14.6591 56.2865 14.7634 56.2376C14.8678 56.1887 14.9615 56.1196 15.0391 56.0344C15.8286 55.176 17.0758 54.0053 18.8484 53.0403C20.6265 52.0721 21.5442 52.1082 22.7397 51.4099C23.6946 50.8523 24.6244 49.8389 25.2537 48.1782C25.8247 46.6712 26.1585 44.5886 26.1714 41.7576C27.1559 41.638 28.0521 41.2636 28.8477 40.7493C29.4086 41.2732 30.0641 41.6988 30.8044 41.9336C30.5025 44.4207 30.5648 46.288 30.9019 47.6792C31.2764 49.2252 32 50.233 32.7886 50.8306C34.1799 51.8851 35.436 51.7839 37.2183 53.1873C38.3602 54.0871 39.0953 55.08 39.5305 55.7661C39.5921 55.8632 39.6722 55.9472 39.7663 56.0133C39.8604 56.0794 39.9665 56.1263 40.0787 56.1514C40.1909 56.1764 40.307 56.1792 40.4202 56.1594C40.5335 56.1396 40.6417 56.0977 40.7388 56.0361C40.8358 55.9745 40.9198 55.8944 40.9859 55.8004C41.052 55.7063 41.0989 55.6001 41.124 55.4879C41.1491 55.3757 41.1518 55.2597 41.132 55.1465C41.1123 55.0332 41.0704 54.9249 41.0088 54.8279C40.5062 54.0355 39.6494 52.8732 38.3018 51.8115C36.199 50.1559 34.6741 50.0633 33.8464 49.436C33.3771 49.0806 32.9009 48.5002 32.6023 47.2673C32.332 46.1514 32.2562 44.466 32.5459 42.0977C33.8975 41.9354 35.0131 41.1362 35.7947 40.0845C36.5046 40.3098 37.2265 40.5237 38.0112 40.5237C39.395 40.5237 40.6665 40.1011 41.7761 39.447C41.8093 39.4522 41.8562 39.4536 41.8975 39.459C42.926 41.2547 44.8076 42.5027 47.0125 42.5027C50.2971 42.5027 52.9751 39.8023 52.9751 36.5042C52.9751 34.6539 52.0542 33.075 50.738 31.9736C50.7464 31.9014 50.7522 31.8312 50.7585 31.76C53.2209 31.0195 55.0549 28.8056 55.0549 26.0999C55.0549 23.2548 53.0301 20.9531 50.374 20.3491C49.8445 18.1266 48.127 16.4373 45.8999 15.9485C46.3087 15.1453 46.6074 14.2778 46.6074 13.3098C46.6074 10.0111 43.93 7.31128 40.6448 7.31128C39.4574 7.31128 38.4134 7.75228 37.4866 8.35547C36.5007 6.42248 34.5733 5.052 32.2656 5.052C32.1992 5.052 32.1663 5.06399 32.105 5.06738C31.1676 2.56674 28.8483 0.736816 26.0364 0.736816ZM26.0364 2.48682C28.3118 2.48682 30.1962 4.07216 30.7139 6.20386C30.7648 6.41386 30.8916 6.59761 31.0698 6.71972C31.2481 6.84182 31.4652 6.89366 31.6794 6.86523C31.9341 6.83147 32.125 6.802 32.2656 6.802C34.1842 6.802 35.7731 8.09477 36.2886 9.86621C36.3308 10.0108 36.4096 10.142 36.5174 10.2472C36.6252 10.3524 36.7583 10.428 36.9039 10.4666C37.0495 10.5053 37.2025 10.5058 37.3483 10.4679C37.4941 10.4301 37.6277 10.3553 37.7361 10.2507C38.4971 9.51449 39.5102 9.06128 40.6448 9.06128C42.977 9.06128 44.8574 10.9508 44.8574 13.3098C44.8574 14.3562 44.4705 15.294 43.8372 16.0442C43.7273 16.1742 43.6578 16.3333 43.6371 16.5022C43.6163 16.6711 43.6452 16.8424 43.7203 16.9951C43.7954 17.1478 43.9134 17.2752 44.0598 17.3619C44.2062 17.4486 44.3747 17.4908 44.5447 17.4832C44.7283 17.4749 44.7701 17.4661 44.6711 17.4661C46.8116 17.4661 48.5455 19.0677 48.8223 21.1523C48.8479 21.3449 48.9368 21.5236 49.0751 21.66C49.2135 21.7965 49.3932 21.883 49.5862 21.906C51.6813 22.1572 53.3049 23.9144 53.3049 26.0999C53.3049 28.2117 51.7846 29.9339 49.7964 30.2766C49.634 30.3048 49.4828 30.3784 49.3604 30.4887C49.2379 30.5991 49.1492 30.7418 49.1042 30.9004L48.6326 30.398L48.3301 30.3433L47.6294 30.6953L47.491 31.4678L48.0259 32.0403L48.3301 32.0933L49.0051 31.7549C48.9928 31.8588 48.9925 31.9829 48.9744 32.0779C48.9421 32.2463 48.9601 32.4205 49.026 32.5788C49.092 32.7371 49.203 32.8725 49.3452 32.9683C50.4771 33.7308 51.2251 35.0218 51.2251 36.5042C51.2251 38.862 49.3435 40.7527 47.0125 40.7527C45.2994 40.7527 43.8377 39.7189 43.1775 38.2388C43.1079 38.0822 42.9939 37.9495 42.8496 37.8572C42.7053 37.7648 42.537 37.7169 42.3657 37.7192C42.1442 37.7225 42.0945 37.738 42.2 37.738C42.1359 37.738 41.9815 37.7051 41.7043 37.6834C41.511 37.668 41.318 37.7173 41.1558 37.8235C40.2448 38.4221 39.1743 38.7737 38.0112 38.7737C37.2433 38.7737 36.5153 38.6205 35.8425 38.3447C35.6423 38.2623 35.4186 38.257 35.2146 38.3299C35.0107 38.4028 34.8411 38.5488 34.7385 38.7395C34.2124 39.7196 33.2161 40.3818 32.0417 40.3818C32.0197 40.3818 31.9987 40.3789 31.9768 40.3784C31.9169 40.3634 31.8556 40.3549 31.7939 40.3528C31.7534 40.3517 31.7129 40.3534 31.6726 40.3579C30.8392 40.256 30.1179 39.8149 29.6201 39.1702C29.5486 39.0777 29.4592 39.0006 29.3574 38.9433C29.2556 38.8859 29.1432 38.8496 29.0271 38.8364C28.911 38.8231 28.7934 38.8333 28.6813 38.8663C28.5691 38.8993 28.4648 38.9543 28.3743 39.0283C27.5879 39.6721 26.6209 40.0623 25.5493 40.0623C25.5302 40.0623 25.5119 40.0591 25.4929 40.0588C25.4223 40.0431 25.3499 40.0362 25.2776 40.0383C25.2542 40.0391 25.2308 40.0408 25.2075 40.0435C24.694 40.0032 24.2059 39.8789 23.7498 39.6777C23.6171 39.6195 23.4721 39.5951 23.3278 39.6068C23.1834 39.6184 23.0442 39.6657 22.9226 39.7444C21.9429 40.3762 20.7878 40.7441 19.5405 40.7441C18.9639 40.7441 18.3949 40.6355 17.8162 40.4673C17.6329 40.4139 17.4371 40.4218 17.2588 40.49C17.0804 40.5582 16.9293 40.6829 16.8284 40.845C16.0803 42.0512 14.7763 42.853 13.2668 42.853C11.1752 42.853 9.47888 41.3178 9.14648 39.3018L9.45068 39.148L9.58911 38.3772L9.0542 37.8047L8.75 37.75L8.04932 38.1021L7.9895 38.4336C7.6167 38.5369 7.26238 38.6011 6.90771 38.6011C4.5734 38.6011 2.69336 36.7116 2.69336 34.3525C2.69336 32.2115 4.25384 30.4773 6.28223 30.1707C6.49651 30.1383 6.69117 30.0276 6.82851 29.8599C6.96584 29.6923 7.03608 29.4796 7.02563 29.2632C7.01802 29.1039 7.01196 29.0665 7.01196 29.147C7.01196 27.698 7.60525 26.413 8.55176 25.4641L8.75 25.5L9.45068 25.148L9.58911 24.3772L9.0542 23.8047L8.75 23.75L8.5415 23.8542C8.3569 23.7603 8.14495 23.7349 7.94336 23.7825C7.62161 23.8584 7.30924 23.9038 6.99317 23.9038C4.66089 23.9038 2.78223 22.0143 2.78223 19.6553C2.78223 17.474 4.40276 15.7164 6.49243 15.4631C6.6165 15.448 6.73587 15.4064 6.84253 15.3413C6.94919 15.2761 7.04065 15.1889 7.11077 15.0854C7.18088 14.9819 7.22801 14.8646 7.249 14.7414C7.26998 14.6182 7.26433 14.4919 7.23242 14.3711C7.13162 13.9883 7.06836 13.63 7.06836 13.2739C7.06836 10.9161 8.94994 9.0271 11.281 9.0271C12.3293 9.0271 13.2656 9.42083 14.0137 10.0713C14.1459 10.1858 14.3093 10.2581 14.483 10.2788C14.6566 10.2996 14.8325 10.2678 14.988 10.1876C15.1434 10.1074 15.2712 9.98246 15.3549 9.82892C15.4387 9.67537 15.4745 9.50026 15.4578 9.32617C15.4369 9.11249 15.4167 8.99637 15.4167 8.95532C15.4167 6.59749 17.2983 4.70679 19.6294 4.70679C20.1003 4.70679 20.5566 4.80417 21.0171 4.96655C21.1999 5.031 21.399 5.0329 21.583 4.97197C21.7671 4.91103 21.9257 4.79071 22.0339 4.62988C22.9056 3.33423 24.3668 2.48682 26.0364 2.48682ZM22.6355 8.28369L21.9348 8.63574L21.7964 9.4065L22.333 9.979L22.6355 10.0337L23.3362 9.68335L23.4746 8.91089L22.9397 8.33838L22.6355 8.28369ZM26.0347 8.36914L25.334 8.71948L25.1956 9.49194L25.7322 10.0645L26.0347 10.1191L26.7354 9.76709L26.8738 8.99634L26.3389 8.42383L26.0347 8.36914ZM20.125 10.625L19.4243 10.9771L19.2859 11.7478L19.8208 12.3203L20.125 12.375L20.8257 12.023L20.9641 11.2522L20.4292 10.6797L20.125 10.625ZM28.5281 10.7378L27.8274 11.0881L27.689 11.8606L28.2239 12.4331L28.5281 12.4878L29.2288 12.1357L29.3672 11.365L28.8306 10.7908L28.5281 10.7378ZM40.925 15.7759L40.2244 16.1262L40.0859 16.8987L40.6208 17.4712L40.925 17.5259L41.6257 17.1738L41.7642 16.4031L41.2292 15.8289L40.925 15.7759ZM37.6438 16.9124L36.9431 17.2627L36.8047 18.0352L37.3413 18.6077L37.6438 18.6624L38.3462 18.3103L38.4829 17.5396L37.948 16.9653L37.6438 16.9124ZM27.8086 18.7376L27.1079 19.0879L26.9695 19.8604L27.5044 20.4329L27.8086 20.4876L28.5093 20.1355L28.6477 19.3647L28.1128 18.7905L27.8086 18.7376ZM31.1667 19.0879L30.4661 19.4399L30.3276 20.2124L30.8625 20.7849L31.1667 20.8379L31.8674 20.4876L32.0059 19.7151L31.4709 19.1426L31.1667 19.0879ZM35.0239 19.2024L34.3215 19.5544L34.1848 20.3252L34.7197 20.8977L35.0239 20.9524L35.7246 20.6021L35.863 19.8296L35.3264 19.2571L35.0239 19.2024ZM25.375 21.125L24.6743 21.4771L24.5359 22.2478L25.0708 22.8203L25.375 22.875L26.0757 22.523L26.2141 21.7522L25.6792 21.1797L25.375 21.125ZM33.1953 21.8308L32.4946 22.1812L32.3562 22.9536L32.8928 23.5261L33.1953 23.5808L33.896 23.2288L34.0344 22.4563L33.4995 21.8838L33.1953 21.8308ZM12.0945 22.834L11.3938 23.186L11.2554 23.9585L11.7903 24.531L12.0945 24.584L12.7952 24.2336L12.9336 23.4612L12.397 22.8887L12.0945 22.834ZM15.4697 23.603L14.7673 23.9551L14.6306 24.7275L15.1655 25.3001L15.4697 25.353L16.1704 25.0027L16.3088 24.2302L15.7722 23.6577L15.4697 23.603ZM45.095 29.082L44.3943 29.4341L44.2559 30.2048L44.7908 30.7773L45.095 30.832L45.7957 30.4817L45.9341 29.7092L45.3992 29.1367L45.095 29.082ZM41.6274 29.2341L40.9268 29.5862L40.7883 30.3586L41.325 30.9312L41.6274 30.9841L42.3298 30.6338L42.4666 29.8613L41.9316 29.2888L41.6274 29.2341ZM38.5 30.75L37.7993 31.1021L37.6609 31.8728L38.1958 32.4453L38.5 32.5L39.2007 32.148L39.3391 31.3772L38.8042 30.8047L38.5 30.75ZM13.8855 33.4707L13.1831 33.821L13.0464 34.5935L13.5813 35.166L13.8855 35.2207L14.5862 34.8687L14.7246 34.0979L14.188 33.5254L13.8855 33.4707ZM10.7444 34.9199L10.042 35.272L9.90527 36.0427L10.4402 36.6152L10.7444 36.6699L11.4451 36.3196L11.5835 35.5471L11.0469 34.9746L10.7444 34.9199Z" fill="#E4B564"/>
</svg>
