<svg width="64" height="55" viewBox="0 0 64 55" fill="none" xmlns="http://www.w3.org/2000/svg">
<path d="M10.9365 0.0297569C10.7349 0.0229205 10.5366 0.0468467 10.3418 0.0878623C9.18311 0.340793 8.25 1.37644 8.25 2.65476V9.12497C8.25 10.5639 9.43604 11.75 10.875 11.75H19.9907C20.377 12.7173 21.1494 13.5 22.25 13.5H24V16.125H18.75C17.6494 16.125 16.877 16.9077 16.4907 17.875H8.25C7.93555 17.8716 7.6416 18.0356 7.48096 18.3091C7.32373 18.5825 7.32373 18.9175 7.48096 19.1909C7.6416 19.4643 7.93555 19.6284 8.25 19.625H16.125C16.125 20.1069 16.5181 20.5 17 20.5C17.4819 20.5 17.875 20.1069 17.875 19.625V18.75C17.875 18.2544 18.2544 17.875 18.75 17.875H24.728C24.8237 17.8921 24.9194 17.8921 25.0117 17.875H29.978C30.0737 17.8921 30.1694 17.8921 30.2617 17.875H36.25C36.7456 17.875 37.125 18.2544 37.125 18.75V19.625C37.125 20.1069 37.5181 20.5 38 20.5C38.4819 20.5 38.875 20.1069 38.875 19.625H43.25C52.4409 19.625 59.875 27.0591 59.875 36.25V42.375H60.75C61.2456 42.375 61.625 42.7544 61.625 43.25C61.625 43.7456 61.2456 44.125 60.75 44.125H46.75C46.2544 44.125 45.875 43.7456 45.875 43.25C45.875 42.7544 46.2544 42.375 46.75 42.375H47.625V38C47.625 35.5937 45.6562 33.625 43.25 33.625H38.875C38.875 33.143 38.4819 32.75 38 32.75C37.5181 32.75 37.125 33.143 37.125 33.625V34.5C37.125 34.9956 36.7456 35.375 36.25 35.375H18.75C18.2544 35.375 17.875 34.9956 17.875 34.5V33.625C17.875 33.143 17.4819 32.75 17 32.75C16.5181 32.75 16.125 33.143 16.125 33.625H8.25C7.93555 33.6216 7.6416 33.7856 7.48096 34.0591C7.32373 34.3325 7.32373 34.6675 7.48096 34.9409C7.6416 35.2143 7.93555 35.3784 8.25 35.375H16.4907C16.877 36.3423 17.6494 37.125 18.75 37.125H36.25C37.3506 37.125 38.123 36.3423 38.5093 35.375H43.25C44.7095 35.375 45.875 36.5405 45.875 38V40.9907C44.9077 41.3769 44.125 42.1494 44.125 43.25C44.125 44.6889 45.311 45.875 46.75 45.875H60.75C62.189 45.875 63.375 44.6889 63.375 43.25C63.375 42.1494 62.5923 41.3769 61.625 40.9907V36.25C61.625 26.1123 53.3877 17.875 43.25 17.875H38.5093C38.123 16.9077 37.3506 16.125 36.25 16.125H31V13.5H32.75C33.8506 13.5 34.623 12.7173 35.0093 11.75H44.125C45.564 11.75 46.75 10.5639 46.75 9.12497V2.65476C46.75 0.94919 45.0923 -0.322294 43.4482 0.115206L33.6216 2.73679C32.6919 1.86862 31.5059 1.24997 30.125 1.24997H24.875C23.4941 1.24997 22.3081 1.86862 21.3784 2.73679L11.5518 0.115206H11.5483C11.3433 0.0605186 11.1382 0.0331746 10.9365 0.0297569ZM10.8887 1.77292C10.957 1.77634 11.0288 1.78659 11.1006 1.8071L21.8569 4.6782L22.2192 4.25437C22.8652 3.48532 23.8018 2.99997 24.875 2.99997H30.125C31.1982 2.99997 32.1348 3.48874 32.7808 4.25437L33.1431 4.6782L43.8994 1.8071C44.4736 1.65329 45 2.05661 45 2.65476V9.12497C45 9.62058 44.6206 9.99997 44.125 9.99997H35.375C35.375 9.51804 34.9819 9.12497 34.5 9.12497C34.0181 9.12497 33.625 9.51804 33.625 9.99997V10.875C33.625 11.3706 33.2456 11.75 32.75 11.75H30.2617C30.2104 11.7431 30.1626 11.7363 30.1113 11.7363C30.0703 11.7397 30.0259 11.7431 29.9849 11.75H25.0117C24.9604 11.7431 24.9126 11.7363 24.8613 11.7363C24.8203 11.7397 24.7759 11.7431 24.7349 11.75H22.25C21.7544 11.75 21.375 11.3706 21.375 10.875V9.99997C21.375 9.51804 20.9819 9.12497 20.5 9.12497C20.0181 9.12497 19.625 9.51804 19.625 9.99997H10.875C10.3794 9.99997 10 9.62058 10 9.12497V2.65476C10 2.13181 10.4033 1.75583 10.8887 1.77292ZM20.5 5.62497C20.0181 5.62497 19.625 6.01804 19.625 6.49997C19.625 6.98191 20.0181 7.37497 20.5 7.37497C20.9819 7.37497 21.375 6.98191 21.375 6.49997C21.375 6.01804 20.9819 5.62497 20.5 5.62497ZM34.5 5.62497C34.0181 5.62497 33.625 6.01804 33.625 6.49997C33.625 6.98191 34.0181 7.37497 34.5 7.37497C34.9819 7.37497 35.375 6.98191 35.375 6.49997C35.375 6.01804 34.9819 5.62497 34.5 5.62497ZM25.75 13.5H29.25V16.125H25.75V13.5ZM1.25 17.875C0.768067 17.875 0.375 18.268 0.375 18.75C0.375 19.2319 0.768067 19.625 1.25 19.625C1.73193 19.625 2.125 19.2319 2.125 18.75C2.125 18.268 1.73193 17.875 1.25 17.875ZM4.75 17.875C4.26807 17.875 3.875 18.268 3.875 18.75C3.875 19.2319 4.26807 19.625 4.75 19.625C5.23193 19.625 5.625 19.2319 5.625 18.75C5.625 18.268 5.23193 17.875 4.75 17.875ZM17 22.25C16.5181 22.25 16.125 22.643 16.125 23.125C16.125 23.6069 16.5181 24 17 24C17.4819 24 17.875 23.6069 17.875 23.125C17.875 22.643 17.4819 22.25 17 22.25ZM38 22.25C37.5181 22.25 37.125 22.643 37.125 23.125C37.125 23.6069 37.5181 24 38 24C38.4819 24 38.875 23.6069 38.875 23.125C38.875 22.643 38.4819 22.25 38 22.25ZM17 25.75C16.5181 25.75 16.125 26.143 16.125 26.625C16.125 27.1069 16.5181 27.5 17 27.5C17.4819 27.5 17.875 27.1069 17.875 26.625C17.875 26.143 17.4819 25.75 17 25.75ZM38 25.75C37.5181 25.75 37.125 26.143 37.125 26.625C37.125 27.1069 37.5181 27.5 38 27.5C38.4819 27.5 38.875 27.1069 38.875 26.625C38.875 26.143 38.4819 25.75 38 25.75ZM17 29.25C16.5181 29.25 16.125 29.643 16.125 30.125C16.125 30.6069 16.5181 31 17 31C17.4819 31 17.875 30.6069 17.875 30.125C17.875 29.643 17.4819 29.25 17 29.25ZM38 29.25C37.5181 29.25 37.125 29.643 37.125 30.125C37.125 30.6069 37.5181 31 38 31C38.4819 31 38.875 30.6069 38.875 30.125C38.875 29.643 38.4819 29.25 38 29.25ZM1.25 33.625C0.768067 33.625 0.375 34.018 0.375 34.5C0.375 34.9819 0.768067 35.375 1.25 35.375C1.73193 35.375 2.125 34.9819 2.125 34.5C2.125 34.018 1.73193 33.625 1.25 33.625ZM4.75 33.625C4.26807 33.625 3.875 34.018 3.875 34.5C3.875 34.9819 4.26807 35.375 4.75 35.375C5.23193 35.375 5.625 34.9819 5.625 34.5C5.625 34.018 5.23193 33.625 4.75 33.625ZM50.25 40.625C49.7681 40.625 49.375 41.018 49.375 41.5C49.375 41.9819 49.7681 42.375 50.25 42.375C50.7319 42.375 51.125 41.9819 51.125 41.5C51.125 41.018 50.7319 40.625 50.25 40.625ZM53.75 40.625C53.2681 40.625 52.875 41.018 52.875 41.5C52.875 41.9819 53.2681 42.375 53.75 42.375C54.2319 42.375 54.625 41.9819 54.625 41.5C54.625 41.018 54.2319 40.625 53.75 40.625ZM57.25 40.625C56.7681 40.625 56.375 41.018 56.375 41.5C56.375 41.9819 56.7681 42.375 57.25 42.375C57.7319 42.375 58.125 41.9819 58.125 41.5C58.125 41.018 57.7319 40.625 57.25 40.625ZM54.625 48.5C54.625 48.5 52.875 51.9077 52.875 52.875C52.875 53.8423 53.6577 54.625 54.625 54.625C55.5923 54.625 56.375 53.8423 56.375 52.875C56.375 51.9077 54.625 48.5 54.625 48.5Z" fill="#E4B564"/>
</svg>
