<svg width="75" height="67" viewBox="0 0 75 67" fill="none" xmlns="http://www.w3.org/2000/svg">
<path d="M59.9311 0.8065C54.6348 0.728679 48.7067 3.55766 45.2277 7.03666C43.9048 8.3596 43.0808 9.63676 42.6093 10.9048C40.9385 9.65965 39.0754 8.6663 36.7362 8.40995L28.7848 7.52647L25.3379 7.03666C23.5251 6.77574 21.6666 7.39372 20.3666 8.68919L1.92327 27.1279C0.224964 28.8308 -0.264843 31.4538 0.714771 33.651L4.78887 42.82C5.68609 44.8388 6.97698 46.6012 8.64324 48.0706L12.4793 51.3848L12.0673 51.7922C10.5201 53.3395 9.66863 55.3994 9.66863 57.5921C9.66863 59.7848 10.5201 61.8447 12.0673 63.3965C13.6695 64.9941 15.766 65.7952 17.8718 65.7952C19.9729 65.7952 22.0694 64.9941 23.6716 63.3965L24.9305 62.1331L28.2035 64.9621C29.2243 65.8547 30.5015 66.2942 31.7695 66.2942C33.1656 66.2942 34.5572 65.7677 35.6101 64.7149C36.6263 63.6941 37.1894 62.3391 37.1894 60.8926C37.1894 60.6911 37.1756 60.4851 37.1528 60.2837C39.1303 61.007 41.4191 60.5584 42.9755 59.0066C44.1016 57.8805 44.6372 56.3882 44.5868 54.9096C46.7246 56.1455 49.4758 55.816 51.261 54.0307C52.6572 52.6391 53.1516 50.6753 52.7396 48.8808C54.5432 49.2928 56.507 48.7847 57.894 47.4023L58.1733 47.123C60.1737 45.118 60.2881 41.8771 58.4342 39.7393L53.2798 33.7884L55.0605 32.0031C60.0135 33.5595 63.964 34.7039 68.4272 30.2361C72.6935 25.9698 75.994 17.9955 74.1218 12.0446C74.0027 11.6555 73.6823 11.358 73.284 11.2618C72.8858 11.1611 72.4647 11.2801 72.1763 11.5685L64.8612 18.8836C64.5682 19.1766 64.1334 19.291 63.7351 19.1857L62.4534 18.8424C59.629 18.0871 57.4088 15.8623 56.6535 13.0425L56.3056 11.7608C56.2003 11.358 56.3147 10.9231 56.6123 10.6301L63.9365 3.30131C64.2249 3.01292 64.3439 2.59178 64.2478 2.1981C64.1517 1.79985 63.8541 1.47941 63.465 1.35582C62.3481 0.99876 61.1579 0.82481 59.9311 0.8065ZM59.8258 3.16398C60.1279 3.16398 60.4255 3.17771 60.7184 3.2006L54.9506 8.96843C54.0625 9.85191 53.7192 11.1565 54.0397 12.365L54.383 13.6468C55.358 17.2768 58.2145 20.1333 61.84 21.1037L63.1217 21.4516C64.3348 21.7767 65.6348 21.4242 66.5229 20.5361L72.2678 14.7912C72.6294 19.4787 69.9881 25.3609 66.7701 28.579C63.227 32.1175 60.485 31.2569 55.4999 29.6868L55.0834 29.5541C54.6668 29.4259 54.209 29.5357 53.9023 29.8424L51.7371 32.0122L44.0421 23.1316L45.6168 21.5569C45.9281 21.2502 46.038 20.7925 45.9052 20.3759L45.777 19.9593C44.2023 14.9743 43.3371 12.2323 46.8802 8.68919C49.9106 5.66337 55.2939 3.15483 59.8258 3.16398ZM24.1889 9.33464C24.4544 9.30717 24.7291 9.31633 25.0037 9.35295L28.4873 9.85191C28.4919 9.85191 28.4964 9.84733 28.501 9.84733C28.5102 9.85191 28.5148 9.85649 28.5239 9.85649L36.4753 10.7354C38.6908 10.9826 40.3891 12.0675 42.0829 13.482C41.9913 15.6609 42.6688 17.904 43.4562 20.4034L42.4994 21.3555L39.4782 17.8674C39.0571 17.3775 38.3155 17.3272 37.8257 17.7529C37.3359 18.1741 37.2855 18.9156 37.7067 19.4009L56.6626 41.2728C57.7155 42.4859 57.6514 44.3261 56.5116 45.4613L56.2323 45.7452C55.0971 46.8804 53.2889 46.9949 52.0209 46.0061L47.6035 42.5683C47.1137 42.1883 46.4133 42.2524 46.0059 42.7193C45.5939 43.1817 45.6168 43.8866 46.0517 44.3215L49.6039 47.8738C50.8445 49.1143 50.8445 51.133 49.6039 52.3782C48.4687 53.5088 46.6605 53.6233 45.3925 52.6345L40.9751 49.1967C40.4853 48.8168 39.7849 48.8808 39.3729 49.3478C38.9655 49.8101 38.9884 50.5151 39.4233 50.9499L41.3138 52.8405C42.5589 54.0856 42.5589 56.1044 41.3138 57.3449C40.1832 58.4801 38.3704 58.59 37.107 57.6104L32.685 54.1726C32.1998 53.7881 31.4994 53.8522 31.0874 54.3191C30.68 54.7814 30.6983 55.4864 31.1377 55.9258L33.9484 58.7319C34.5252 59.3087 34.8456 60.0777 34.8456 60.8926C34.8456 61.712 34.5252 62.481 33.9484 63.0578C32.8086 64.1976 30.9592 64.2617 29.7416 63.1951L10.1813 46.3036C8.78057 45.0677 7.69109 43.5799 6.9312 41.8725L2.85711 32.6989C2.27117 31.3805 2.56414 29.8104 3.58037 28.7896L22.0237 10.3509C22.605 9.76493 23.3787 9.41246 24.1889 9.33464ZM49.3659 16.636C49.0683 16.636 48.7708 16.7504 48.5419 16.9793C48.0796 17.4371 48.0796 18.1786 48.5419 18.6364L56.8229 26.9219C57.0517 27.1508 57.3539 27.2652 57.656 27.2652C57.9535 27.2652 58.2557 27.1508 58.4845 26.9219C58.9423 26.4642 58.9423 25.7226 58.4845 25.2648L50.1944 16.9793C49.9656 16.7504 49.668 16.636 49.3659 16.636ZM41.9089 34.0356C41.6068 34.0356 41.3093 34.15 41.0804 34.3789C40.6226 34.8412 40.6226 35.5782 41.0804 36.036L42.7375 37.6931C42.9664 37.922 43.2685 38.0364 43.566 38.0364C43.8682 38.0364 44.1703 37.922 44.3992 37.6931C44.8569 37.2353 44.8569 36.4938 44.3992 36.036L42.7375 34.3789C42.5086 34.15 42.211 34.0356 41.9089 34.0356ZM37.7662 38.1829C37.464 38.1829 37.1665 38.2928 36.9376 38.5216C36.4798 38.9794 36.4798 39.7256 36.9376 40.1833L38.5993 41.8359C38.8236 42.0647 39.1257 42.1792 39.4233 42.1792C39.7254 42.1792 40.0275 42.0647 40.2518 41.8359C40.7142 41.3781 40.7142 40.6365 40.2518 40.1833L38.5947 38.5216C38.3658 38.2928 38.0683 38.1829 37.7662 38.1829ZM33.6234 42.3257C33.3259 42.3257 33.0237 42.4355 32.7948 42.669C32.3371 43.1222 32.3371 43.8638 32.7948 44.3215L34.452 45.9832C34.6808 46.2075 34.9784 46.3219 35.2805 46.3219C35.5826 46.3219 35.8802 46.2075 36.1091 45.9832C36.5668 45.5254 36.5668 44.7839 36.1091 44.3215L34.452 42.669C34.2231 42.4355 33.9209 42.3257 33.6234 42.3257ZM29.4806 46.4638C29.1831 46.4638 28.881 46.5783 28.6521 46.8117C28.1943 47.2695 28.1943 48.0065 28.6521 48.4643L30.3092 50.126C30.5381 50.3503 30.8356 50.4693 31.1377 50.4693C31.4399 50.4693 31.7374 50.3503 31.9663 50.126C32.4241 49.6636 32.4241 48.9266 31.9663 48.4643L30.3092 46.8117C30.0803 46.5783 29.7782 46.4638 29.4806 46.4638ZM25.3379 50.6066C25.0358 50.6066 24.7382 50.7211 24.5047 50.9499C24.047 51.4123 24.047 52.1493 24.5047 52.6116L26.1664 54.2641C26.3907 54.493 26.6929 54.612 26.9904 54.612C27.2925 54.612 27.5947 54.493 27.819 54.2641C28.2813 53.8064 28.2813 53.0694 27.819 52.6116L26.1664 50.9499C25.933 50.7211 25.6354 50.6066 25.3379 50.6066ZM14.2554 52.9137L23.1498 60.5996L22.0099 61.7348C19.7257 64.0191 16.0087 64.0191 13.7244 61.7348C12.6166 60.6316 12.0078 59.1576 12.0078 57.5921C12.0078 56.0265 12.6166 54.5571 13.7244 53.4493L14.2554 52.9137Z" fill="#E4B564"/>
</svg>
